<svg xmlns="http://www.w3.org/2000/svg" xmlns:xlink="http://www.w3.org/1999/xlink" viewBox="0 0 300 300"><defs><style>.cls-1{isolation:isolate;}.cls-2{fill:#00bdf1;}.cls-3{fill:#007cd8;}.cls-4,.cls-6,.cls-7{fill:#c67207;}.cls-5{fill:#5b2500;}.cls-14,.cls-6{mix-blend-mode:screen;}.cls-10,.cls-12,.cls-7,.cls-9{mix-blend-mode:multiply;}.cls-7{opacity:0.5;}.cls-11,.cls-8{fill:#fff;}.cls-8{mix-blend-mode:overlay;}.cls-9{fill:#c47c29;opacity:0.7;}.cls-10{fill:url(#radial-gradient);}.cls-12{fill:#a5824f;}.cls-13{mask:url(#mask);}.cls-14{fill:url(#radial-gradient-2);}.cls-15{filter:url(#luminosity-noclip);}</style><radialGradient id="radial-gradient" cx="116.2" cy="138" r="103.25" gradientTransform="translate(-105.34 -124.91) scale(1.66 1.65)" gradientUnits="userSpaceOnUse"><stop offset="0" stop-color="#fff"/><stop offset="0.37" stop-color="#fefdfd"/><stop offset="0.51" stop-color="#f9f8f6"/><stop offset="0.6" stop-color="#f1eeeb"/><stop offset="0.68" stop-color="#e5dfda"/><stop offset="0.75" stop-color="#d6ccc4"/><stop offset="0.8" stop-color="#c3b5a8"/><stop offset="0.86" stop-color="#ac9a88"/><stop offset="0.91" stop-color="#927a62"/><stop offset="0.95" stop-color="#745537"/><stop offset="0.99" stop-color="#542e09"/><stop offset="1" stop-color="#4e2600"/></radialGradient><filter id="luminosity-noclip" x="-310.78" y="44.54" width="524.77" height="907.18" filterUnits="userSpaceOnUse" color-interpolation-filters="sRGB"><feFlood flood-color="#fff" result="bg"/><feBlend in="SourceGraphic" in2="bg"/></filter><mask id="mask" x="-310.78" y="44.54" width="524.77" height="907.18" maskUnits="userSpaceOnUse"><g class="cls-15"/></mask><radialGradient id="radial-gradient-2" cx="174.71" cy="189.63" r="91.91" gradientTransform="translate(-105.34 -124.91) scale(1.66 1.65)" gradientUnits="userSpaceOnUse"><stop offset="0" stop-color="#2b2b2b"/><stop offset="0.24" stop-color="#2e2d2c"/><stop offset="0.38" stop-color="#363431"/><stop offset="0.5" stop-color="#443f39"/><stop offset="0.6" stop-color="#595045"/><stop offset="0.7" stop-color="#736554"/><stop offset="0.79" stop-color="#947f67"/><stop offset="0.88" stop-color="#bb9d7c"/><stop offset="0.96" stop-color="#e6c095"/><stop offset="0.99" stop-color="#fdd2a2"/></radialGradient></defs><g class="cls-1"><g id="Layer_1" data-name="Layer 1"><ellipse class="cls-2" cx="150.05" cy="150.18" rx="105.81" ry="105.41"/><path class="cls-3" d="M256,150.18s0,.65,0,1.91,0,3.1-.21,5.53a101.26,101.26,0,0,1-3.45,20.76,107.64,107.64,0,0,1-13.15,30A106.37,106.37,0,0,1,209.6,239a109.94,109.94,0,0,1-21.79,11.35,103.94,103.94,0,0,1-25.61,6.07,105.67,105.67,0,0,1-55.41-9,109.2,109.2,0,0,1-45.36-38.65,105.56,105.56,0,0,1-13.28-27.82,109,109,0,0,1-3.57-15.18,117.52,117.52,0,0,1-1.32-15.6,117.2,117.2,0,0,1,1-15.61,108.13,108.13,0,0,1,3.25-15.32,106.47,106.47,0,0,1,58.93-67.07,103.92,103.92,0,0,1,27.93-8.07c2.37-.29,4.72-.64,7.07-.76,1.18-.08,2.34-.2,3.52-.24l3.49-.09c2.45-.09,4.62.09,6.9.11,2.31.18,4.64.29,6.89.58a104.93,104.93,0,0,1,25.63,6.22,109.23,109.23,0,0,1,21.78,11.42A107.09,107.09,0,0,1,252.37,122a99.61,99.61,0,0,1,3.42,20.77c.22,2.41.16,4.28.22,5.54S256,150.18,256,150.18Zm-.35,0s0-.65-.06-1.9,0-3.1-.27-5.51a100.25,100.25,0,0,0-3.67-20.61,89.5,89.5,0,0,0-5.18-14,100.7,100.7,0,0,0-8.61-15.29,106.62,106.62,0,0,0-76.07-45.64c-2.18-.27-4.35-.35-6.56-.53l-3.4-.08-1.71,0-1.65,0-3.37.09c-1.15,0-2.28.16-3.4.24-2.28.13-4.56.47-6.84.75a103.56,103.56,0,0,0-13.62,3c-2.27.6-4.49,1.42-6.75,2.15s-4.45,1.63-6.63,2.65a104.87,104.87,0,0,0-62.71,94.75,119.49,119.49,0,0,0,1,15.32,108.38,108.38,0,0,0,3.23,15,104.88,104.88,0,0,0,13,27.61,103,103,0,0,0,45.2,37.52c2.19,1,4.48,1.76,6.7,2.62s4.53,1.52,6.82,2.09a103.28,103.28,0,0,0,13.76,2.8c2.29.25,4.58.57,6.85.67,1.14.06,2.25.17,3.4.2l3.45.05c2.23.09,4.48-.09,6.72-.12,2.23-.19,4.43-.29,6.61-.58a107.24,107.24,0,0,0,76.07-45.91,100.22,100.22,0,0,0,8.61-15.29,88.4,88.4,0,0,0,5.17-14,100.74,100.74,0,0,0,3.65-20.61c.24-2.41.21-4.28.27-5.53S255.69,150.18,255.69,150.18Z"/><ellipse class="cls-4" cx="150.05" cy="149.53" rx="105.81" ry="105.41"/><path class="cls-5" d="M150.05,255.81c-58.82,0-106.7-47.68-106.7-106.28S91.23,43.24,150.05,43.24,256.74,90.92,256.74,149.53,208.88,255.81,150.05,255.81Zm0-210.82c-57.87,0-105,46.9-105,104.54s47.08,104.54,105,104.54S255,207.17,255,149.53,207.91,45,150.05,45Z"/><ellipse class="cls-4" cx="150.05" cy="149.53" rx="105.81" ry="105.41"/><path class="cls-5" d="M150.05,255.81c-58.82,0-106.7-47.68-106.7-106.28S91.23,43.24,150.05,43.24,256.74,90.92,256.74,149.53,208.88,255.81,150.05,255.81Zm0-210.82c-57.87,0-105,46.9-105,104.54s47.08,104.54,105,104.54S255,207.17,255,149.53,207.91,45,150.05,45Z"/><path class="cls-6" d="M252.93,124.9c-6.22-.53-12.87-1.47-18-4.9-6-4-8.52-10.83-12.78-16.37-.07,8.16,4.59,19.06-4.33,23.3-2.25,1.07-4.13-.83-5.26-2.58-1.52-2.35-2.84-4.66-5.77-5.44-2.75-.74-5.35-.58-6,2.66-1.11,5.43,1.29,13.55-2.53,18.15-4.33,5.21-16,2.42-21.66,1.71a.8.8,0,0,1-.56-.79c.15-7.31,2.86-15.65-4.91-20.23a47.84,47.84,0,0,1-9.23-6.83c-2.22-2.12-3.14-4.75-6-5.19,2.58,7.35,12,10.59,13.38,18.32,1.27,7-3.38,10.38-8.73,13.84-6.1,3.91-6,8.75-7.52,15.06-.58,2.4-1.42,5.3-3.52,6.88-1.76,1.31-5.56,3.58-7.84,2.75-3.34-1.21-4.39-4.48-9.2-1.57-1.75,1.05-3.42,2.19-5.18,3.19a.85.85,0,0,1-1.3-.4c-1.48-5.16-7.08-11-11.72-4.54-2.07,2.9-2.52,6.37-3.73,9.65-1.45,3.94-3.79,5.56-7.6,7.1s-4,6.83-9.12,4.65c-2.36-1-4.49-3.73-6.21-5.59-3.2-3.48-5.36-10.19-11.38-5.24-.43.35-1.37.57-1.55-.22a62.33,62.33,0,0,0-2-8.55c-.52-1.39-1.14-3.53-2.59-4.27-4.55-2.34-5.41,3.9-5.65,6.08-.41,3.9-.24,8.59-4.17,10.61-1.81.92-3.85-.5-5.54-.86-5-1-4.67,6.24-4.49,9.2a103.89,103.89,0,0,0,11.89,23.63c6.69-4.59,15-8.73,22.82-10.39,5.65-1.19,12.81.1,10.43,7.73-.83,2.65-3.93,3.78-6.41,4.11-2,.27-4,.3-6,.42-4.06.24-4.82,3.56-5.88,6.8a13.64,13.64,0,0,1-3.41,5.63,106.09,106.09,0,0,0,10.4,9.48c1.47-2.91,3.72-5,7.74-5,6,0,10.55,7.68,16.87,5.74,3.7-1.15,7.36-2.52,11-3.9,2.11-.79,4.22-1.58,6.28-2.46,3.61-1.55-.71-5.85-2.31-7.85-2.87-3.58-4.5-6.87-3.31-11.57,2.33-9.18,10.35-14.46,19.49-14.79-.23-5-.29-11.1,3.76-14.67,1.7-1.5,4.56-3.84,6.94-3.94s6.27,1.23,8.15-.9a9.23,9.23,0,0,1,2.22-2.19c4.71-2.46,9.65,2.88,11.05,7.25a16,16,0,0,1,.54,8.18c-1,4.78-.2,7.2,3.29,10.27,2.43-6.13-3.66-15.61,2.58-20.27,2.63-2,4.47-2.25,7.57-1,4.38,1.7,6.1-4.51,8.94-6.55,4.68-3.35,10.56-2.61,12.86,2.9,1.53,3.71,2.41,7.93,5.28,10.94s6.78,5,10.21,7.52c.93.69,7,7.23,7.1,7.14,6.14-3.52,5.65-9.39,5-15.48-.67-6.54-3.05-15.67,3.28-20.05a7.3,7.3,0,0,1,3.73-.87c4.94-.29,4.85-7.76,4-10.74-.77-2.58-1.59-4.81-.95-7.49s3.4-5.48,5.71-6.62c1.21-.6,2.44-1,3.55-1.7C254.16,130.76,253.63,127.8,252.93,124.9Z"/><path class="cls-4" d="M111.41,91.17c-4-6.27-9.86,1.57-12.28,5C96.91,99.3,94.42,103,95.7,107c1.48,4.59,7.72,4,10.66,1.49,1.91-1.61,2-6.77-1.61-5.59a6.78,6.78,0,0,1-2.25.33,1,1,0,0,1-.53-.09v0c.21-1.59,1.33-3.07,2.13-4.41.59-1,1.12-2,1.77-2.87A9.17,9.17,0,0,1,107,94.43l.3-.23c0,.07.19.13.55.45C109.72,96.41,112.62,93.08,111.41,91.17Z"/><path class="cls-7" d="M115.73,54.57c-2.93,1.6-5.3,4.49-8.64,5.32-2.84.69-5.8.18-8.61,1a6,6,0,0,0-4.59,6.44A16.58,16.58,0,0,0,91.17,69,22.72,22.72,0,0,0,85.7,74.1c-1.48,1.89-.77,4.33,1.09,4.78-1.45,6.39-5.3,7.67-10.74,10.61-3.85,2.09-7.4,6.92-7.81,11.3-.56,6-3.94,13.16-.48,18.62a2.58,2.58,0,0,0,2.67,1c6.15-1,9.78-8.43,13.09-13,5.4-7.47,14.4-3,21.08-7.79,5.63-4,6.16-9.42,6.22-15.92.06-9.67,8.52-12.06,14.17-18C133,57.33,125.76,49.09,115.73,54.57Z"/><path class="cls-7" d="M158.19,87.29c-.36-3.39-.65-10.15-2.74-12.83-1.7-2.18-3.95-4.16-7-3.71-3.77.56-10.79,1-13.82,3.41-2.4,1.86-5.12,4.77-3.89,8.19,1.77,4.92-2.32,7.27-4.44,11.29a10.51,10.51,0,0,0-4.36,8.77c.28,7.11-1.53,9.46-7.33,12.77-2.11,1.22-4.52,3.07-5.13,5.61-1.08,4.64,4.5,8,8.51,6.06,7.25-3.47,8.52-11.48,14.18-16.26,3.2-2.69,8.45-3.32,12.33-4.74a20.41,20.41,0,0,0,9.56-7.54C156.09,95.47,158.6,91,158.19,87.29Z"/><path class="cls-7" d="M95,114.76c-3-2.89-7.06-.48-9.75,2.26-2-.2-3.76,1.51-4.23,3.33-.24.86-.12,3.2-.8,3.8a14.38,14.38,0,0,0-2.22,1c-2.34,1.2-4.75,3.24-4.72,6.11.08,5.29,6.85,3.1,9.87,2.41,1.92-.44,4.07-1.28,5.87-.82a6.11,6.11,0,0,0,6.44-1.8C98.83,126.7,99.19,118.72,95,114.76Z"/><path class="cls-7" d="M203.61,68.66a2.6,2.6,0,0,0-1.69.23c-.47-.23-.92-.45-1.36-.63-4.14-1.74-8.58-2.43-11.86,1.38-2.73,3.17-2.93,7.25-3.33,11.13s1.24,7.48,5.26,8.27,7.62-3.2,10.32-5.42a16.63,16.63,0,0,1,3.55-1.25,7.67,7.67,0,0,0,4.58-4.59C210.61,73.56,207.93,69.52,203.61,68.66Z"/><path class="cls-7" d="M172.6,54.6l-1.13-.17c-1.83-.3-3.84,1.62-4.08,3.45a5.94,5.94,0,0,0-.58,1.53,2.54,2.54,0,0,0,.76,2.57,4.09,4.09,0,0,0,4.41.36,6.18,6.18,0,0,0,3-5.12A2.59,2.59,0,0,0,172.6,54.6Z"/><path class="cls-7" d="M185.23,222.24c-3.77-2.73-8.64-.05-12.6-2.27-3.24-1.81-6.29-2.71-9.83-1.23s-4.37,6.2-4.73,9.57-3.31,5-5,7.61L152,236c-4.27.4-6.1,8.31-1,8.59a8.58,8.58,0,0,0,2.08-.16c4.55-.28,8.36.4,12-3.23a29.49,29.49,0,0,0,2.9-3.54,9.33,9.33,0,0,0,4.23-1.83c1.75.06,3.64.32,4.41.29C182.93,235.84,193,227.82,185.23,222.24Z"/><path class="cls-7" d="M219.5,198.7c-1.14-2.06-3.76-1.43-5.3-.43a9.49,9.49,0,0,0-1.12.86,24,24,0,0,0-2.33-3.35c-1.45-1.83-3.5-1.63-5.31-.43-5.25,3.49-5.32,10.1-8.09,15.2-1.49,2.72-2.68,5.54-1.61,8.62a6.55,6.55,0,0,0,6.57,4.12,10.59,10.59,0,0,0,7.25-3.58c2.48-2.66,3.75-5.05,7.36-6.47C223,210.83,222,203.21,219.5,198.7Z"/><path class="cls-7" d="M147.55,200.28c-3.27-.61-6.11,2.66-7.68,5.57a11.32,11.32,0,0,0-1.3,1.06c-1.66,1.54-2.34,3.85-3.37,5.88a16.4,16.4,0,0,0-3.15,2.15c-1.05.93-2.09,3.24-.51,4.28,3.6,2.38,7,.42,10-1.93,1.52-1.19,3.49-1.48,5.24-2.34,2.28-1.13,3.49-3,4.82-5.1A6.11,6.11,0,0,0,147.55,200.28Z"/><path class="cls-7" d="M131.38,238.66a.09.09,0,0,0,0-.06l0,0a1.35,1.35,0,0,0-.76-1.62,1.43,1.43,0,0,0-1.4.25,1.32,1.32,0,0,0-.26,0,10,10,0,0,0-1.43.6,9.12,9.12,0,0,0-1,.22c-2.13.64-3.56,2.81-2.14,4.86a2.17,2.17,0,0,0,3.15.26h0c.24-.13.49-.24.74-.35a12.3,12.3,0,0,0,2-1.11A3,3,0,0,0,131.38,238.66Z"/><path class="cls-7" d="M140.13,121.9a3.36,3.36,0,0,0-2.39-1.65c-2.22-.39-3.9.71-5.35,2.25a10.34,10.34,0,0,0-1.6,2.47,8.55,8.55,0,0,0-3.37,6.81,1.92,1.92,0,0,0,2.33,1.88,11,11,0,0,0,3-1c2.26.41,4-1.09,5.52-2.61,1.36-1.36,2.95-3.23,3.31-5.17A2.49,2.49,0,0,0,140.13,121.9Z"/><path class="cls-7" d="M84.25,145a5.49,5.49,0,0,0-.36-3.7,2.07,2.07,0,0,0-1.12-.86,1.41,1.41,0,0,0-2.16.23A5.11,5.11,0,0,0,77.25,147a8.83,8.83,0,0,0-.14.94c-.08,1.37,1.19,2,2.34,1.89a4.46,4.46,0,0,0,2-.72A5.08,5.08,0,0,0,84.25,145Z"/><path class="cls-7" d="M92.65,119.4h0a1.18,1.18,0,0,0-1.05-.92,5.54,5.54,0,0,0-6,3,6.9,6.9,0,0,0-.62,2,11.32,11.32,0,0,0-3.05,2.28c-1.45,1.73-2,5.23.89,5.86a9.29,9.29,0,0,0,7-1.72c1.63-1.17,4.41-4.17,4.32-6.9A4.86,4.86,0,0,0,92.65,119.4Z"/><path class="cls-7" d="M148.07,79.16A3.76,3.76,0,0,0,143,79c-1.55-.11-3.12.93-4.33,2.44a9.37,9.37,0,0,0-1.89,4.44c-.18,1.14.41,1.58-.33,2.25s-1.64,1.19-2.41,1.84c-2.74,2.33-5.19,6.62-2.38,9.78s6.66.43,8.49-2.24c.95-1.37,1.57-2.87,2.87-4s3.11-2,4.35-3.43C149.76,87.34,151.15,82,148.07,79.16Z"/><path class="cls-7" d="M100.7,82.15a4,4,0,0,0-5.09-2.88.88.88,0,0,0-1.39-.16,11.61,11.61,0,0,0-1.94,2.27s0,0,0,0a9.94,9.94,0,0,0-1.09,1.7,16,16,0,0,1-3.39,4.27c-1,.37-2.16.87-3,1.3-3.65.9-7.25,1.52-9.21,5.24-1.23,2.33-2.4,6.58.74,8.06,3.47,1.63,5.94-1,8.12-3.41,1.2-1.32,6-.81,7.77-1.16,2.24-.43,4-2.28,5.53-3.87C100.46,90.54,101.94,86.09,100.7,82.15Z"/><path class="cls-7" d="M197.5,73.45c-2.29-1.47-5,1.17-4.38,3.58a1.39,1.39,0,0,0,.25.52,2.1,2.1,0,0,0,.06.9c.74,2.09,3.34,1.25,4.29-.2C198.55,77,199.08,74.45,197.5,73.45Z"/><path class="cls-7" d="M184.4,96.47v-.18a1.13,1.13,0,0,0-1.36-.78c-1.65.4-3.84,1.85-3,3.88,1,2.61,4.3.81,4.69-1.29A2.16,2.16,0,0,0,184.4,96.47Z"/><path class="cls-7" d="M169.91,223.74a4.08,4.08,0,0,0-5.18-.57c-2.84,1.71-.89,5-3,7.05-1.52,1.45-5.42,4.14-4.23,6.81,1.46,3.34,4.57.89,6.3-.81a12.17,12.17,0,0,1,7.81-3.87c2.46-.34,6.35-2.12,6.07-5.23C177.39,223.49,173.4,222.84,169.91,223.74Z"/><path class="cls-7" d="M214.17,206.57a4.88,4.88,0,0,0-5.86-4.23,4.68,4.68,0,0,0-.83.25,1.63,1.63,0,0,0-1.12-.45c-2-.13-3.46,2.13-4,3.75a12.19,12.19,0,0,0-.42,3.66c0,1.17-.65,1.65-1.4,2.45a6.16,6.16,0,0,0-1.73,5.92c.41,1.53,2,1.79,3.32,1.29a9.67,9.67,0,0,0,3.61-2.57c1-1,1.41-2.56,2.4-3.53C210.09,211.21,214.68,210.23,214.17,206.57Z"/><path class="cls-7" d="M148.75,205.66a2.92,2.92,0,0,0-3.34-.39,1.84,1.84,0,0,0-2,1.24c-.82,2.28-3.19,3.76-4.26,6a2.18,2.18,0,0,0,.42,2.62c1.49,1.42,3.52.94,5.09-.07a11.33,11.33,0,0,0,2-1.77,9.18,9.18,0,0,0,.72-.84c.14-.14.91-1.11.3-.51C149.25,210.38,150.91,207.54,148.75,205.66Z"/><path class="cls-4" d="M168.34,202a2.52,2.52,0,0,0-1.55-.54,3.12,3.12,0,0,0-2.15-.94c-3.61-.17-7.43,4.27-7.25,7.83a1.88,1.88,0,0,0-.21,1.38,2.66,2.66,0,0,0,2.43,2c.09,0,.18.12.27.16C164.05,213.83,172.48,205.33,168.34,202Z"/><path class="cls-8" d="M84.19,68.68S17.94,124.15,59.48,198C59.48,198,27.51,126.57,84.19,68.68Z"/><path class="cls-9" d="M241.87,101.84s23.67,74.54-20.06,121.8C221.81,223.64,274.89,183.88,241.87,101.84Z"/><ellipse class="cls-10" cx="150.05" cy="149.53" rx="105.81" ry="105.41"/><path class="cls-11" d="M84.19,68.68S17.94,124.15,59.48,198C59.48,198,27.51,126.57,84.19,68.68Z"/><path class="cls-12" d="M241.87,101.84s23.67,74.54-20.06,121.8C221.81,223.64,274.89,183.88,241.87,101.84Z"/><g class="cls-13"><path class="cls-14" d="M74.36,199.57c7.31-3.72,11.93-9.48,11-18.15-1.29-11.78-9-22.14-8.14-34.22a20.11,20.11,0,0,1,12.19-16.72c7.48-3.32,16.14-3,24.09-4.09,6.69-.93,13.49-2.63,16.88-9.17,1.94-3.74,3.39-7.63,6.07-11,6.28-7.81,18.16-8,26.27-3.09,4.45,2.68,9,9.49,14.31,10.23,9.61,1.34,9.79-7.48,12.28-13.84.16-.46.87-1.09,1.42-.84,5.65,2.63,9,9.84,14.79,11.72,7.93,2.57,9.2-13.81,8.14-18.16-1.27-5.22-3.46-10-5.21-15.1-1.64-4.74-4.47-11-1.76-15.8a103.17,103.17,0,0,0-56.65-16.85c-57.11,0-103.41,46.13-103.41,103a102.26,102.26,0,0,0,19.35,60C67.62,203.6,70.63,201.48,74.36,199.57Z"/></g></g></g></svg>