<svg xmlns="http://www.w3.org/2000/svg" xmlns:xlink="http://www.w3.org/1999/xlink" viewBox="0 0 300 300"><defs><style>.cls-1{isolation:isolate;}.cls-2{fill:#00bdf1;}.cls-3{fill:#007cd8;}.cls-14,.cls-15,.cls-4,.cls-5,.cls-6{mix-blend-mode:multiply;}.cls-4{fill:url(#radial-gradient);}.cls-5{fill:#93d9f7;}.cls-6{fill:#12c2f2;opacity:0.3;}.cls-7{fill:#82c241;}.cls-8{fill:#008f47;}.cls-12,.cls-9{mix-blend-mode:screen;}.cls-9{opacity:0.4;}.cls-10{fill:#c3d82e;}.cls-11{mask:url(#mask);}.cls-12{fill:url(#radial-gradient-2);}.cls-13,.cls-16{fill:#fff;}.cls-13{mix-blend-mode:overlay;}.cls-14{fill:#2a724d;opacity:0.7;}.cls-15{fill:#1160ac;}.cls-17{fill:#296e9d;}.cls-18{fill:#e1f3fc;}.cls-19{filter:url(#luminosity-noclip);}</style><radialGradient id="radial-gradient" cx="114.25" cy="129.21" r="154.48" gradientTransform="translate(-4.78 -15.57) scale(1 0.99)" gradientUnits="userSpaceOnUse"><stop offset="0" stop-color="#fff"/><stop offset="0.39" stop-color="#fdfdfd"/><stop offset="0.53" stop-color="#f6f6f6"/><stop offset="0.63" stop-color="#ebebeb"/><stop offset="0.71" stop-color="#dadada"/><stop offset="0.77" stop-color="#c4c4c4"/><stop offset="0.84" stop-color="#a8a8a8"/><stop offset="0.89" stop-color="#888"/><stop offset="0.94" stop-color="#626262"/><stop offset="0.99" stop-color="#393939"/><stop offset="1" stop-color="#2b2b2b"/></radialGradient><filter id="luminosity-noclip" x="-763.1" y="42.88" width="977.28" height="898.46" filterUnits="userSpaceOnUse" color-interpolation-filters="sRGB"><feFlood flood-color="#fff" result="bg"/><feBlend in="SourceGraphic" in2="bg"/></filter><mask id="mask" x="-763.1" y="42.88" width="977.28" height="898.46" maskUnits="userSpaceOnUse"><g class="cls-19"/></mask><radialGradient id="radial-gradient-2" cx="258.58" cy="268.99" r="238.98" gradientTransform="translate(-4.78 -15.57) scale(1 0.99)" gradientUnits="userSpaceOnUse"><stop offset="0" stop-color="#2b2b2b"/><stop offset="0.39" stop-color="#2d2d2d"/><stop offset="0.53" stop-color="#343434"/><stop offset="0.63" stop-color="#3f3f3f"/><stop offset="0.71" stop-color="#505050"/><stop offset="0.77" stop-color="#666"/><stop offset="0.84" stop-color="#828282"/><stop offset="0.89" stop-color="#a2a2a2"/><stop offset="0.94" stop-color="#c8c8c8"/><stop offset="0.99" stop-color="#f1f1f1"/><stop offset="1" stop-color="#fff"/></radialGradient></defs><g class="cls-1"><g id="Layer_1" data-name="Layer 1"><path class="cls-2" d="M269.1,150.18c0,59.67-48.56,108-108.45,108s-108.47-48.37-108.47-108,48.56-108,108.47-108S269.1,90.51,269.1,150.18Z"/><path class="cls-3" d="M269.28,150.18s0,.67,0,1.95,0,3.2-.2,5.68a103.21,103.21,0,0,1-3.53,21.28A111.32,111.32,0,0,1,252,209.79a108.79,108.79,0,0,1-30.33,31.39,112,112,0,0,1-22.35,11.63A106,106,0,0,1,173.1,259a108.15,108.15,0,0,1-56.79-9.2,111.86,111.86,0,0,1-46.49-39.6,110.16,110.16,0,0,1-18.61-60,119.63,119.63,0,0,1,1-16,112.36,112.36,0,0,1,3.36-15.69,109.09,109.09,0,0,1,60.38-68.75,106.42,106.42,0,0,1,28.64-8.27c2.44-.29,4.82-.66,7.25-.78,1.2-.08,2.39-.2,3.61-.25l3.57-.08c2.51-.1,4.72.08,7.08.1,2.36.19,4.75.3,7,.6A107.72,107.72,0,0,1,199.4,47.4a113.69,113.69,0,0,1,22.33,11.71,109.61,109.61,0,0,1,43.77,62.16A103.31,103.31,0,0,1,269,142.55c.22,2.48.15,4.4.2,5.68S269.28,150.18,269.28,150.18Zm-.38,0s0-.65,0-1.94,0-3.19-.27-5.66a103.94,103.94,0,0,0-3.77-21.12,90.51,90.51,0,0,0-5.3-14.35,100,100,0,0,0-8.84-15.67,109.13,109.13,0,0,0-77.95-46.78c-2.23-.28-4.47-.37-6.73-.55L162.52,44l-1.77,0-1.69,0-3.45.09c-1.17,0-2.33.17-3.5.25-2.31.12-4.65.48-7,.77a104.38,104.38,0,0,0-14,3c-2.31.6-4.59,1.45-6.9,2.19s-4.57,1.67-6.78,2.72a107.43,107.43,0,0,0-64.29,97.08,118.14,118.14,0,0,0,1,15.73,111.93,111.93,0,0,0,3.3,15.4,107.65,107.65,0,0,0,13.28,28.31,105.67,105.67,0,0,0,46.33,38.46c2.24,1,4.6,1.8,6.88,2.69,2.34.73,4.62,1.55,7,2.14a107.9,107.9,0,0,0,14.11,2.86c2.34.26,4.7.59,7,.68,1.17.07,2.31.18,3.5.21l3.53,0c2.28.1,4.59-.09,6.88-.12,2.28-.19,4.54-.3,6.78-.59a110.74,110.74,0,0,0,47.37-17.15,109.43,109.43,0,0,0,30.6-29.91,103.66,103.66,0,0,0,8.84-15.67,91.92,91.92,0,0,0,5.27-14.36,101.45,101.45,0,0,0,3.75-21.12c.25-2.46.2-4.38.27-5.67S268.9,150.18,268.9,150.18Z"/><path class="cls-4" d="M269.1,149.51c0,59.67-48.56,108.05-108.45,108.05s-108.47-48.38-108.47-108,48.56-108,108.47-108S269.1,89.84,269.1,149.51Z"/><path class="cls-5" d="M135.32,253.55c1.21.69,2.41,1.46,3.65,2.1.4.23.82.43,1.24.62.65.13,1.29.24,1.94.35l2.53-5.07a15.37,15.37,0,0,0-.82-2.57,24.27,24.27,0,0,1-1.94-4.9,11,11,0,0,1,1.52-8.59c2.23-3.08,6.26-6.51,6.88-10.43a6.32,6.32,0,0,1,.82-2.78c2.76-4,6.73-7,9.74-10.86,4-5.14,5.36-10.07,7.57-16.08,1.94-5.28,7.55-10.18,7.18-16.09-.5-7.92-9.29-8.34-15-11-5.94-2.77-12.77-5.9-16.22-11.78-3.16-5.37-5-14.14-10.41-17.68-2.58-1.69-3.5.15-5.79-.4-1.69-.41-3.18-1.25-4.84-1.69-5.12-1.37-9.45,3.06-12.64,6.28-1.3,1.3-5.67,5.8-7.72,3.07-3.39-4.5-5.23-16.44,3.57-14.59,5.16,1.09,11.72-4,9.14-9.58-1-2.31-3-2.61-5-3.28s-3.87-1.22-5.13-2.94,1.8-4,3.09-4.45c3.26-1.26,9.57-3.21,12.55-.38,2,1.87,5,6.66,8,6.2,6.34-1,5.69-5.21,7.6-9.29,2.16-4.62,7.7-4.36,12-4.27,6.56.12,12.82-1.76,19.18.47,5.14,1.79,6.56-2.67,8.3-6.66,1.07-2.5,2.06-5,3.05-7.58,1.07-2.76,2.81-5.55,3.26-8.48,1-6.23-5-11.62-11-11.63-7.58,0-15,1.74-22.61.61-2.53-.37-5-1-6.73-3-2.46-3-3.65-7.13-8.12-7.62a.93.93,0,0,1-.7-1.44c3-5.41,8.13-4.27,13.19-6.45,3.53-1.51,5.17-5.2,6.49-9.25a108.46,108.46,0,0,0-89.62,59.84c2.75.13,6.89.25,8.17,2.33a8.65,8.65,0,0,1,1.3,4.4c.31,3.89,1.63,5,4.83,6.2,9.64,3.7,5.37,19.74,11.31,26.4,2.38,2.66,9,10.24,1.88,12.18-2.73.75-5.54.44-8.33.69-10.07.91-.41,10.16,2.89,13.12,6.93,6.25,2.79,10.42-1.76,17-2.58,3.7,4.25,8.31,5.65,12.27,2.15,6.08,1.7,11.67,2.41,17.92.66,5.91,4,5,7.44,7.51a42.07,42.07,0,0,1,5.66,5.1c4,4.37,8.85,8.56,12.15,13.54,3,4.47,9.09,6.5,13.51,9.35C131,250.51,133,251.84,135.32,253.55Z"/><path class="cls-5" d="M220.74,60.25c-3.78,4.08-6.46,8.54-2.31,13.07,2.38,2.61,6.76,5.62,5.32,9.59-.63,1.7-3.21,2.81-4.82,3.09-6.09,1.08-5.17,9.29-5,14a54.13,54.13,0,0,1-.39,10.8c-1.27,8.14,7.8,5.51,11.92,2.41.37-.28,1.19-.62,1.49,0a14,14,0,0,1,1.29,5.8c.32,5.49,4.82,3.6,8.32,2.57s6-1.61,8.5,1.16c2.08,2.34-.82,6.47,4.37,7.57,2.24.47,3.05,1.15,4.5,2.92,2.68,3.3-1.07,8.72-2.07,11.74-.22.73-1,1.52-1.78,1-4.13-2.38-11.36-8.42-14.51-2.06-.85,1.72-2.14,3.44-4.37,3.13-4.13-.56-12-7.07-14.34-.58-1,2.66-1.66,5.57-3.32,7.92-2.39,3.44-5.05,4.46-9,5.51-9.83,2.6-3.15,9.15-1.91,14.6a38.88,38.88,0,0,0,1.79,7.16c1.47,3.4,4.92,1.17,7,.93,2.26-.27,4.22,0,5.84,1.63,3.35,3.46,8.42,8.76,5.06,13.74-1.14,1.7-2.7,3.12-3.77,4.86-2.73,4.34-.32,6.34,2,9.28,1.89,2.43,2.51,4.43,1.76,7.44-.42,1.71-1.93,3.32-3,4.64a23.43,23.43,0,0,0-4.15,8.65c-.77,2.84-1.51,6.38-3.77,8.51-4.33,4.11-10.59,4.23-14.44,9.15-.49.64-1,1.3-1.44,2A107.86,107.86,0,0,0,220.74,60.25Zm19.42,36.5a21.32,21.32,0,0,1-6.65,9.17c-.47.37-1.42.58-1.59-.22-.62-2.62-1-5.78.69-8.12s4.18-3,6.86-2.88c.74,0,.92.64.77,1.22A1.6,1.6,0,0,1,240.16,96.75Z"/><path class="cls-6" d="M103.75,116.54c-9.16-3.68-10.18-13.4-14.86-20.81a24.6,24.6,0,0,0-14.53-11A107.35,107.35,0,0,0,65.63,98.1c11.49-.74,22.09,4.76,22.85,19.33.52,10-2.71,18.58-7.61,27.19-5.64,9.88-14.67,21.73-14.78,33.58,0,5.85,4.54,21.15,13.56,15.76,4.1-2.45,7.11-6.06,10.66-9.19,3-2.62,11.25-8.84,14.86-3.61,5.36,7.76-1,18.21,6.16,26.11,12.86,14.31,21.55-7.48,26.37-16.94,2.71-5.35,6.58-11.87,13-13.36a20.38,20.38,0,0,1,9-.13c7.8,1.42,11.18-8.41,10.74-14.24-.53-6.39-6.12-27.11,3.77-29.85,7.15-2,10.91,3.95,15.77,7.9,8.4,6.78,18.11-5.45,8.33-11.15-4.3-2.49-9.15-3.24-14.06-3.45-9.42-.41-29.89,1.36-30-12.83,0-8.08,4.1-15.41,4.05-23.49-.08-15.77-12.69-4.38-19.1.93-4.5,3.71-10.34,6.55-15.45,2.16-2.16-1.85-3.18-5-4.5-7.46-.77-1.44-1.81-3.93-3.3-4.75-5.79-3.11-5.94,6.33-5.79,8.4.51,7.36,3.13,14.1,1.34,21.45C110.71,113.37,107.45,118,103.75,116.54Z"/><path class="cls-6" d="M68.25,141c4.42-6.35,9-14.28,6.11-22.31-3.35-9.19-10.9-10.45-16.29-3.56a107.06,107.06,0,0,0-4.4,52.82C56.33,157.31,62.07,149.84,68.25,141Z"/><path class="cls-6" d="M160.65,42.14a108.57,108.57,0,0,0-43.89,9.24c3.16,10.73,8.82,19.68,22.56,18,11.42-1.41,21.16-8.73,32.86-5.15,6.9,2.12,9.81,8.72,9.76,15.3,0,4.44-2.06,8.74-3.85,12.69s-5.41,10.44-1.47,14.56a12.79,12.79,0,0,0,13.91,3.3c11.7-4.81,1.67-18.88,5.07-27.21,4.65-11.33,21-17.09,31.62-10.79,11.8,7,8.6,21-.22,29.2-6.61,6.16-24.37,19.26-9.69,27.11,7.08,3.78,14.93,3.4,22.21,6.17,12.59,4.79,14.31,15.91,5.89,25.81-4.77,5.59-11.8,8.82-18.93,10-10.36,1.72-20.59-6.71-30.83-2.57-26.2,10.61,14.58,55-19.77,64.47-11.65,3.22-12.82-12.3-16-19.34-5.19-11.52-12.79-2.36-15.72,5.32-2.34,6.06-3.8,12.47-6.31,18.45-5.09,12.18-17,10.35-24,1-5.54-7.47-9.75-20.4-21.06-19.42-4.92.43-10.31,1.58-15.43,1.17a108.38,108.38,0,0,0,83.26,38.81c59.89,0,108.45-48.37,108.45-108S220.54,42.14,160.65,42.14Z"/><path class="cls-7" d="M120.19,104c2.93.69,4,4.2,5.27,6.41,4,6.83,4.84-.4,6.5-3.16,1.54-2.56,1.12-4.54,4.33-6a38.2,38.2,0,0,1,10.08-2.67c4.74-.77,9-1.37,13.84-.87,7.5.78,12.24,1.57,15.62-7.37,1.64-4.31,4.74-13.1-2.43-15-5-1.33-9.2-.4-14.11.59s-9,1.26-13.86-.08c-3.68-1-6.06-4.67-9.84-6-2.68-.92-6.56-1.76-8.62-3.92-4.47-4.68,1.49-10,5.47-12.5,1.36-.85,3.72-1,5.29-1.21,5.81-.65,8.57-3.51,11.4-7.87.37-.57.74-1.12,1.09-1.68A108.48,108.48,0,0,0,65,99.31,3,3,0,0,0,67,100a7.5,7.5,0,0,1,1.77.06c1.15.32,3,.75,3.62,2,1.84,3.71,1.84,10.44,7.55,10.95a8.46,8.46,0,0,1,4.33,1.29c4.06,2.94,2,9.39,3.32,13.54,2.65,7.94,5.57,15.83,9.89,23a2.11,2.11,0,0,1-.94,2.8c-3.85,1.72-7.77,1.69-11.78,2.7-8.36,2.09,5.07,10.24,6.61,12.05,6.63,7.77-.25,12.06-5.44,17.27,3.88,3.66,6.53,7.24,7.55,12.79,1.54,8.38,1.29,17.37,8.12,23.6,6.19,5.63,12.6,10.37,18.26,16.6,6.43,7.12,14.43,10.11,22.58,14.14-1.61-4.45-7.15-8.77-5.39-13.59,2.14-5.84,7.6-8.86,8.84-15.28.55-2.74,3.26-4.82,5.29-6.34,3.9-2.92,7.43-5.39,9.12-10.35a90.76,90.76,0,0,1,11.38-23c9.61-14.35-25-13-29.12-23.91-3.25-8.62-10.35-19.33-21.16-18.91-5.71.22-9.44,5.74-14.93,7.35-.67,1.6-1.51,2.93-2.73,3.29-2.46.73-3.9-2.16-5.09-3.8-2.26-3.18-4.57-6.88-3.58-10.95,1.07-4.26,3.48-7.93,4.71-12.13-1.78-1.24-5.57-2.82-5.88-4.28-.67-3.07-.17-6.25-.07-9.35a2.4,2.4,0,0,1,1.61-2.2C102.88,106.82,112.19,102.11,120.19,104Z"/><path class="cls-8" d="M120.19,104c1.84.46,3,2.09,3.85,3.68a22.27,22.27,0,0,0,2.83,4.68l.5.46a5.21,5.21,0,0,0,.59.34,1.31,1.31,0,0,0,1.25-.32,7.51,7.51,0,0,0,1.31-2.37c.35-.84.65-1.7,1-2.54s.87-1.6,1.19-2.46A11.54,11.54,0,0,1,134,103a5.45,5.45,0,0,1,2.14-1.72c.84-.4,1.69-.7,2.55-1l2.64-.77a96,96,0,0,1,10.88-1.78,48.17,48.17,0,0,1,11,.19,20.42,20.42,0,0,0,5.47-.11,7.69,7.69,0,0,0,4.49-2.78,17.1,17.1,0,0,0,2.56-4.76A38.37,38.37,0,0,0,177.32,85a12.57,12.57,0,0,0,.2-5.35,5.12,5.12,0,0,0-3.3-3.83,21.42,21.42,0,0,0-10.76-.48c-3.63.62-7.18,1.54-10.93,1.64a26,26,0,0,1-5.51-.55,10.89,10.89,0,0,1-5.15-2.12c-1.51-1.08-2.88-2.31-4.42-3.21a24.16,24.16,0,0,0-5.06-1.92,15.2,15.2,0,0,1-5-2.46,6,6,0,0,1-1-1,6.77,6.77,0,0,1-.8-1.2,5,5,0,0,1-.44-2.87,9.47,9.47,0,0,1,2.7-4.91,24.12,24.12,0,0,1,4.33-3.51c.49-.26.87-.4,1.29-.61l1.44-.36c.92-.16,1.84-.28,2.76-.37a14.93,14.93,0,0,0,5.09-1.5,14.19,14.19,0,0,0,4.05-3.44,47.29,47.29,0,0,0,3.1-4.47l.4.65-6.58.85-6.54,1.25c-2.16.51-4.29,1.11-6.43,1.66s-4.2,1.36-6.31,2-4.12,1.62-6.18,2.42-4,1.88-6,2.81-3.88,2.11-5.83,3.16-3.74,2.35-5.63,3.51-3.58,2.57-5.39,3.86S92,67.41,90.23,68.8s-3.25,3-4.88,4.48L80.76,78l-4.29,5-4,5.29-3.65,5.52-3.29,5.73-.14-.8a2.28,2.28,0,0,0,.72.39c.15,0,.27.08.42.1l.47,0H67l1.93,0H69a7.73,7.73,0,0,1,3.61,1.68,3.8,3.8,0,0,1,.6,1,6.88,6.88,0,0,1,.36.87c.24.61.41,1.19.6,1.78.72,2.3,1.31,4.69,2.85,6.22a4.64,4.64,0,0,0,2.82,1.33,13.82,13.82,0,0,1,3.77.79l.89.51.22.12c.18.13.15.13.24.19l.35.29a6.37,6.37,0,0,1,1.28,1.63,9.84,9.84,0,0,1,1.08,3.76c.27,2.5.06,5,.49,7.17.23,1,.74,2.23,1.11,3.36l1.19,3.44c.9,2.23,1.69,4.51,2.66,6.71s1.89,4.44,3.12,6.5l1.72,3.16.21.4.17.29.07.21a1.84,1.84,0,0,1,.17.67,2.93,2.93,0,0,1-1.28,2.77l-.29.18a2.54,2.54,0,0,1-.29.12l-.45.14-.84.3a18.05,18.05,0,0,1-1.76.57c-1.22.25-2.53.58-3.71.74s-2.4.39-3.55.65a7.39,7.39,0,0,0-3,1,1,1,0,0,0-.4.85,3,3,0,0,0,.54,1.27,13.76,13.76,0,0,0,2.27,2.54c1.74,1.62,3.68,3,5.62,4.6a5.55,5.55,0,0,1,.78.77l.56.72a10.67,10.67,0,0,1,1,1.61A8.16,8.16,0,0,1,95,174.09a7.33,7.33,0,0,1-.89,3.93,15,15,0,0,1-2.26,3.12c-1.7,1.86-3.58,3.42-5.27,5.11v-1.19a38.38,38.38,0,0,1,4,4.38,21.89,21.89,0,0,1,2.83,5.26,29.5,29.5,0,0,1,1.33,5.73l.81,5.7a32.89,32.89,0,0,0,3.08,10.76,16.84,16.84,0,0,0,3.35,4.38c1.37,1.27,2.86,2.54,4.27,3.81l4.38,3.76c1.46,1.24,2.88,2.57,4.32,3.85s2.73,2.72,4.12,4.08,2.66,2.72,4,4.07l2.16,1.78c.75.58,1.54,1.09,2.31,1.64,1.59,1,3.23,2,4.92,2.9s3.4,1.74,5.12,2.58l5.21,2.52-.84.74c-1.19-3.16-3.9-5.74-5.24-9.27a8.15,8.15,0,0,1-.5-2.83,7.1,7.1,0,0,1,.25-1.45l.1-.35a3.59,3.59,0,0,1,.15-.35l.27-.61.57-1.22.72-1.18a23.06,23.06,0,0,1,1.59-2.24c2.19-2.82,4.52-5.53,5.37-8.88l.4-1.29a4.54,4.54,0,0,1,.54-1.33,8.58,8.58,0,0,1,1.72-2.23,36.22,36.22,0,0,1,4.19-3.42,36,36,0,0,0,4.05-3.37,16.58,16.58,0,0,0,3.08-4.15c1.42-3.17,2.41-6.66,3.93-9.89.77-1.61,1.41-3.31,2.28-4.86s1.69-3.16,2.59-4.71l2.85-4.54a26.13,26.13,0,0,0,1.37-2.26,7.11,7.11,0,0,0,.74-2.37,4.68,4.68,0,0,0-.34-2.4,6.94,6.94,0,0,0-1.52-2,17.12,17.12,0,0,0-4.45-2.73c-3.22-1.45-6.63-2.52-10-3.68a49.71,49.71,0,0,1-9.88-4.24,11.39,11.39,0,0,1-3.95-3.77c-.42-.84-.72-1.65-1.07-2.49s-.7-1.62-1.09-2.41a36.58,36.58,0,0,0-5.89-8.76,19.16,19.16,0,0,0-8.82-5.57,13.19,13.19,0,0,0-5.19-.42l-1.32.21-1.21.44a14.34,14.34,0,0,0-2.36,1.16c-3,1.83-5.77,4.29-9.27,5.39l.13-.11a9.82,9.82,0,0,1-1.1,2,3.28,3.28,0,0,1-1.9,1.4,2.9,2.9,0,0,1-2.27-.44,6.67,6.67,0,0,1-1.61-1.66c-.46-.61-.85-1.25-1.3-1.86s-.86-1.24-1.26-1.88-.77-1.31-1.13-2a12.8,12.8,0,0,1-.86-2.11,10.15,10.15,0,0,1-.47-2.24l0-1.15c0-.38.11-.75.16-1.13a12.24,12.24,0,0,1,.62-2.19,20.79,20.79,0,0,1,.76-2.13l1.81-4.15c.67-1.35,1.08-2.8,1.62-4.2l0,.12c-1.56-1.05-3.31-1.81-4.82-3a3.21,3.21,0,0,1-1-1.07,5.4,5.4,0,0,1-.27-1.41,14.74,14.74,0,0,1-.15-2.82c-.05-1,.07-1.88.1-2.83s.08-1.87.19-2.82a2.52,2.52,0,0,1,1.76-2.09l2.67-1,5.31-2c.87-.34,1.79-.61,2.68-.9s1.81-.57,2.72-.79a22.13,22.13,0,0,1,2.77-.62c.94-.11,1.87-.36,2.81-.38s1.89-.09,2.83,0Zm0,0-2.81-.36c-.94,0-1.89.05-2.83.07a24.91,24.91,0,0,0-2.81.38,23.78,23.78,0,0,0-2.75.63c-.92.23-1.82.49-2.71.8s-1.81.58-2.68.92l-5.32,2-2.66,1a2.39,2.39,0,0,0-1.66,2c-.1.92-.1,1.88-.18,2.82s-.12,1.87-.09,2.8a16.51,16.51,0,0,0,.17,2.81,6.89,6.89,0,0,0,.25,1.35,3.43,3.43,0,0,0,.94,1c1.48,1.14,3.23,1.89,4.82,3a.11.11,0,0,1,0,.12c-.54,1.42-1,2.88-1.6,4.24l-1.79,4.14a17.79,17.79,0,0,0-.75,2.12,13.44,13.44,0,0,0-.61,2.16c0,.36-.13.73-.13,1.1l0,1.11a11.38,11.38,0,0,0,.46,2.16,17.09,17.09,0,0,0,.87,2.07,22,22,0,0,0,1.12,1.93c.4.64.85,1.25,1.28,1.87s.83,1.26,1.28,1.85a6.71,6.71,0,0,0,1.54,1.56,2.45,2.45,0,0,0,2,.37,2.91,2.91,0,0,0,1.64-1.25,9.84,9.84,0,0,0,1.06-1.94.18.18,0,0,1,.12-.12c3.38-1.07,6.09-3.5,9.14-5.39A14.59,14.59,0,0,1,118,142l1.29-.47,1.32-.21a13.92,13.92,0,0,1,5.41.4,19.75,19.75,0,0,1,9.07,5.67,37.12,37.12,0,0,1,6,8.88c.43.79.75,1.63,1.12,2.45s.67,1.67,1,2.41a10.78,10.78,0,0,0,3.76,3.52,49,49,0,0,0,9.76,4.13c3.38,1.14,6.8,2.19,10.11,3.65a17.85,17.85,0,0,1,4.64,2.85,7.24,7.24,0,0,1,1.72,2.22,5.55,5.55,0,0,1,.42,2.81,8,8,0,0,1-.82,2.69c-.42.78-.92,1.57-1.39,2.32l-2.81,4.51c-.87,1.54-1.69,3.12-2.53,4.67s-1.49,3.21-2.24,4.81c-1.51,3.22-2.46,6.63-3.92,10a17.16,17.16,0,0,1-3.23,4.42,40,40,0,0,1-4.15,3.48c-2.81,2.15-5.89,4.18-6.41,7.74-.92,3.64-3.4,6.52-5.54,9.28-.5.71-1.07,1.41-1.49,2.14l-.67,1.08-.55,1.22-.27.6c0,.09-.12.25-.1.27l-.07.28a3.7,3.7,0,0,0-.2,1.18,6.12,6.12,0,0,0,.42,2.4c1.19,3.18,3.9,5.73,5.29,9.25a.6.6,0,0,1-.82.76h0L137,250.86c-1.74-.84-3.51-1.65-5.2-2.58a56.55,56.55,0,0,1-5-2.94c-.79-.56-1.61-1.09-2.38-1.69l-2.29-1.88c-1.39-1.31-2.78-2.73-4.12-4.07s-2.61-2.76-4.08-4-2.83-2.56-4.29-3.8l-4.4-3.75c-1.45-1.28-2.89-2.49-4.35-3.83a18.36,18.36,0,0,1-3.63-4.72,33.74,33.74,0,0,1-3.31-11.23l-.83-5.69a27.5,27.5,0,0,0-1.29-5.44,19.75,19.75,0,0,0-2.64-4.83,34.21,34.21,0,0,0-3.77-4.15.8.8,0,0,1,0-1.16v0c1.74-1.75,3.61-3.33,5.17-5.08s2.88-3.7,2.71-5.82a6.79,6.79,0,0,0-1-3,9.35,9.35,0,0,0-1-1.42l-.56-.72a3.64,3.64,0,0,0-.52-.5c-1.81-1.48-3.86-2.92-5.69-4.62A16.3,16.3,0,0,1,82,161a4.71,4.71,0,0,1-.8-2.07,2.75,2.75,0,0,1,1-2.34A8.34,8.34,0,0,1,86,155.22c1.23-.27,2.42-.46,3.63-.65s2.3-.44,3.46-.65c.56-.12,1.15-.38,1.72-.56l.87-.29.42-.15s.25-.07.12,0l.1-.05a1.39,1.39,0,0,0,.55-.94.94.94,0,0,0,0-.24c0-.06.07,0,0-.21l-.09-.2v0s.07.16,0,.07l0-.05,0-.11-.23-.4-1.74-3.23c-1.24-2.13-2.1-4.43-3.14-6.64s-1.77-4.55-2.67-6.83l-1.19-3.44c-.36-1.17-.82-2.21-1.12-3.56-.5-2.56-.25-5-.5-7.32a8.76,8.76,0,0,0-.86-3.21,5,5,0,0,0-2.29-2.1,12.25,12.25,0,0,0-3.35-.71A6.1,6.1,0,0,1,76,111.94c-1.92-2-2.46-4.58-3.18-6.85-.18-.57-.35-1.15-.55-1.67-.1-.26-.21-.54-.34-.82a1.65,1.65,0,0,0-.36-.57,6.25,6.25,0,0,0-3-1.3l.1,0-1.62-.06h0l-.66,0c-.21,0-.43-.1-.65-.15a4.17,4.17,0,0,1-.65-.29,5.45,5.45,0,0,1-.57-.41.58.58,0,0,1-.16-.77l0,0,3.37-5.79,3.7-5.57,4-5.33,4.37-5.08c1.56-1.59,3.09-3.22,4.67-4.79s3.28-3,5-4.5,3.44-2.84,5.21-4.19,3.62-2.63,5.48-3.87,3.75-2.41,5.69-3.52,3.9-2.18,5.88-3.17,4.05-1.93,6.09-2.8S122,48.7,124.09,48s4.22-1.41,6.38-2,4.3-1.13,6.49-1.64l6.58-1.23,6.66-.83a.4.4,0,0,1,.44.36.34.34,0,0,1,0,.28h0a52.34,52.34,0,0,1-3.18,4.54,14.7,14.7,0,0,1-4.3,3.6,15.66,15.66,0,0,1-5.39,1.56c-.92.1-1.81.21-2.71.36l-1.24.29c-.4.18-.89.38-1.22.56a22.74,22.74,0,0,0-4.19,3.38,8.83,8.83,0,0,0-2.56,4.51,5,5,0,0,0,2,4.5,14.69,14.69,0,0,0,4.81,2.36,25,25,0,0,1,5.17,2c1.62,1,3,2.21,4.45,3.26a10.45,10.45,0,0,0,4.92,2,25.17,25.17,0,0,0,5.41.57c3.63-.08,7.23-1,10.86-1.57a21.49,21.49,0,0,1,11,.54,5.67,5.67,0,0,1,2.31,1.6,6.14,6.14,0,0,1,1.25,2.53,13,13,0,0,1-.25,5.52A38.15,38.15,0,0,1,176,90.29a17.44,17.44,0,0,1-2.65,4.84A8,8,0,0,1,168.68,98a20.56,20.56,0,0,1-5.54.09,47.86,47.86,0,0,0-11-.24,94.24,94.24,0,0,0-10.85,1.73l-2.64.75c-.84.34-1.73.64-2.55,1A5.77,5.77,0,0,0,134,103a14.6,14.6,0,0,0-1.16,2.46c-.33.86-.82,1.65-1.22,2.46s-.7,1.68-1,2.54a7.11,7.11,0,0,1-1.37,2.38,1.3,1.3,0,0,1-1.29.32,3.56,3.56,0,0,1-.6-.34l-.49-.47a20.68,20.68,0,0,1-2.81-4.71C123.19,106.06,122,104.44,120.19,104Z"/><path class="cls-7" d="M266.15,150.33c-2.88-1-7.38-5-10.21-1.8-.47.5-1.62,1.26-2.31.77-.23.11-.45.24-.67.34a2.15,2.15,0,0,1-.38.1c-.05.13-.07.29-.12.42-.4.94-1.64,1.78-2.61,1.14a77.89,77.89,0,0,1-7.3-5.85c-2.86-2.4-6.41,3.15-8,4.94a1.76,1.76,0,0,1-1.64.49c-4.47-1.36-13.49-5.42-14.71,1.63-.52,3-1.27,4.11-3.38,6.28s-6,4-8.69,5.78c-3.63,2.32-.87,14.4,4.22,12.78,4.85-1.55,9.91-1.43,13.71,2.23,3.46,3.31,9.79,8.8,10,14a5.21,5.21,0,0,1-1.34,4c-3.58,3.6-6.24,7.24-4.67,12.55,2,6.9,2.61,8.35-.28,15.32a31,31,0,0,1-10.11,13.72c-3.27,2.52-6.53,4.87-9,7.62a108,108,0,0,0,59.92-96.19A5.38,5.38,0,0,1,266.15,150.33Z"/><path class="cls-8" d="M266.15,150.33c-2.16-.84-4-2.28-6.29-2.84a4.46,4.46,0,0,0-1.71-.13,2.75,2.75,0,0,0-.82.21,3.07,3.07,0,0,0-.75.41,15.8,15.8,0,0,1-1.29,1.13,1.64,1.64,0,0,1-1.69.23h.05a4.74,4.74,0,0,1-1,.45l0,0a2.3,2.3,0,0,1-1.86,1.8,1.6,1.6,0,0,1-1.27-.45l-1.06-.8-2.16-1.62c-.73-.55-1.4-1.15-2.09-1.72s-1.34-1.21-2.06-1.69a2.4,2.4,0,0,0-2.49.07,14.43,14.43,0,0,0-3.82,3.66l-.85,1.05a2.34,2.34,0,0,1-1.06.87,2,2,0,0,1-1.42,0l-1.27-.42a46.23,46.23,0,0,0-5.16-1.46,9.09,9.09,0,0,0-5.2.11,3.36,3.36,0,0,0-1.81,1.67l-.3.57-.15.62c-.12.4-.22.88-.32,1.3s-.17.87-.3,1.31l-.54,1.3a10.24,10.24,0,0,1-1.62,2.24c-.32.34-.57.68-.94,1l-1,.88a16.27,16.27,0,0,1-2.19,1.61c-1.51,1-3.1,1.88-4.59,2.84a3.3,3.3,0,0,0-1.67,1.69,7,7,0,0,0-.47,2.47,11.92,11.92,0,0,0,1,5c.67,1.51,1.76,3.12,3.25,3.23a8.43,8.43,0,0,0,2.41-.5,17.91,17.91,0,0,1,2.76-.5,13.64,13.64,0,0,1,5.59.5,12.26,12.26,0,0,1,4.81,2.9c1.3,1.22,2.64,2.44,3.93,3.73,2.48,2.61,5.07,5.42,6,9.27a8.16,8.16,0,0,1,.15,1.52,6,6,0,0,1-.1,1.42,5.46,5.46,0,0,1-1.37,2.82,29.33,29.33,0,0,0-3.33,4,9.94,9.94,0,0,0-1.56,4.63l0,1.23a6.6,6.6,0,0,0,.23,1.21,23.08,23.08,0,0,0,.69,2.54,25.93,25.93,0,0,1,1.17,5.42,14,14,0,0,1-.82,5.6,27.4,27.4,0,0,1-1,2.58,98.23,98.23,0,0,1-2.33,4.91L225,232.57a15.28,15.28,0,0,1-1.66,2.22c-.62.7-1.19,1.42-1.82,2.1-1.39,1.19-2.73,2.5-4.17,3.57a62.94,62.94,0,0,0-8.1,6.88l-.94-1.23,6.53-3.52,6.29-3.93,6-4.36c1.89-1.58,3.82-3.13,5.69-4.75s3.62-3.38,5.36-5.13,3.38-3.62,5-5.49,3.15-3.83,4.62-5.83,2.88-4,4.19-6.12,2.61-4.22,3.78-6.4,2.31-4.39,3.33-6.66,2-4.53,2.83-6.87,1.66-4.67,2.33-7.07,1.32-4.78,1.84-7.21,1-4.86,1.34-7.32.6-4.92.82-7.39l.33-7.44h0c-.43,0-.82,0-1.25,0Zm0,0,1.21.28h1.27l-.27,7.44c-.23,2.48-.52,4.94-.8,7.41s-.84,4.89-1.26,7.34-1.22,4.82-1.79,7.24-1.54,4.72-2.29,7.09-1.84,4.62-2.75,6.93-2.17,4.49-3.23,6.74-2.46,4.33-3.68,6.5-2.76,4.16-4.12,6.24-3,4-4.55,5.95-3.3,3.74-4.94,5.62-3.55,3.52-5.32,5.28-3.8,3.27-5.69,4.9l-6,4.52-6.31,4.08L209,247.51a.79.79,0,0,1-1.07-.31.75.75,0,0,1,.1-.89l0,0a65.7,65.7,0,0,1,8.24-7.12c1.44-1.08,2.66-2.31,4-3.45.57-.64,1.12-1.33,1.67-2a12.55,12.55,0,0,0,1.56-2.08l1.37-2.21c.44-.73.77-1.6,1.17-2.39s.79-1.67,1.06-2.41.67-1.64.9-2.46a12.73,12.73,0,0,0,.79-4.94,25.73,25.73,0,0,0-1.09-5.07,16.72,16.72,0,0,1-1-5.54,11.75,11.75,0,0,1,1.86-5.42,29,29,0,0,1,3.56-4.24,3.88,3.88,0,0,0,.94-1.94,5.7,5.7,0,0,0,.12-1.25,10,10,0,0,0-.12-1.15c-.72-3.22-3.15-6-5.54-8.56-1.24-1.27-2.53-2.5-3.82-3.76a11,11,0,0,0-4.28-2.68,12.44,12.44,0,0,0-5.06-.52,18.38,18.38,0,0,0-2.56.41l-1.29.34a4.28,4.28,0,0,1-1.54.15,3.94,3.94,0,0,1-2.61-1.49,8.11,8.11,0,0,1-1.47-2.44,13.44,13.44,0,0,1-1-5.46,7.55,7.55,0,0,1,.57-2.78,4,4,0,0,1,.87-1.25l.25-.21.18-.16.14-.09.6-.34c1.54-.94,3.16-1.77,4.62-2.73a16.43,16.43,0,0,0,2.16-1.54l1-.86c.3-.26.6-.63.89-.94a8.21,8.21,0,0,0,2.41-4.55c.13-.45.23-.85.35-1.31.08-.22.13-.46.2-.67l.32-.63a4.75,4.75,0,0,1,.87-1.12,4.31,4.31,0,0,1,1.22-.72,9.42,9.42,0,0,1,5.44-.06,46,46,0,0,1,5.17,1.56l1.29.43a1.67,1.67,0,0,0,1.22.05c.79-.31,1.21-1.19,1.83-1.84a14.26,14.26,0,0,1,3.93-3.69,2.57,2.57,0,0,1,2.66,0,24.89,24.89,0,0,1,2.08,1.71c.67.58,1.34,1.18,2,1.74l2.16,1.63,1.07.81a1.48,1.48,0,0,0,1.17.43,2.2,2.2,0,0,0,1.78-1.72l0,0a4.36,4.36,0,0,0,1.07-.43h.05a1.5,1.5,0,0,0,1.56-.22,15,15,0,0,0,1.29-1.12,3.58,3.58,0,0,1,.77-.41,2.79,2.79,0,0,1,.85-.21,4.67,4.67,0,0,1,1.71.14C262.12,148,264,149.48,266.15,150.33Z"/><path class="cls-7" d="M223.35,62.05c-.57.49-1.09,1-1.59,1.51-5.64,6.12,2.73,12.07,5.89,16.84,1.68,2.54,4.76,9.78,8.09,10.55,3,.71,9.86,1.54,8.3,6.43-2,6.22-7.23,10.52-9.64,16.48,0,0,0,0-.05,0-.32.91-.64,1.84-.92,2.77-.37,1.32-.79,2.63,1.29,2.53a11.27,11.27,0,0,0,4.65-1.44c2.19-1.16,4.22-2.61,6.41-3.78a1.61,1.61,0,0,1,1.31-.13,1,1,0,0,1,1.62.75c1.07,4.43,7.6,2.39,8,7.13a31.46,31.46,0,0,1-.18,4.05,36.44,36.44,0,0,0,1.37,3.51,5.15,5.15,0,0,0,1.54.68l.2.06c2.63-.75,5.76-1,7.35,1.46a7.72,7.72,0,0,1,.65,1.2A108.09,108.09,0,0,0,223.35,62.05Z"/><path class="cls-8" d="M223.35,62.05c-1.29,1.26-2.66,2.59-3.11,4.34a6.62,6.62,0,0,0,.85,5.1c1.76,3.15,4.54,5.53,6.73,8.52,1.07,1.54,1.89,3.16,2.81,4.7a22.66,22.66,0,0,0,3.1,4.33,4.77,4.77,0,0,0,2,1.35c.82.22,1.74.36,2.64.58a11.32,11.32,0,0,1,5.24,2.26,3.75,3.75,0,0,1,1.26,2.85,5.08,5.08,0,0,1-.24,1.57l-.48,1.27a27.4,27.4,0,0,1-2.6,4.94c-1,1.54-2.09,3-3.11,4.49a33.54,33.54,0,0,0-2.76,4.56l-.54,1.19a11.63,11.63,0,0,0-.43,1.23,22.47,22.47,0,0,0-.77,2.5c-.07.42,0,.53,0,.48s.15,0,.22.09h.5c.42-.07.92-.1,1.32-.2a9.76,9.76,0,0,0,1.14-.35,30.66,30.66,0,0,0,4.69-2.51l2.36-1.4,1.17-.7.4-.17a2.82,2.82,0,0,1,.57-.13,2.63,2.63,0,0,1,1,.12l-.62,0a2.07,2.07,0,0,1,1.79,0,2.18,2.18,0,0,1,1,1.37,3.61,3.61,0,0,0,.38.88,2.82,2.82,0,0,0,.52.61,12.9,12.9,0,0,0,3.7,1.66,6.21,6.21,0,0,1,2.16,1.3,3.6,3.6,0,0,1,.82,1.12,4.18,4.18,0,0,1,.4,1.29l.05.33a2.92,2.92,0,0,1,0,.35v.55l0,1.1c0,.73-.1,1.48-.15,2.22l-.05-.32,1.31,3.42-.29-.36a7.59,7.59,0,0,0,.69.36c.28.08.47.2.77.27h-.47a17.24,17.24,0,0,1,2.46-.48,9.71,9.71,0,0,1,1.32-.05,5.46,5.46,0,0,1,1.31.16,5.75,5.75,0,0,1,1.32.46,3.24,3.24,0,0,1,.6.39c.19.15.39.28.57.44l.44.55.23.27.05.07s0,0,.05.08l0,0,.08.13.54,1-1.56.54-1-5.21-1.21-5.16-1.49-5.1c-.55-1.67-1.17-3.34-1.74-5s-1.34-3.28-2-4.92-1.47-3.22-2.21-4.83-1.61-3.15-2.43-4.73-1.79-3.06-2.66-4.59-1.94-3-2.91-4.47-2.09-2.87-3.13-4.31l-3.3-4.17-3.53-4-3.7-3.85-3.9-3.65-4.05-3.48Zm0,0,4.35,3.11,4.19,3.34,4,3.56,3.85,3.75,3.65,3.93,3.45,4.14c1.07,1.44,2.16,2.84,3.23,4.3s2,2.95,3,4.46,1.88,3,2.78,4.59,1.74,3.14,2.56,4.74,1.59,3.22,2.33,4.86,1.39,3.31,2,5,1.24,3.37,1.81,5.07l1.54,5.16,1.27,5.23,1,5.29a.82.82,0,0,1-.65,1,.81.81,0,0,1-.89-.43l0,0-.54-1-.08-.13,0,0c.05.09,0,0,0,0l0-.05-.15-.18-.3-.36c-.12-.11-.24-.18-.37-.28a1.14,1.14,0,0,0-.4-.25,3.46,3.46,0,0,0-.89-.31,3.71,3.71,0,0,0-1-.11,5.29,5.29,0,0,0-1,.05,12.7,12.7,0,0,0-2.16.43.86.86,0,0,1-.42,0h-.08a8.83,8.83,0,0,1-1-.33,8.28,8.28,0,0,1-1-.52.58.58,0,0,1-.3-.32l0,0-1.42-3.59a.63.63,0,0,1-.05-.3v0c.05-.71.12-1.42.15-2.14l0-1.1V122s0-.27,0-.19l0-.22a2.34,2.34,0,0,0-.25-.8,2.18,2.18,0,0,0-.45-.64,4.67,4.67,0,0,0-1.59-.93,14,14,0,0,1-4.22-2,4.83,4.83,0,0,1-.87-1.08,4.13,4.13,0,0,1-.47-1.13c-.12-.45-.15-.38-.15-.41a.62.62,0,0,0-.35.07.7.7,0,0,1-.49.05l-.13,0a1,1,0,0,0-.3,0s-.05,0-.1,0-.29.13-.24.09l-1.17.69-2.34,1.38-2.36,1.37a14.82,14.82,0,0,1-2.58,1.22,10.33,10.33,0,0,1-1.47.42,11.3,11.3,0,0,1-1.39.19,6.42,6.42,0,0,1-.89,0,3.78,3.78,0,0,1-.47-.13,1,1,0,0,1-.52-.28,1.5,1.5,0,0,1-.62-1.07,3.07,3.07,0,0,1,0-.93,23.85,23.85,0,0,1,.8-2.72c.17-.44.27-.81.5-1.33l.59-1.27a33.52,33.52,0,0,1,2.91-4.75c1-1.5,2.13-2.94,3.15-4.42a24.89,24.89,0,0,0,2.56-4.63l.5-1.26a4.37,4.37,0,0,0,.2-1.1,2.57,2.57,0,0,0-.85-2,10.33,10.33,0,0,0-4.64-2.06c-.87-.23-1.77-.37-2.68-.64A5.59,5.59,0,0,1,233,89.74a24.88,24.88,0,0,1-3.16-4.57c-.89-1.59-1.66-3.25-2.63-4.74-2-2.94-4.77-5.46-6.48-8.75a6.84,6.84,0,0,1-.7-5.35C220.59,64.51,222,63.26,223.35,62.05Z"/><path class="cls-7" d="M229,99.78a19.4,19.4,0,0,0-2.58-5.9,8.57,8.57,0,0,1-.3-.85,15,15,0,0,0-1.74-4.46c-1.36-2.12-4.44-1-5.31,1-1.47,3.22-2.89,7.12-2.94,10.67,0,2.54-.17,5.76,2.12,7.43,2.13,1.58,5.78,0,7.8-.95S229.58,101.93,229,99.78Z"/><path class="cls-8" d="M229,99.78c-.35-1-.69-2-1.07-3L226.33,94v0c-.4-.92-.65-1.89-1-2.79a9.18,9.18,0,0,0-1.37-2.47c-.17-.15-.34-.4-.52-.48s-.32-.14-.49-.19l-.6,0-.62.11a3.19,3.19,0,0,0-1.86,1.54,7.91,7.91,0,0,0-.53,1.3l-.54,1.38L217.91,95c-.2.93-.45,1.86-.65,2.79s-.22,1.85-.27,2.82a20.77,20.77,0,0,0,0,2.85,6.87,6.87,0,0,0,.67,2.56,3.28,3.28,0,0,0,1.92,1.63,5.62,5.62,0,0,0,2.66.06,16.34,16.34,0,0,0,2.8-.83,4.94,4.94,0,0,0,2.39-1.59,8.44,8.44,0,0,0,1.36-2.59A6.06,6.06,0,0,0,229,99.78Zm0,0a6.4,6.4,0,0,1-.15,3,10.16,10.16,0,0,1-1.24,2.7,6,6,0,0,1-2.36,1.87,17.81,17.81,0,0,1-2.83,1.14,6.46,6.46,0,0,1-3.21.19,4.26,4.26,0,0,1-2.65-1.91,6.67,6.67,0,0,1-1.12-3,21.76,21.76,0,0,1-.2-3.07c0-1,.17-2.06.27-3.09s.48-2,.72-3,.7-1.93,1.07-2.87.75-1.75,1.34-2.75a4.55,4.55,0,0,1,2.81-1.9l.87-.06c.27,0,.57.1.87.16a5.73,5.73,0,0,1,.82.47,5.15,5.15,0,0,1,.5.56A10,10,0,0,1,225.78,91c.3,1,.42,2,.77,2.87l0,0,1.46,2.9C228.34,97.74,228.66,98.77,229,99.78Z"/><path class="cls-7" d="M113.36,123.16c-1.84-2-5-2.52-6.91-.29a.83.83,0,0,0-.49.6,1.13,1.13,0,0,0,0,.25,3.36,3.36,0,0,0-.16,1.88,5.63,5.63,0,0,0,1.48,4.55c1.75,1.58,5.18.52,6.61-1C115.42,127.49,114.75,124.69,113.36,123.16Z"/><path class="cls-8" d="M113.36,123.16l-.73-.64c-.28-.18-.56-.34-.84-.5s-.62-.21-.92-.32-.63-.08-.94-.13l-.94.11c-.3.12-.59.21-.85.33s-.51.33-.74.51l-.57.66-.18.13a.83.83,0,0,0-.15.19s0,0,0,0v.26l0,.14a5.63,5.63,0,0,1-.07.75l.12.77,0,.11v.05a7.89,7.89,0,0,0,.3,2.1,3.93,3.93,0,0,0,.86,1.63l.08.09,0,0v0l-.11-.08h0l0,0,.23.16c.16.1.35.24.49.31s.38.18.75.18l.48.07a4.41,4.41,0,0,1,.52,0,6.29,6.29,0,0,0,1-.13,5.9,5.9,0,0,0,2-.85,3.18,3.18,0,0,0,.4-.3l.39-.45a3.73,3.73,0,0,0,.46-.94l.12-.55,0-.57a5.43,5.43,0,0,0-.18-1.13A5.5,5.5,0,0,0,113.36,123.16Zm0,0a5.22,5.22,0,0,1,.69,1,5.68,5.68,0,0,1,.5,1.06,6.37,6.37,0,0,1,.3,1.16,4.88,4.88,0,0,1,0,1.21,4,4,0,0,1-.34,1.23l-.3.5a3.33,3.33,0,0,1-.45.51,7,7,0,0,1-2.11,1.41,7.16,7.16,0,0,1-1.24.39,4,4,0,0,1-1.34.12,4.34,4.34,0,0,1-1.53-.34,4,4,0,0,1-.51-.31l-.26-.15h0l-.13-.09,0,0-.08-.07-.12-.13a4.8,4.8,0,0,1-1.29-2.44,8.84,8.84,0,0,1-.13-2.55l0,.16V124.6c.11-.37.22-.75.34-1.1l0,.14.06-.27a1.19,1.19,0,0,1,.2-.44,1.44,1.44,0,0,1,.64-.49l-.17.12.84-.67c.33-.18.66-.31,1-.45a9.65,9.65,0,0,1,1-.19l1,0c.32.08.64.15,1,.24l.9.41c.27.18.57.36.82.54Z"/><g class="cls-9"><path class="cls-10" d="M95.47,109.34c7.41-2.52,16.72-7.23,24.72-5.38,2.93.69,4,4.2,5.27,6.41,4,6.83,4.84-.4,6.5-3.16,1.54-2.56,1.12-4.54,4.33-6a38.2,38.2,0,0,1,10.08-2.67c4.74-.77,9-1.37,13.84-.87,7.5.78,12.24,1.57,15.62-7.37,1.64-4.31,4.74-13.1-2.43-15-5-1.33-9.2-.4-14.11.59s-9,1.26-13.86-.08c-3.68-1-6.06-4.67-9.84-6-2.68-.92-6.56-1.76-8.62-3.92-4.47-4.68,1.49-10,5.47-12.5,1.36-.85,3.72-1,5.29-1.21,5.81-.65,8.57-3.51,11.4-7.87.37-.57.74-1.12,1.09-1.68a106.45,106.45,0,0,0-16.2,2.8c-.89,2.48-2,4.85-4.27,6.54-4.37,3.2-21.79,10.73-12.49,16.55s8.47,7.3,1.22,13.85c-4.55,4.09-7.41,9.76-12.5,13.23-1.37.92-4.1,1.14-5.69,1-5.69-.53-10.06.2-14.83,3.77-1.59,1.19-4.14,2.61-6.14,1.37-4.88-3-7.19-8.21-11.23-7.88C67,95.65,65.94,97.46,65,99.31A3,3,0,0,0,67,100a7.5,7.5,0,0,1,1.77.06c1.15.32,3,.75,3.62,2,1.84,3.71,1.84,10.44,7.55,10.95a8.46,8.46,0,0,1,4.33,1.29c4.06,2.94,2,9.39,3.32,13.54,2.65,7.94,5.57,15.83,9.89,23a2.11,2.11,0,0,1-.94,2.8c-.3.14-.62.25-.92.36,3.3,1.28,6.18.7,10.59-1.79,3-1.71,6.52-4.09,10.05-4.6,7.38-1.05,11.7,6.56,15,12.08,2.88,4.88-1.52,9.79-5,12.88-6.16,5.44,6.89,16.75,7.06,23.43a6,6,0,0,1-1.84,4.72c-5.17,4.06-4.47,7.86-4.79,13.46a7.27,7.27,0,0,1-5.74,6.36c-3.13.48-5-5.46-5.86-7.47-1.15-2.76-2.09-6-4-8.34-3.43-4.29-7.25,3.42-9.34,5.84-.54.63-1.51,1.31-2.33.69a23.71,23.71,0,0,0-4.34-2.48c.92,4.92,2.48,9.58,6.52,13.27,6.19,5.63,12.6,10.37,18.26,16.6,6.43,7.12,14.43,10.11,22.58,14.14-1.61-4.45-7.15-8.77-5.39-13.59,2.14-5.84,7.6-8.86,8.84-15.28.55-2.74,3.26-4.82,5.29-6.34,3.9-2.92,7.43-5.39,9.12-10.35a90.76,90.76,0,0,1,11.38-23c9.61-14.35-25-13-29.12-23.91-3.25-8.62-10.35-19.33-21.16-18.91-5.71.22-9.44,5.74-14.93,7.35-.67,1.6-1.51,2.93-2.73,3.29-2.46.73-3.9-2.16-5.09-3.8-2.26-3.18-4.57-6.88-3.58-10.95,1.07-4.26,3.48-7.93,4.71-12.13-1.78-1.24-5.57-2.82-5.88-4.28-.67-3.07-.17-6.25-.07-9.35A2.4,2.4,0,0,1,95.47,109.34Zm42.83-30a7.66,7.66,0,0,1,1.09-.33c3.43-.72,7,1.64,9.84,3.23.89.5.44,1.77.05,2.41-2.09,3.6-7,6.3-10.64,8-2.65,1.26-8.19,4.08-11,1.72C122.2,89.94,132,77.24,138.3,79.37Z"/><path class="cls-10" d="M266.15,150.33c-2.88-1-7.38-5-10.21-1.8-.47.5-1.62,1.26-2.31.77-.23.11-.45.24-.67.34a2.15,2.15,0,0,1-.38.1c-.05.13-.07.29-.12.42-.4.94-1.64,1.78-2.61,1.14a77.89,77.89,0,0,1-7.3-5.85,2.35,2.35,0,0,0-1.47-.58c.25,1.46.4,2.93.6,4.49.82,6.9,4.62,5.95,9.79,7.75,3.33,1.16,2.68,5.48,2.21,8.07-1.69,9.67-4,18.21-15,19.54-.77.08-1.22-.64-1.27-1.3-.44-4.92,1.74-9.83,1.19-14.68-.89-8-7.72-.16-10.3.64a10.78,10.78,0,0,1-8.5-.68c-6.61-2.92-10.48,1.42-13.54,6.71,1,1.54,2.41,2.46,4.05,1.94,4.85-1.55,9.91-1.43,13.71,2.23,3.46,3.31,9.79,8.8,10,14a5.21,5.21,0,0,1-1.34,4c-3.58,3.6-6.24,7.24-4.67,12.55,2,6.9,2.61,8.35-.28,15.32a31,31,0,0,1-10.11,13.72c-3.27,2.52-6.53,4.87-9,7.62a108,108,0,0,0,59.92-96.19A5.38,5.38,0,0,1,266.15,150.33Z"/><path class="cls-10" d="M231.69,68.59c.2,2.06.35,4.17.45,6.43.37,9.69,11,5.64,14.51,12.7,2.18,4.39,4.47,14.75,2.08,19.48-1.29,2.56-2.21,3.82-4.84,5.1a16.09,16.09,0,0,0-6.9,6.49,14.58,14.58,0,0,0,2.38-1c2.19-1.16,4.22-2.61,6.41-3.78a1.61,1.61,0,0,1,1.31-.13,1,1,0,0,1,1.62.75c1.07,4.43,7.6,2.39,8,7.13a31.46,31.46,0,0,1-.18,4.05,36.44,36.44,0,0,0,1.37,3.51,5.15,5.15,0,0,0,1.54.68l.2.06c2.63-.75,5.76-1,7.35,1.46a7.72,7.72,0,0,1,.65,1.2A107.84,107.84,0,0,0,231.69,68.59Z"/><path class="cls-10" d="M229,99.78a19.4,19.4,0,0,0-2.58-5.9,8.57,8.57,0,0,1-.3-.85,15,15,0,0,0-1.74-4.46c-1.36-2.12-4.44-1-5.31,1-1.47,3.22-2.89,7.12-2.94,10.67,0,2.54-.17,5.76,2.12,7.43,2.13,1.58,5.78,0,7.8-.95S229.58,101.93,229,99.78Z"/><path class="cls-10" d="M113.36,123.16c-1.84-2-5-2.52-6.91-.29a.83.83,0,0,0-.49.6,1.13,1.13,0,0,0,0,.25,3.36,3.36,0,0,0-.16,1.88,5.63,5.63,0,0,0,1.48,4.55c1.75,1.58,5.18.52,6.61-1C115.42,127.49,114.75,124.69,113.36,123.16Z"/></g><g class="cls-11"><path class="cls-12" d="M212.62,64C201,53.74,197.54,48.21,173.74,44.14c-26.87-4.6-57.35,3.73-79.2,20.69a105.43,105.43,0,0,0-33.77,45.39,97.26,97.26,0,0,0-6.24,27.38c-1.26,17.92,2.87,36,8.78,52.81,4,11.48,11.08,21.24,21.84,27.16,2.81,1.55,6-2.64,5.23-5.17-4.43-13.9,2.24-26.94,7.14-39.76,3-7.87,6.71-15.83,4.29-24.36-2.59-9-15-8.1-20.1-14.41-4.77-5.84,2.83-16.05,6.35-20.39,7-8.7,14.36-10.68,24.83-7.39C131.74,112,135,83.26,151,83c5-.1,9.05,4.88,13.12,7.07a18.14,18.14,0,0,0,11.23,2.26c3.7-.31,7.42-3.62,10.11-5.86a97.16,97.16,0,0,1,17-11.32C206.76,72.8,218.36,69.09,212.62,64Z"/></g><path class="cls-13" d="M93.14,66.65S25.23,123.5,67.82,199.19C67.82,199.19,35,126,93.14,66.65Z"/><path class="cls-14" d="M254.75,100.64S279,177,234.2,225.48C234.2,225.48,288.6,184.72,254.75,100.64Z"/><path class="cls-15" d="M269.18,149.51s0,.67,0,2,0,3.19-.25,5.68a101.59,101.59,0,0,1-3.57,21.24,108.83,108.83,0,0,1-44,61.55,112.48,112.48,0,0,1-22.23,11.47A105.79,105.79,0,0,1,173,257.56a111.17,111.17,0,0,1-28.24-.55,107.4,107.4,0,0,1-14.29-3.14c-2.38-.63-4.69-1.5-7-2.29s-4.67-1.75-6.93-2.83A109.68,109.68,0,0,1,70,209.41a108.39,108.39,0,0,1-.41-120.07A109.32,109.32,0,0,1,116.31,49.9a100.38,100.38,0,0,1,14.06-5.11,108.93,108.93,0,0,1,14.34-3.09A112.08,112.08,0,0,1,173,41.27a107.28,107.28,0,0,1,26.06,6.29A111.93,111.93,0,0,1,221.29,59.1a109.39,109.39,0,0,1,30.4,31,107.6,107.6,0,0,1,13.64,30.55,101.38,101.38,0,0,1,3.57,21.24c.25,2.48.18,4.39.25,5.67S269.18,149.51,269.18,149.51Zm-.18,0s0-.66-.05-1.94,0-3.19-.27-5.66a101.17,101.17,0,0,0-3.7-21.17,104.07,104.07,0,0,0-14-30.19,108.25,108.25,0,0,0-78.2-47.47,110.3,110.3,0,0,0-27.84.47,107.38,107.38,0,0,0-14.09,3.05c-2.35.62-4.64,1.47-7,2.23s-4.62,1.7-6.85,2.76A108.22,108.22,0,0,0,70.93,90.2a106.64,106.64,0,0,0,46,157.62c2.26,1.06,4.62,1.86,6.9,2.76s4.62,1.61,7,2.21a106.82,106.82,0,0,0,14.13,3A109.36,109.36,0,0,0,251,208.49a104.54,104.54,0,0,0,14-30.21,100.17,100.17,0,0,0,3.68-21.15c.25-2.48.2-4.39.27-5.67S269,149.51,269,149.51Z"/><path class="cls-16" d="M70.49,151.57c-5.47-1.88-7.88,3.67-12.62,4.93-2.8.74-7,3-9.79,1.81-1.76-.75-3.77-2.07-5.84-1.63a9,9,0,0,0-7.6,9.12A44.13,44.13,0,0,0,20.26,176c-2.93,3-1.86,7.34.27,10.24,3.75,5.11,11.31,2.63,15.75,7,7.06,6.88,17.29,1.6,22.21-5.26,2.41-3.33,3-8.29,6.06-11.09,1.49-1.36,6.63-1.1,8.64-1.71a9.8,9.8,0,0,0,4.65-3.27c3.33-4.1,1.41-7.88,7.64-9.46,3.09-.79,4.68-3,5.37-5.91C93.47,145.44,73.62,152.65,70.49,151.57Z"/><path class="cls-17" d="M70.44,151.74a6,6,0,0,0-5.07.49c-1.53.9-2.83,2.14-4.32,3.23a11.44,11.44,0,0,1-2.46,1.4c-.9.35-1.73.62-2.54,1a22.71,22.71,0,0,1-5.35,1.77,11.44,11.44,0,0,1-1.58.08,10.24,10.24,0,0,1-1.64-.37c-.84-.31-1.73-.72-2.48-.95a5.06,5.06,0,0,0-2.06-.32l-.35.05-.64.22a7.83,7.83,0,0,0-1.22.44c-.3.17-.62.33-.92.49a9.43,9.43,0,0,0-.9.66,4.74,4.74,0,0,0-.78.77,4.13,4.13,0,0,0-.66.88,5,5,0,0,0-.52,1,5.13,5.13,0,0,0-.37,1,9,9,0,0,0-.35,2.26l-.1,1-.89.42c-1.31.62-2.63,1.2-4,1.84s-2.56,1.46-3.8,2.26-2.42,1.71-3.58,2.64l-1.69,1.46-.84.74-.44.37-.29.35c-2,2-1.73,5.19-.41,7.72a7.93,7.93,0,0,0,2.82,3.11,12.61,12.61,0,0,0,4.12,1.44c2.89.6,6.18.8,8.93,2.8l1.81,1.43a11,11,0,0,0,1.79,1,9.94,9.94,0,0,0,4,.8,15.11,15.11,0,0,0,7.81-2.75,21.57,21.57,0,0,0,5.87-5.95c1.46-2.32,2.11-5.24,3.75-8.24a12,12,0,0,1,1.54-2.16l.46-.51.11-.13,0,0c-.21.15.32-.25.28-.22l.06,0,.24-.15a3.94,3.94,0,0,1,.54-.31c.28-.13.56-.23.86-.34a9.2,9.2,0,0,1,1.42-.36c.43-.1.81-.14,1.22-.2.81-.12,1.58-.16,2.33-.24s1.49-.15,2-.27l.2,0,.1,0h.05c-.06,0,.18-.05-.12.06l0,0,.52-.21a4.52,4.52,0,0,0,.95-.44,7.31,7.31,0,0,1,.66-.41l.7-.6A6.06,6.06,0,0,0,76,171c.09-.09.28-.3.28-.27l.35-.46a13.06,13.06,0,0,0,1.76-3.59,13.22,13.22,0,0,1,1.12-2.39,6.63,6.63,0,0,1,2.11-2.14A9.55,9.55,0,0,1,84.15,161l.62-.17.17,0,.08,0h0s-.21.06-.08,0l.27-.08a7.86,7.86,0,0,0,1-.33,5.33,5.33,0,0,0,2.55-2.28,8.37,8.37,0,0,0,.82-1.79c.07-.2.17-.69.27-1a6.42,6.42,0,0,0,.09-.87,2.74,2.74,0,0,0-1.69-2.75,11.22,11.22,0,0,0-4.16-.83,31,31,0,0,0-4.51.14c-1.5.15-3,.33-4.53.54a14.83,14.83,0,0,1-4.62.22Zm.11-.34a15.26,15.26,0,0,0,4.43-.34l4.51-.81a46.25,46.25,0,0,1,4.6-.61,12.65,12.65,0,0,1,4.83.46,5.06,5.06,0,0,1,2.26,1.55,4.78,4.78,0,0,1,1,2.66,9.33,9.33,0,0,1,0,1.4c-.07.41-.07.67-.17,1.21a12,12,0,0,1-.77,2.46,8.15,8.15,0,0,1-3.83,4,7.34,7.34,0,0,1-1.15.48l-1.1.37a6.64,6.64,0,0,0-1.6.8,5.26,5.26,0,0,0-1.74,2.89,16.78,16.78,0,0,1-2.16,4.59,11.75,11.75,0,0,1-4.07,3.63,10.38,10.38,0,0,1-1.15.52l-.52.2,0,0c-.31.11-.12,0-.19.06l-.1,0-.17,0-.38.09a21.28,21.28,0,0,1-2.48.33c-.77.08-1.52.13-2.22.22-.35,0-.71.07-1,.13s-.74.12-.8.15a.55.55,0,0,1-.22,0c-.09,0-.31.17-.45.24l-.25.14-.07,0s.44-.34.22-.17l0,0-.08.08-.3.33a9.15,9.15,0,0,0-1.14,1.49,34.6,34.6,0,0,0-1.86,3.9c-.3.7-.6,1.41-1,2.16l-.6,1.16c-.21.37-.42.65-.62,1A19.46,19.46,0,0,1,57,192a22.93,22.93,0,0,1-3.88,2.9,19.92,19.92,0,0,1-4.47,2,16.11,16.11,0,0,1-4.94.56,12.39,12.39,0,0,1-4.78-1.35,13.73,13.73,0,0,1-2.08-1.4l-1.66-1.52c-2.11-1.86-5.22-2.26-8.2-2.92a14.38,14.38,0,0,1-4.44-1.61,9,9,0,0,1-3.28-3.49,10,10,0,0,1-1.42-4.6,9,9,0,0,1,.25-2.51c.17-.42.35-.84.53-1.26a7.57,7.57,0,0,1,.65-1c.14-.18.15-.23.41-.54l.4-.42.8-.83,1.62-1.67c1.12-1.08,2.35-2,3.51-3.09s2.56-1.82,3.84-2.74,2.81-1.48,4.21-2.21l-1,1.44a12.86,12.86,0,0,1,.44-3.07,6.79,6.79,0,0,1,.53-1.49,6.59,6.59,0,0,1,.75-1.41,6,6,0,0,1,1-1.26,7,7,0,0,1,1.17-1.08,14.48,14.48,0,0,1,1.31-.9l1.52-.7a9,9,0,0,1,1.34-.39l.66-.17a7.72,7.72,0,0,1,1-.12,7.46,7.46,0,0,1,3.2.72c.94.43,1.64.87,2.46,1.28a10,10,0,0,0,1,.33,8.07,8.07,0,0,0,1.11.07,21.36,21.36,0,0,0,5.08-1.09c.89-.28,1.81-.47,2.63-.7a9.6,9.6,0,0,0,2.35-1c1.54-.89,2.91-2.12,4.58-3a6.52,6.52,0,0,1,5.39-.43Z"/><path class="cls-16" d="M278.86,87.4c-6-4.85-12.14,3.28-17.76,3.51-4.94.21-10.58-.77-14.65,1.81a7.34,7.34,0,0,0-5.14,1.55c-2.51,2-2.29,5.6-4.47,7.43-3.48,2.92-6.29,4.8-8.1,9.09-4,9.44-16.74,8.75-25.21,13.27-5.62,3-11.65,8.67-9.54,15.53a3.34,3.34,0,0,0,2.88,2.31c2.43.5,4.45-.39,6.56-1.58,4.87-2.74,9.31-2.88,14.78-2.69a25.87,25.87,0,0,0,11.07-2.3c4.77-2,11.33.77,16.5.3,2.95-.28,5.61-3.51,7.45-5.51,3.92-4.24,6.93-8.82,11.43-12.65,5.66-4.85,11.4-8.38,15.32-15C282.49,98.32,283,90.72,278.86,87.4Z"/><path class="cls-17" d="M278.77,87.54a8.35,8.35,0,0,0-1.82-1,6.14,6.14,0,0,0-2-.41,6.77,6.77,0,0,0-2,.23,13.21,13.21,0,0,0-2,.72c-1.27.59-2.48,1.31-3.72,2a23.62,23.62,0,0,1-3.88,2l-1.09.33-1.17.19-2.14.12c-1.44,0-2.88.08-4.27.17a19.57,19.57,0,0,0-2,.18,12.6,12.6,0,0,0-2,.36,9.66,9.66,0,0,0-1.84.59,16.6,16.6,0,0,0-1.62.86l-.49.22h-.35a6,6,0,0,0-4.37,1.7c-1.09,1-1.42,2.83-2.44,5a7.09,7.09,0,0,1-1.11,1.58c-.23.24-.48.54-.67.7l-.6.47-2.31,1.92a17.6,17.6,0,0,0-3.8,4.08,7.34,7.34,0,0,0-.7,1.18l-.74,1.36a13.59,13.59,0,0,1-1.89,2.73,16.33,16.33,0,0,1-5.32,3.72c-3.85,1.78-7.92,2.45-11.77,3.54a27.57,27.57,0,0,0-10.71,5,17.42,17.42,0,0,0-4,4.3,9.27,9.27,0,0,0-1.59,5.34,8.94,8.94,0,0,0,.12,1.37c.05.23.13.46.18.67l.1.34,0,.17,0,0c.05.12-.05-.12,0-.08l0,.09.35.67c.12.26.24.21.34.33a.88.88,0,0,0,.43.26,1.32,1.32,0,0,0,.52.22l.57.14.74.08a5.72,5.72,0,0,0,1.25-.08,9.34,9.34,0,0,0,2.53-.92c.4-.22.82-.46,1.24-.72l1.39-.75a14.83,14.83,0,0,1,1.44-.68,10.8,10.8,0,0,1,1.54-.59,24.38,24.38,0,0,1,6.31-1.14c1.07-.08,2.11-.08,3.13-.1h1.57l1.39-.07,1.54-.08,1.31-.24a17,17,0,0,0,2.71-.67,22.4,22.4,0,0,0,2.71-1l.69-.26.35-.12.18-.06.37-.11a13.9,13.9,0,0,1,1.49-.42l1.89-.21a16,16,0,0,1,1.69,0c1.11,0,2.11.16,3.18.25,2.06.25,4,.54,5.88.65a12,12,0,0,0,1.34,0h.67c-.07,0,.25,0-.17,0h.05l.1,0,.17,0,.38-.08.37-.08c.1,0,.12-.08.2-.11a2.29,2.29,0,0,1,.35-.16c.32-.22.67-.4,1-.66a76.16,76.16,0,0,0,8-8.53c1.24-1.53,2.68-3.07,4.08-4.58a55.05,55.05,0,0,1,4.72-4.14c3.22-2.53,6.63-4.69,9.56-7.34a29.4,29.4,0,0,0,4-4.33,13.42,13.42,0,0,0,2.71-5.16,14.52,14.52,0,0,0,.35-5.87,8.32,8.32,0,0,0-2.71-5.12Zm.19-.29a9,9,0,0,1,3,5.31,16.06,16.06,0,0,1,0,6.14,15.32,15.32,0,0,1-.9,3,19,19,0,0,1-1.49,2.73,35.34,35.34,0,0,1-3.77,4.93c-2.84,3.05-6,5.66-9,8.32a25.61,25.61,0,0,0-2.11,2c-.7.69-1.39,1.35-2,2.07-1.27,1.53-2.53,3-3.83,4.6s-2.6,3.13-3.9,4.67a30,30,0,0,1-4.59,4.56,14.22,14.22,0,0,1-1.52,1c-.34.16-.69.3-1,.43a4.55,4.55,0,0,1-.5.19l-.37.08-.37.08-.2,0-.07,0h0l-.28,0-.87,0a15.32,15.32,0,0,1-1.66,0c-2.21-.12-4.22-.52-6.19-.8a23.57,23.57,0,0,0-5.36-.26,11.69,11.69,0,0,0-1.42.35l-.37.1-.17,0h-.05c-.05,0,.29-.11.12-.05l-.1,0-.74.27a27.52,27.52,0,0,1-3,1,18.8,18.8,0,0,1-3.21.68l-1.66.24-1.52,0H218l-1.49-.06c-1,0-2-.08-2.93,0a21.18,21.18,0,0,0-5.66.75,12,12,0,0,0-1.32.41,8,8,0,0,0-1.34.52l-1.34.61c-.45.24-.92.47-1.42.69a11,11,0,0,1-3.25.92,8.24,8.24,0,0,1-1.79,0l-.75-.13c-.39-.1-.59-.18-.89-.27-2.78-.91-3.08-3.88-3-5.88a11.3,11.3,0,0,1,2.09-6,20,20,0,0,1,4.32-4.49,29.59,29.59,0,0,1,5.26-3.23,50.86,50.86,0,0,1,5.77-2.17c3.87-1.21,7.82-2.28,11.23-4.15a13.9,13.9,0,0,0,4.32-3.5,11.66,11.66,0,0,0,1.39-2.35l.62-1.34a11.35,11.35,0,0,1,.74-1.48,20.26,20.26,0,0,1,4.2-4.95c.8-.71,1.57-1.32,2.34-2l.59-.49c.2-.15.23-.26.38-.38a5.63,5.63,0,0,0,.62-.9c.34-.77.69-1.65,1.14-2.68a16.39,16.39,0,0,1,.79-1.56,7.47,7.47,0,0,1,1.2-1.46,8.66,8.66,0,0,1,6.7-2.23l-.82.2a18.16,18.16,0,0,1,2.21-1,15,15,0,0,1,2.29-.51,14.63,14.63,0,0,1,2.26-.18c.75,0,1.47,0,2.21,0,1.44,0,2.86.16,4.25.23l2.13.08.95-.07,1-.21c2.61-.74,5.07-2.32,7.73-3.41a13.67,13.67,0,0,1,2.06-.65,7,7,0,0,1,2.19-.21,3.71,3.71,0,0,1,1.09.14,3.5,3.5,0,0,1,1,.33,8.37,8.37,0,0,1,1.86,1.1Z"/><path class="cls-16" d="M157,171.55c-.52-2.5-3.48-3.12-5.51-2.17a26.89,26.89,0,0,0-5,3c-3.55,2.57-8-.24-11.8.39-5.29.88-9.54,3-15,3.43a17.05,17.05,0,0,0-11.3,5.16,44,44,0,0,0-5.34,7.16c-1.84,2.91-5.84,4.52-8.59,6.46a6.52,6.52,0,0,0-2.46,5.19c-3.31,1.51-5.22,7.13-.38,7.84,6,.88,12.15-.62,17.79-2.72,2.72-1,5.39-3.11,7.8-4.71,5.61-3.72,10.38-4.21,16.76-4.84,6.81-.67,13.54-6.81,18.61-10.81C157,181.47,158.12,176.67,157,171.55Z"/><path class="cls-17" d="M156.85,171.6a3.21,3.21,0,0,0-1.31-1.85,4.12,4.12,0,0,0-2.24-.55,4.94,4.94,0,0,0-2.19.72c-.69.43-1.41.79-2.11,1.25l-1.91,1.46-.22.18-.3.2a4.28,4.28,0,0,1-.52.35,6.35,6.35,0,0,1-1.29.57,12.84,12.84,0,0,1-5.22.17A14.92,14.92,0,0,0,135,174c-1.39.41-3.15.79-4.64,1.29s-3,.93-4.7,1.38a37.23,37.23,0,0,1-5,.93l-.65.08-.57.06-1.19.11c-.72.13-1.44.24-2.19.44a14.9,14.9,0,0,0-4.17,1.68,16.9,16.9,0,0,0-1.87,1.3c-.27.23-.62.55-.82.71l-.83.9a33.81,33.81,0,0,0-3.14,3.7l-1.42,1.94a11.29,11.29,0,0,1-1.66,1.94,23.94,23.94,0,0,1-4.12,2.91L96,194.66a8.33,8.33,0,0,0-1.84,1.4,6.31,6.31,0,0,0-1.39,4.08l0,.42-.43.22a5.19,5.19,0,0,0-2.63,3.94c-.1,1.57,1,2.15,2.86,2.16L94,207l1.34-.06c.88,0,1.81-.14,2.73-.22a38,38,0,0,0,5.42-1.19c1.79-.49,3.57-1.13,5.31-1.79a25.11,25.11,0,0,0,2.41-1.24c.72-.46,1.43-.9,2.23-1.47l2.34-1.67c.95-.66,1.69-1.07,2.51-1.61a26,26,0,0,1,5.84-2.37c1-.32,2-.46,3-.7s2-.3,3-.39,2-.2,2.93-.28l.72-.06h.1l-.15,0h.07l.18,0,.34-.07,1.44-.26a5.65,5.65,0,0,0,1.25-.34l1.16-.38c.82-.3,1.64-.75,2.46-1.1s1.62-.88,2.44-1.32l2.41-1.48c1.59-1,3.18-2.11,4.74-3.22.77-.55,1.66-1.13,2.34-1.66l1.11-.9c.33-.32.6-.66.92-1a10.57,10.57,0,0,0,2.41-4.94,15.3,15.3,0,0,0-.12-5.64Zm.33-.09a17.65,17.65,0,0,1,.32,5.8,13.2,13.2,0,0,1-2.09,5.54c-.3.41-.59.85-.92,1.23l-1,1c-.74.76-1.44,1.32-2.16,2-1.41,1.31-2.85,2.61-4.34,3.89-.75.62-1.52,1.26-2.31,1.85s-1.64,1.15-2.49,1.69-1.76,1-2.73,1.44l-1.57.61a6.71,6.71,0,0,1-1.49.47l-1.41.3-.35.08-.2,0-.32.05-.72.09c-.94.11-1.89.22-2.83.35a42.5,42.5,0,0,0-5.39,1,24.27,24.27,0,0,0-4.9,1.93c-.79.47-1.76,1-2.41,1.42L115.44,204c-.77.54-1.71,1.08-2.65,1.61a25.65,25.65,0,0,1-2.79,1.3,52.13,52.13,0,0,1-5.71,1.69,39.15,39.15,0,0,1-5.93.93,28,28,0,0,1-3,.05l-1.55-.09-1.43-.21-.71-.1c-.37-.06-.59-.15-.9-.22a4.76,4.76,0,0,1-1.65-.89,3.83,3.83,0,0,1-1.22-3.49,6.79,6.79,0,0,1,3.9-5l-.41.64a7.59,7.59,0,0,1,2-4.89,22.38,22.38,0,0,1,4.18-2.79,21.2,21.2,0,0,0,3.85-2.79,23.67,23.67,0,0,0,2.74-3.95,37.32,37.32,0,0,1,2.82-4.05l.75-1,.94-1a18,18,0,0,1,2-1.71,17.54,17.54,0,0,1,4.69-2.42,19.18,19.18,0,0,1,2.61-.69l1.22-.18.67-.1.57-.1a36.56,36.56,0,0,0,4.59-.92c1.52-.36,3.16-.79,4.77-1.23s3.16-.62,5-.92a16.51,16.51,0,0,1,5.24.69,11.1,11.1,0,0,0,4.52.44,6.13,6.13,0,0,0,1-.28A3.49,3.49,0,0,0,146,172a2.34,2.34,0,0,1,.22-.13l.27-.16,2.17-1.27,2.21-1.06a5.26,5.26,0,0,1,2.48-.64,4.56,4.56,0,0,1,2.46.67,3.59,3.59,0,0,1,1.42,2.07Z"/><path class="cls-18" d="M87.43,150.54c.64,3.72-1.84,6.53-6.11,8.21-3.26,1.28-7.48,1.82-10.36,3.83-2.34,1.62-3.24,5.12-6.1,6.11-6.5,2.25-12.66,2.25-18.18,7.05-3.51,3-7,7.33-11.59,8.8s-11.12,0-16.37-2.15a11,11,0,0,0,1.81,3.8c3.75,5.11,11.31,2.63,15.75,7,7.06,6.88,17.29,1.6,22.21-5.26,2.41-3.33,3-8.29,6.06-11.09,1.49-1.36,6.63-1.1,8.64-1.71a9.8,9.8,0,0,0,4.65-3.27c3.33-4.1,1.41-7.88,7.64-9.46,3.09-.79,4.68-3,5.37-5.91C91.72,152.78,90.1,151.13,87.43,150.54Z"/><path class="cls-18" d="M278.86,87.4a6.64,6.64,0,0,0-3.4-1.5c2.09,4-.25,9.62-4.79,12.46-6.16,3.85-19-.28-16.64,11.8,1,5,.52,8.49-3,12.3-2.9,3.14-8.69.19-12.29,1.55-5.44,2.07-9.74,7.18-15.53,8.36a18.15,18.15,0,0,1-7.45.11c-5.59-1.18-9.44-1.14-13.71,3.23-1.91,2-3.92,3.82-6.43,2.72a12,12,0,0,0-1.49,1.36,3.35,3.35,0,0,0,2.78,2.11c2.43.5,4.45-.39,6.56-1.58,4.87-2.74,9.31-2.88,14.78-2.69a25.87,25.87,0,0,0,11.07-2.3c4.77-2,11.33.77,16.5.3,2.95-.28,5.61-3.51,7.45-5.51,3.92-4.24,6.93-8.82,11.43-12.65,5.66-4.85,11.4-8.38,15.32-15C282.49,98.32,283,90.72,278.86,87.4Z"/><path class="cls-18" d="M155.54,169.5a28.72,28.72,0,0,1-.87,3.4,16.62,16.62,0,0,1-5.37,7.54,17.16,17.16,0,0,1-9,3.57c-4.59.45-7.15-1-11.47-1.86-6.71-1.26-8.92,6.19-13.22,9.75a15.27,15.27,0,0,1-9.56,3c-3.65-.37-5,5-8.37,6.32-2,.8-4.6.49-7-.11-2.35,2.16-3.13,6.3,1,6.9,6,.88,12.15-.62,17.79-2.72,2.72-1,5.39-3.11,7.8-4.71,5.61-3.72,10.38-4.21,16.76-4.84,6.81-.67,13.54-6.81,18.61-10.81,4.37-3.43,5.49-8.23,4.37-13.35A3,3,0,0,0,155.54,169.5Z"/></g></g></svg>