<svg xmlns="http://www.w3.org/2000/svg" xmlns:xlink="http://www.w3.org/1999/xlink" viewBox="0 0 300 300"><defs><style>.cls-1{isolation:isolate;}.cls-2{fill:#6d6d6d;}.cls-3{fill:#393a3a;}.cls-11,.cls-4,.cls-9{mix-blend-mode:multiply;}.cls-4,.cls-7,.cls-8{opacity:0.6;}.cls-5{fill:#a4def9;}.cls-5,.cls-6{mix-blend-mode:overlay;}.cls-6{fill:#fff;}.cls-10,.cls-14,.cls-8{mix-blend-mode:screen;}.cls-9{fill:url(#radial-gradient);}.cls-10{fill:#86d5f6;}.cls-11{fill:#a5824f;}.cls-12{mask:url(#mask);}.cls-13{mask:url(#mask-2);}.cls-14{fill:url(#radial-gradient-2);}.cls-15{filter:url(#luminosity-noclip-2);}.cls-16{filter:url(#luminosity-noclip);}</style><radialGradient id="radial-gradient" cx="89.94" cy="117.44" r="180.2" gradientTransform="translate(-5.81 -15.57) scale(1 0.99)" gradientUnits="userSpaceOnUse"><stop offset="0" stop-color="#fff"/><stop offset="0.38" stop-color="#fdfdfd"/><stop offset="0.52" stop-color="#f6f6f6"/><stop offset="0.61" stop-color="#ebebeb"/><stop offset="0.69" stop-color="#dadada"/><stop offset="0.76" stop-color="#c4c4c4"/><stop offset="0.82" stop-color="#a9a8a9"/><stop offset="0.87" stop-color="#898889"/><stop offset="0.92" stop-color="#646263"/><stop offset="0.97" stop-color="#3b393a"/><stop offset="0.98" stop-color="#292728"/></radialGradient><filter id="luminosity-noclip" x="-157.76" y="557.45" width="14.7" height="14.31" filterUnits="userSpaceOnUse" color-interpolation-filters="sRGB"><feFlood flood-color="#fff" result="bg"/><feBlend in="SourceGraphic" in2="bg"/></filter><mask id="mask" x="-157.76" y="557.45" width="14.7" height="14.31" maskUnits="userSpaceOnUse"><g class="cls-16"/></mask><filter id="luminosity-noclip-2" x="-157.76" y="39.83" width="374.98" height="531.93" filterUnits="userSpaceOnUse" color-interpolation-filters="sRGB"><feFlood flood-color="#fff" result="bg"/><feBlend in="SourceGraphic" in2="bg"/></filter><mask id="mask-2" x="-157.76" y="39.83" width="374.98" height="531.93" maskUnits="userSpaceOnUse"><g class="cls-15"/></mask><radialGradient id="radial-gradient-2" cx="185.94" cy="206.32" r="160.42" gradientTransform="translate(-5.81 -15.57) scale(1 0.99)" gradientUnits="userSpaceOnUse"><stop offset="0.35" stop-color="#393939"/><stop offset="0.44" stop-color="#3c3d3d"/><stop offset="0.53" stop-color="#454849"/><stop offset="0.63" stop-color="#555a5d"/><stop offset="0.72" stop-color="#6a7479"/><stop offset="0.81" stop-color="#86959d"/><stop offset="0.9" stop-color="#a7bec9"/><stop offset="0.99" stop-color="#ceecfb"/></radialGradient></defs><g class="cls-1"><g id="Layer_1" data-name="Layer 1"><ellipse class="cls-2" cx="150" cy="150" rx="111.23" ry="110.81"/><path class="cls-3" d="M150,261.72C88.17,261.72,37.85,211.6,37.85,150S88.17,38.28,150,38.28,262.15,88.4,262.15,150,211.83,261.72,150,261.72Zm0-221.61C89.17,40.11,39.71,89.41,39.71,150S89.17,259.89,150,259.89,260.29,210.59,260.29,150,210.83,40.11,150,40.11Z"/><g class="cls-4"><path class="cls-5" d="M221.4,159.06c-6.25,3-12.68,5.67-19.06,8.34a80.94,80.94,0,0,1-8.33,2.65c1.73-2.25,3.15-4.55,4.14-5.92,6-8.39,15.68-15.1,19.52-24.86.89-2.27-2-3.17-3-1.12-3.92,8.1-13.12,14.76-19.73,20.63a48.25,48.25,0,0,0-4.22,4.47c-.17-9.26-2-18.48-6.91-25.12-.68-.9-1.92.29-1.49,1.15,3,6.2,1.79,14.14,1.58,20.77q-.14,3.27-.56,6.5c-1.15-2.05-2-4.7-3.19-6.52-3.84-5.76-9.47-10.06-13.47-15.67-1.2-1.67-3.62.54-2.75,2.13,3.47,6.4,7.27,12.82,9.61,19.73.38,1.11.73,2.41,1.11,3.74-1.49-.64-3-1.28-4.35-2-2.39-1.23-4.69-2.58-7.1-3.79-3-1.5-5.9-1.83-8.71-3.93-1.18-.87-2.69,1-1.67,2,3.76,3.65,8.66,6,12.79,9.29.43.34.9.7,1.32,1-8.61-.69-17.22-1.54-25.1-4.92-1-.43-1.88,1.24-.86,1.77,9.81,5.19,20.55,8,31.38,10.2-2.52.63-5.08,1.26-7.7,1.79C153.22,183.83,142.41,189,131,191c-.9.16-1.07,1.7,0,1.57,12.49-1.4,24.19-5.64,36.79-6.93,1-.11,2.13-.13,3.32-.14-12.57,7.38-22.29,18.11-33,28.77a1.12,1.12,0,0,0,1.49,1.66c8.23-7,15.09-14.76,24.64-20.19,4.26-2.42,9.35-3.72,14.15-5.48a203.7,203.7,0,0,1-11.89,33.39,1.32,1.32,0,0,0,2,1.65c10.1-7.9,15-19.68,18.14-31.76a206,206,0,0,1,8.5,23.93c.6,2,3,.24,2.81-1.31-1.34-8.92-2.06-17.84-4.26-26.61-.15-.59-.3-1.16-.47-1.75a27.28,27.28,0,0,0,2.94,1.74c3.95,1.93,7.4,5.85,12.11,5.71,2,0,4.22-3.67,1.58-4.38-3.82-1-6.52-5.31-9.76-7.43a21.21,21.21,0,0,1-4.65-4.8c1.68-.86,3.28-1.89,4.82-2.88,7.37-4.88,14.62-9.92,21.95-14.87C223.25,160.25,222.66,158.46,221.4,159.06Z"/><path class="cls-5" d="M232.08,97.63c-2.56.47-5.2-.81-7.68-1.37-.55-.13-1.17-.23-1.79-.34,1.73-2.15,3.2-4.55,4.76-6.76,1.3-1.86-.32-4.06-2.37-2.64-1.77,1.23-3.54,2.43-5.29,3.69-.76.54-1.49,1.12-2.21,1.69.27-.22-1.81,1.23-.86.64-.12.09-.25.17-.38.25a97.8,97.8,0,0,1-2.34-15.41c-.13-2-2.77-1.08-2.86.56-.19,5.27.24,10.37-.17,15.52-2.34-5.2-5.33-12.47-9.76-15.69-1.26-.92-3,1.19-1.79,2.23,2.77,2.41,5.46,8.41,7.42,13.47-.81-.42-1.58-.81-2.24-1.2A63.47,63.47,0,0,0,194.1,88c-1.41-.49-2.65,1.77-1.2,2.49,3.37,1.7,6.84,3.34,9.34,6.27l.51.63c-7.16.12-14.41-.26-21.16,2.51-.75.31-1.13,2.07,0,2,6.65-.43,13.3-.3,19.78,1.53l.08,0a69,69,0,0,1-10.44,2.4c-1.09.13-1.58,2.16-.26,2.23a64.29,64.29,0,0,0,10.66-.69c-1.9,2.44-4.09,5.69-6.72,6.42-1,.27-1.64,2.08-.23,2.18,3.45.23,6.35-2.44,8.91-4.41,2-1.52,4.82-2.82,7-4.5a16.76,16.76,0,0,0,1.75-.26c.53,1.14,1.06,2.29,1.53,3.45,1.11,2.88.86,6.09,2.13,9,.86,2,3.65.37,3.14-1.47-1.13-4-1.13-8.1-2.52-12.07,0-.11-.1-.22-.13-.34.5.36,1,.69,1.43,1,1.17.89,2.48,1.5,3.63,2.45a15.71,15.71,0,0,0,3.92,2.45c1.32.54,2.85-1.61,1.64-2.53a16.68,16.68,0,0,1-2.69-2.75c-.91-1.09-2.15-1.9-3.09-3-.21-.24-.47-.52-.68-.81a22.31,22.31,0,0,1,2.71-.35c3.13-.14,6.5,0,9.27-1.64C233.61,99.64,234,97.29,232.08,97.63Z"/><path class="cls-6" d="M239.64,174.43a2.73,2.73,0,0,0-2.45-2c-4.11,0-6,4.32-6.18,7.85a2.93,2.93,0,0,0,2.39,2.92,1.74,1.74,0,0,0,.42.08C238.17,183.72,240.86,178.11,239.64,174.43Z"/><path class="cls-6" d="M244.56,132.23a5.92,5.92,0,0,0-6.94-1.4,9.62,9.62,0,0,0-4,4c-2.47,3.46-5.56,9.41-2.81,13.29,2,2.76,5.58,2.36,8.35,1.33,4.5-1.64,6.76-6.83,7.16-11.23A7.42,7.42,0,0,0,244.56,132.23Z"/><path class="cls-6" d="M221.25,202a3.13,3.13,0,0,0-3.6,1.34,3.75,3.75,0,0,0-1.82,2.39c-.29,1.31.45,3.25,2.09,3.15a5,5,0,0,0,4.5-3C223,204.44,222.91,202.58,221.25,202Z"/><path class="cls-6" d="M194.2,232.89c-1-3.23-4.49-4.21-7.44-3.08-4.11,1.59-6.6,6.85-7,11a4.32,4.32,0,0,0,4.46,4.73c2.49.22,5.13-1.45,6.84-3.18C193.37,240,195.25,236.21,194.2,232.89Z"/><path class="cls-6" d="M92.65,95.71c-.34-2.86-2.26-4.65-5.2-4.41s-6.1,3.53-6.33,6.36a8.7,8.7,0,0,0-.17,3.92,4,4,0,0,0,3.39,3.11c2,.32,4.15-1.23,5.49-2.54C91.52,100.5,92.94,98.18,92.65,95.71Z"/><path class="cls-5" d="M98.61,137.92c-4.13,2.65-8.84,3.78-13.51,5.11-1,.28-2.9,1.3-4.58,2,1.47-1.71,2.75-3.7,3.94-5.18,2.56-3.27,5.12-6.53,6.4-10.52.51-1.6-1.84-1.78-2.39-.51-1.58,3.43-4.28,6.06-6.9,8.68-1.43,1.43-3.33,2.91-4.93,4.54-.11-1.08-.23-2.15-.36-3.22-.51-4.14-.43-8.46-1.24-12.54-.21-1-1.57-.26-1.53.5a89,89,0,0,1-.9,14.26c-1.43-2.69-2.85-5.34-5.79-7-.77-.42-1.71,1-1,1.53,2.4,1.9,3.53,4.72,4.64,7.53-.51-.27-1-.52-1.53-.77-4.18-1.91-9.51-4.25-14.11-4.54-1.13-.07-1.75,1.79-.47,2,4.39.65,9.25,3.36,13.26,5.23a28,28,0,0,1,3.07,1.7c-1.88.38-3.76.75-5.63,1.23a48.54,48.54,0,0,0-9.4,4c-1,.49-.75,2.1.49,1.65,3.62-1.33,7.25-2.84,11.08-3.38l.73-.07a42.78,42.78,0,0,0-10.6,10.31c-.63.95.2,2.24,1.24,1.39,3.35-2.7,6.69-5.49,9.91-8.39-2.81,4.6-6.29,11.5-5.22,16.75.19.95,1.47.5,1.77-.12,2.41-5.12,4.47-10.09,7.61-14.86.25-.39.53-.75.81-1.14a31.61,31.61,0,0,1,.66,4c.21,2.69.72,5.37.93,8.07s1.37,7,.94,9.59c-.3,2,2.09,1.69,2.65.18,1.53-4.38.93-10.25,1-14.86.06-1.81,0-3.66,0-5.52.25.39.53.76.77,1.15,2.08,3.26,3.36,9.22,6.73,11.32,1.34.83,3.5-1,2.43-2.37-2.24-2.85-2.77-7.69-4.3-11-.3-.64-.64-1.32-1-2a27.33,27.33,0,0,1,7.69,4c1.51,1,3.39-1.29,2.09-2.57C92,152,90,149.73,87,148.66a23.43,23.43,0,0,0-2.39-.68c5.2-2.68,10.6-4.33,15.18-8.21C101,138.76,100.06,137,98.61,137.92Z"/><path class="cls-6" d="M80.8,202.67a18.23,18.23,0,0,0-1.54,1.51,3.64,3.64,0,0,0-.64,1.31A11.39,11.39,0,0,0,77,210.94c-.12,1.75,1.82,2.43,3.18,1.84,3.43-1.52,4.75-4.89,5-8.41C85.32,202,82.33,201.3,80.8,202.67Z"/><path class="cls-6" d="M110.93,188c-.23-4.09-4-7.57-8.27-5.89-3.28,1.3-6.13,5.64-7.16,10.06a9,9,0,0,0-.3,4.1c.22,2.83,1.5,5.27,4.33,6.42,6.07,2.47,10.64-4.14,12-9.12A8.11,8.11,0,0,0,110.93,188Z"/><path class="cls-6" d="M170.69,66a6.44,6.44,0,0,0-3.13.42,1.54,1.54,0,0,0-.74,0,8.19,8.19,0,0,0-5,4.48c-.3.39-.6.79-.83,1.16a7,7,0,0,0,.68,8.92c1.21,1.21,3.22,1.39,4.8,1.25a6.35,6.35,0,0,0,1.74-.44,10.68,10.68,0,0,0,2-1,10.86,10.86,0,0,0,5-8.62C175.51,69.14,173.85,66.49,170.69,66Z"/><path class="cls-6" d="M126.75,69.6a3,3,0,0,0-.56-.23l.22.19c-1.28-.71-2.73-.2-3.84,1,0,0,0,0,0,.06a3.11,3.11,0,0,0-.3,3.91c0,.1.08.19.13.29.91,1.65,3.11.85,4.09-.35C128.24,73.43,128.81,70.6,126.75,69.6Z"/><path class="cls-6" d="M95.31,78.53c-.36-.08-.4-.09-.06,0a2.2,2.2,0,0,0-.6-.12,3.63,3.63,0,0,0-2,.69A3.23,3.23,0,0,0,91,81.17a2.05,2.05,0,0,0,1.15,2.52,18.63,18.63,0,0,0,2,.45c1.51.27,3-1.31,3.31-2.64A2.32,2.32,0,0,0,95.31,78.53Z"/></g><g class="cls-7"><path class="cls-6" d="M86,193.18c-11.89-19.66-22.74-43.94-24-67.49a2,2,0,0,0-.21.89c0,38.88,23.12,83,56.14,105A164.21,164.21,0,0,1,86,193.18Z"/><path class="cls-6" d="M80.67,210.11c-13-21.13-24.25-46.41-25-71.78-.23-1.83-.38-3.65-.43-5.5a108.05,108.05,0,0,1,1.88-19.54,1.24,1.24,0,0,0-.51.65c-11.55,34.3,4.13,68.64,23.14,96.87C80.16,211.35,81,210.62,80.67,210.11Z"/><path class="cls-6" d="M141.58,130.48c-5.46-2.91-11-5.74-16.41-8.56-11.85-6.16-25.26-12.26-38.94-14.9-.55,0-1.11-.06-1.66-.06a84,84,0,0,0-9.36.71c16.84,1.87,33.81,10.1,48.25,17.72,13.39,7,26.65,14.5,39.61,22.33-.62-.77-1.3-1.48-2-2.23C154.79,140.26,148.23,135.3,141.58,130.48Z"/><path class="cls-6" d="M107.86,102.18c-11.38-1.55-21.44-4.43-33.09-4.32-.28,0-.47.53-.11.53,11.34.16,21.89,3.1,33.08,4.22C108,102.64,108.12,102.23,107.86,102.18Z"/><path class="cls-6" d="M178.5,76.4c-18.72-5.12-37.64-7.09-56.95-4.1A147,147,0,0,0,100.94,77a1.34,1.34,0,0,1-.45.32A80.3,80.3,0,0,0,80.84,87.86C78.62,89.44,74,91.48,72.06,94a1,1,0,0,0,.51-.19c31.76-21.07,70.2-24.87,107-16.45.08,0,.21,0,.3-.11Z"/><path class="cls-6" d="M156.46,58.41l-.17,0c-12.94,0-26.2,1.46-38.62,5.14-3.82,1.7-7.59,3.5-11.21,5.49-2.69,1.46-5.37,3-8,4.56,21.22-9.95,42.71-14.1,65.94-14C161.7,59.23,159,58.93,156.46,58.41Z"/><path class="cls-6" d="M128.15,47.56c-17.69,4.53-38.23,12-52,25.33a67.28,67.28,0,0,0-8,13C76.15,76,83.7,68.3,95,61.86c10.32-5.87,21.7-9.94,33.17-13C128.92,48.68,129.05,47.34,128.15,47.56Z"/></g><g class="cls-8"><path class="cls-6" d="M222.72,157.54c-6.25,3-12.66,5.67-19.05,8.35a78.72,78.72,0,0,1-8.34,2.64c1.71-2.25,3.16-4.54,4.14-5.9,6-8.4,15.68-15.11,19.52-24.87.89-2.27-2-3.17-3-1.12-3.93,8.1-13.13,14.76-19.74,20.63a54.05,54.05,0,0,0-4.22,4.46c-.17-9.26-2-18.48-6.9-25.11-.69-.9-1.9.28-1.5,1.16,3,6.18,1.79,14.13,1.58,20.76-.08,2.18-.28,4.34-.55,6.5-1.15-2-2-4.7-3.2-6.53-3.84-5.76-9.46-10-13.47-15.66-1.19-1.66-3.62.53-2.73,2.13,3.45,6.39,7.25,12.82,9.59,19.73.38,1.1.73,2.4,1.11,3.73-1.49-.64-3-1.27-4.35-2-2.39-1.21-4.69-2.57-7.07-3.78-3-1.5-5.93-1.83-8.74-3.93-1.17-.87-2.69,1-1.66,2.05,3.75,3.66,8.67,6,12.78,9.29.43.34.9.69,1.33,1-8.62-.68-17.23-1.53-25.11-4.92-1-.43-1.88,1.25-.85,1.78,9.8,5.19,20.54,8,31.37,10.2-2.52.63-5.07,1.25-7.67,1.79-11.47,2.33-22.28,7.48-33.72,9.53-.9.16-1.07,1.7,0,1.58,12.49-1.41,24.19-5.66,36.79-6.94,1-.1,2.13-.12,3.32-.13-12.55,7.38-22.29,18.11-33,28.78a1.11,1.11,0,0,0,1.49,1.65c8.25-7,15.09-14.76,24.64-20.18,4.26-2.43,9.37-3.73,14.15-5.49a206.24,206.24,0,0,1-11.89,33.39,1.32,1.32,0,0,0,2,1.65c10.13-7.9,15-19.68,18.14-31.76a202.38,202.38,0,0,1,8.5,23.93c.6,1.94,3,.25,2.82-1.32-1.35-8.9-2.07-17.83-4.27-26.59a17.53,17.53,0,0,0-.47-1.76,23.48,23.48,0,0,0,2.95,1.73c4,1.93,7.39,5.84,12.1,5.72,2-.06,4.22-3.66,1.58-4.38-3.82-1.05-6.52-5.31-9.76-7.43a21.26,21.26,0,0,1-4.65-4.81,52.35,52.35,0,0,0,4.82-2.87c7.37-4.87,14.62-9.92,22-14.88C224.57,158.74,224,157,222.72,157.54Z"/><path class="cls-6" d="M233.4,96.12c-2.56.47-5.2-.81-7.68-1.37-.55-.12-1.15-.24-1.76-.34,1.7-2.16,3.17-4.55,4.73-6.76,1.3-1.87-.32-4.06-2.37-2.64-1.79,1.21-3.56,2.43-5.31,3.68-.74.55-1.47,1.12-2.19,1.7.28-.23-1.81,1.23-.83.64l-.41.24a97.27,97.27,0,0,1-2.34-15.41c-.13-2-2.77-1.07-2.86.58-.19,5.25.24,10.36-.17,15.5-2.34-5.2-5.33-12.46-9.76-15.68-1.26-.93-3,1.19-1.79,2.23,2.77,2.4,5.48,8.4,7.42,13.46-.81-.41-1.58-.8-2.26-1.18a61.75,61.75,0,0,0-10.4-4.27C194,86,192.77,88.27,194.2,89c3.39,1.7,6.86,3.34,9.36,6.27.17.19.34.41.51.63-7.16.11-14.41-.26-21.16,2.51-.75.32-1.13,2.07,0,2,6.67-.43,13.3-.29,19.78,1.54l.08,0a70.2,70.2,0,0,1-10.44,2.4c-1.07.13-1.58,2.16-.24,2.23a63.07,63.07,0,0,0,10.64-.7c-1.9,2.44-4.07,5.69-6.71,6.43-1,.26-1.64,2.08-.24,2.17,3.45.24,6.35-2.44,8.91-4.4,2-1.52,4.82-2.82,7-4.51a16.38,16.38,0,0,0,1.75-.25c.53,1.14,1.07,2.29,1.53,3.45,1.14,2.88.86,6.09,2.14,9,.85,2,3.64.36,3.13-1.47-1.13-4-1.13-8.1-2.52-12.07a1.85,1.85,0,0,0-.12-.33c.49.34,1,.68,1.42,1,1.18.9,2.48,1.52,3.63,2.46a15.51,15.51,0,0,0,3.94,2.46c1.3.52,2.84-1.62,1.62-2.54a16.49,16.49,0,0,1-2.66-2.75c-.94-1.1-2.18-1.91-3.12-3l-.68-.81a20.49,20.49,0,0,1,2.71-.35c3.13-.14,6.5,0,9.27-1.64C234.93,98.13,235.27,95.78,233.4,96.12Z"/><path class="cls-6" d="M241,172.92a2.71,2.71,0,0,0-2.43-2c-4.13,0-6,4.33-6.2,7.84a2.93,2.93,0,0,0,2.39,2.92,1.67,1.67,0,0,0,.42.09C239.49,182.2,242.18,176.6,241,172.92Z"/><path class="cls-6" d="M245.89,130.72a5.9,5.9,0,0,0-6.95-1.4,9.8,9.8,0,0,0-4,4c-2.47,3.45-5.56,9.41-2.81,13.29,2,2.75,5.58,2.35,8.37,1.33,4.48-1.64,6.74-6.83,7.14-11.23A7.4,7.4,0,0,0,245.89,130.72Z"/><path class="cls-6" d="M222.57,200.44a3.14,3.14,0,0,0-3.6,1.33,3.81,3.81,0,0,0-1.81,2.4c-.3,1.31.46,3.25,2.08,3.15a5.06,5.06,0,0,0,4.52-3C224.32,202.93,224.23,201.07,222.57,200.44Z"/><path class="cls-6" d="M195.52,231.37c-1-3.23-4.49-4.21-7.43-3.08-4.1,1.6-6.61,6.85-7,11a4.33,4.33,0,0,0,4.46,4.73c2.49.21,5.13-1.45,6.84-3.19C194.69,238.46,196.57,234.7,195.52,231.37Z"/><path class="cls-6" d="M94,94.19c-.34-2.86-2.26-4.63-5.2-4.4s-6.1,3.53-6.33,6.35a8.42,8.42,0,0,0-.15,3.92,3.9,3.9,0,0,0,3.37,3.12c2,.32,4.17-1.23,5.5-2.54C92.84,99,94.27,96.66,94,94.19Z"/><path class="cls-6" d="M99.94,136.4c-4.12,2.66-8.85,3.8-13.52,5.11-1,.28-2.89,1.32-4.58,2,1.47-1.71,2.75-3.7,3.94-5.19,2.56-3.26,5.12-6.52,6.4-10.52.51-1.59-1.84-1.79-2.39-.5-1.58,3.42-4.28,6.06-6.9,8.68-1.43,1.43-3.33,2.91-4.93,4.54-.1-1.08-.23-2.16-.36-3.22-.51-4.15-.43-8.46-1.23-12.54-.22-1-1.58-.26-1.54.5a89.06,89.06,0,0,1-.9,14.26c-1.4-2.7-2.85-5.34-5.79-6.95-.77-.42-1.71,1-1,1.53,2.41,1.9,3.54,4.71,4.64,7.53-.51-.27-1-.53-1.53-.77-4.18-1.91-9.51-4.25-14.11-4.54-1.11-.08-1.75,1.79-.47,2,4.39.65,9.25,3.36,13.26,5.22A25.56,25.56,0,0,1,72,145.25c-1.88.38-3.75.74-5.63,1.22a48.85,48.85,0,0,0-9.4,4c-1,.49-.74,2.1.47,1.65,3.65-1.34,7.27-2.85,11.12-3.37l.71-.08A42.86,42.86,0,0,0,58.67,159c-.61.94.22,2.24,1.26,1.39,3.35-2.7,6.69-5.5,9.91-8.39-2.81,4.59-6.26,11.51-5.22,16.74.19,1,1.47.5,1.77-.12,2.41-5.11,4.48-10.08,7.61-14.86a11.62,11.62,0,0,1,.83-1.13,34.81,34.81,0,0,1,.64,4c.21,2.68.72,5.37.94,8.06s1.36,7,.93,9.61c-.29,2,2.09,1.68,2.65.17,1.53-4.38.94-10.24,1.06-14.86,0-1.82,0-3.66,0-5.52.26.39.53.76.77,1.14,2.09,3.26,3.36,9.23,6.73,11.33,1.35.83,3.5-1,2.43-2.38-2.26-2.84-2.77-7.68-4.3-11-.3-.64-.62-1.33-1-2a27.08,27.08,0,0,1,7.69,4c1.54,1,3.37-1.29,2.09-2.57-2.17-2.14-4.16-4.38-7.12-5.46a24.58,24.58,0,0,0-2.39-.67c5.21-2.68,10.6-4.33,15.18-8.21C102.32,137.24,101.39,135.48,99.94,136.4Z"/><path class="cls-6" d="M82.12,201.15c-.51.49-1.07,1-1.54,1.51a3.72,3.72,0,0,0-.64,1.31,11.42,11.42,0,0,0-1.61,5.46c-.13,1.75,1.81,2.43,3.17,1.83,3.43-1.51,4.75-4.89,5-8.4C86.64,200.51,83.65,199.79,82.12,201.15Z"/><path class="cls-6" d="M112.25,186.52c-.23-4.09-4-7.58-8.26-5.89-3.26,1.31-6.14,5.63-7.16,10.06a8.74,8.74,0,0,0-.3,4.1,7,7,0,0,0,4.32,6.41c6.08,2.48,10.64-4.13,12-9.12A8.08,8.08,0,0,0,112.25,186.52Z"/><path class="cls-6" d="M172,64.51a6.51,6.51,0,0,0-3.12.43,1.77,1.77,0,0,0-.76,0,8.2,8.2,0,0,0-5,4.49c-.3.39-.6.79-.83,1.16a7,7,0,0,0,.7,8.92c1.2,1.21,3.2,1.38,4.78,1.24a6,6,0,0,0,1.74-.43,9.59,9.59,0,0,0,2-1,10.87,10.87,0,0,0,5-8.62C176.83,67.64,175.17,65,172,64.51Z"/><path class="cls-6" d="M128.07,68.08a3,3,0,0,0-.56-.22c.09.06.13.12.22.18-1.28-.7-2.73-.19-3.84,1,0,0,0,0,0,.07a3.15,3.15,0,0,0-.3,3.92l.13.27c.94,1.66,3.11.86,4.09-.35C129.56,71.92,130.14,69.09,128.07,68.08Z"/><path class="cls-6" d="M96.63,77c-.36-.07-.4-.08-.06,0a2.57,2.57,0,0,0-.6-.11,3.68,3.68,0,0,0-2,.69,3.23,3.23,0,0,0-1.66,2.09,2,2,0,0,0,1.15,2.51,18.69,18.69,0,0,0,2,.46c1.54.27,3-1.31,3.31-2.64A2.33,2.33,0,0,0,96.63,77Z"/></g><ellipse class="cls-9" cx="150" cy="150.19" rx="111.23" ry="110.8"/><path class="cls-10" d="M80.76,65.21s-69.63,58.3-26,135.92C54.8,201.13,21.21,126.05,80.76,65.21Z"/><path class="cls-11" d="M246.53,100.06s24.87,78.36-21.1,128C225.43,228.09,281.22,186.3,246.53,100.06Z"/><g class="cls-12"><g class="cls-13"><path class="cls-14" d="M70.44,202.79c7.69-3.91,12.55-10,11.55-19.08-1.32-12.38-9.48-23.27-8.52-36a21,21,0,0,1,12.81-17.57c7.86-3.5,17-3.13,25.29-4.31,7.06-1,14.22-2.76,17.78-9.63,2-3.93,3.54-8,6.35-11.5,6.65-8.23,19.09-8.38,27.62-3.26,4.69,2.81,9.46,10,15.05,10.75,10.12,1.42,10.29-7.85,12.89-14.54.19-.48.94-1.15,1.51-.89,5.93,2.77,9.43,10.34,15.56,12.32,8.34,2.71,9.68-14.52,8.55-19.08-1.34-5.49-3.65-10.56-5.48-15.88-1.73-5-4.69-11.56-1.85-16.6A108.51,108.51,0,0,0,150,39.83c-60,0-108.7,48.49-108.7,108.28a107.61,107.61,0,0,0,20.34,63C63.36,207,66.52,204.8,70.44,202.79Z"/></g></g></g></g></svg>