<svg xmlns="http://www.w3.org/2000/svg" xmlns:xlink="http://www.w3.org/1999/xlink" viewBox="0 0 300 300"><defs><style>.cls-1{mask:url(#mask);filter:url(#luminosity-noclip-4);}.cls-2,.cls-20,.cls-24,.cls-29,.cls-31,.cls-4,.cls-6{mix-blend-mode:multiply;}.cls-2{fill:url(#radial-gradient);}.cls-3{mask:url(#mask-2);filter:url(#luminosity-noclip-5);}.cls-4{fill:url(#radial-gradient-2);}.cls-5{mask:url(#mask-3);filter:url(#luminosity-noclip-6);}.cls-6{fill:url(#radial-gradient-3);}.cls-7{isolation:isolate;}.cls-8{fill:#00bdf1;}.cls-9{fill:#007cd8;}.cls-10{fill:#7259a5;}.cls-11{fill:#642d90;}.cls-12{fill:#ca7bb2;}.cls-13{fill:#fff8bf;}.cls-14{fill:#f8a477;}.cls-15{fill:#9e73b1;}.cls-16{fill:#fac8c2;}.cls-17{fill:#477bbd;}.cls-18{fill:#b75db1;}.cls-19{mask:url(#mask-4);}.cls-20{fill:url(#radial-gradient-4);}.cls-21{mask:url(#mask-5);}.cls-22,.cls-25,.cls-28{mix-blend-mode:screen;}.cls-22{fill:url(#radial-gradient-5);}.cls-23{fill:url(#radial-gradient-6);}.cls-24{fill:#dd8aba;}.cls-25,.cls-30{fill:#fff;}.cls-25{opacity:0.6;}.cls-26{fill:#a760a6;}.cls-27{mask:url(#mask-6);}.cls-28{fill:url(#radial-gradient-7);}.cls-29{fill:#341c66;}.cls-30{mix-blend-mode:overlay;}.cls-31{fill:#0225c5;opacity:0.7;}.cls-32{filter:url(#luminosity-noclip-3);}.cls-33{filter:url(#luminosity-noclip-2);}.cls-34{filter:url(#luminosity-noclip);}</style><filter id="luminosity-noclip" x="44.58" y="-5868.77" width="16.01" height="32766" filterUnits="userSpaceOnUse" color-interpolation-filters="sRGB"><feFlood flood-color="#fff" result="bg"/><feBlend in="SourceGraphic" in2="bg"/></filter><mask id="mask" x="44.58" y="-5868.77" width="16.01" height="32766" maskUnits="userSpaceOnUse"><g class="cls-34"/></mask><radialGradient id="radial-gradient" cx="331.77" cy="-457.18" r="16.23" gradientTransform="matrix(0.99, 0.15, -0.15, 0.98, -350.49, 427.62)" gradientUnits="userSpaceOnUse"><stop offset="0"/><stop offset="0.37" stop-color="#020202"/><stop offset="0.51" stop-color="#090909"/><stop offset="0.6" stop-color="#141414"/><stop offset="0.68" stop-color="#252525"/><stop offset="0.75" stop-color="#3b3b3b"/><stop offset="0.8" stop-color="#575757"/><stop offset="0.86" stop-color="#777"/><stop offset="0.91" stop-color="#9d9d9d"/><stop offset="0.95" stop-color="#c8c8c8"/><stop offset="0.99" stop-color="#f6f6f6"/><stop offset="1" stop-color="#fff"/></radialGradient><filter id="luminosity-noclip-2" x="44.73" y="-5868.77" width="11.54" height="32766" filterUnits="userSpaceOnUse" color-interpolation-filters="sRGB"><feFlood flood-color="#fff" result="bg"/><feBlend in="SourceGraphic" in2="bg"/></filter><mask id="mask-2" x="44.73" y="-5868.77" width="11.54" height="32766" maskUnits="userSpaceOnUse"><g class="cls-33"/></mask><radialGradient id="radial-gradient-2" cx="27.82" cy="107.97" r="17.64" gradientTransform="matrix(1, -0.02, 0.02, 0.99, 30.04, -67.8)" xlink:href="#radial-gradient"/><filter id="luminosity-noclip-3" x="40.4" y="-5868.77" width="13.46" height="32766" filterUnits="userSpaceOnUse" color-interpolation-filters="sRGB"><feFlood flood-color="#fff" result="bg"/><feBlend in="SourceGraphic" in2="bg"/></filter><mask id="mask-3" x="40.4" y="-5868.77" width="13.46" height="32766" maskUnits="userSpaceOnUse"><g class="cls-32"/></mask><radialGradient id="radial-gradient-3" cx="341" cy="-462.95" r="23.04" xlink:href="#radial-gradient"/><filter id="luminosity-noclip-4" x="44.58" y="23.72" width="207.37" height="223.56" filterUnits="userSpaceOnUse" color-interpolation-filters="sRGB"><feFlood flood-color="#fff" result="bg"/><feBlend in="SourceGraphic" in2="bg"/></filter><mask id="mask-4" x="44.58" y="23.72" width="207.37" height="223.56" maskUnits="userSpaceOnUse"><g class="cls-1"><path class="cls-2" d="M60.51,32.86a8,8,0,1,1-6.75-9A8,8,0,0,1,60.51,32.86Z"/></g></mask><radialGradient id="radial-gradient-4" cx="347.89" cy="-398.07" r="194.28" gradientTransform="matrix(0.99, 0.15, -0.15, 0.98, -350.49, 427.62)" gradientUnits="userSpaceOnUse"><stop offset="0" stop-color="#fff"/><stop offset="0.4" stop-color="#fefdfe"/><stop offset="0.55" stop-color="#f9f6fa"/><stop offset="0.65" stop-color="#f2ebf4"/><stop offset="0.73" stop-color="#e7daea"/><stop offset="0.8" stop-color="#d8c4de"/><stop offset="0.87" stop-color="#c6a8cf"/><stop offset="0.92" stop-color="#b188bd"/><stop offset="0.98" stop-color="#9a64a9"/><stop offset="1" stop-color="#8c4f9e"/></radialGradient><filter id="luminosity-noclip-5" x="44.73" y="23.85" width="155.49" height="184.8" filterUnits="userSpaceOnUse" color-interpolation-filters="sRGB"><feFlood flood-color="#fff" result="bg"/><feBlend in="SourceGraphic" in2="bg"/></filter><mask id="mask-5" x="44.73" y="23.85" width="155.49" height="184.8" maskUnits="userSpaceOnUse"><g class="cls-3"><path class="cls-4" d="M56.25,25.29a4.22,4.22,0,0,0-2.82-1.37,7.73,7.73,0,0,0-8.26,5,7.51,7.51,0,0,0-.43,2,9.8,9.8,0,0,0,.71,3.89,3.76,3.76,0,0,0,1.08,1.59,7,7,0,0,0,.87-.32A5,5,0,0,1,48,33.5a2.86,2.86,0,0,0,.28-1.81c-.2-.66-1.11-.58-1.5-1s.19-1.18.45-1.51A1.49,1.49,0,0,1,49,28.57c1.4.41,1.61-1.71,2.79-1.75.37,0,.67.35,1,.5a1.35,1.35,0,0,0,.83.16,1.53,1.53,0,0,0,.74-.45,7.56,7.56,0,0,1,1.24-.85,5.81,5.81,0,0,0,.68-.37A1.81,1.81,0,0,0,56.25,25.29Z"/></g></mask><radialGradient id="radial-gradient-5" cx="204.67" cy="313.37" r="211.09" gradientTransform="matrix(1, -0.02, 0.02, 0.99, 30.04, -67.8)" gradientUnits="userSpaceOnUse"><stop offset="0" stop-color="#2b2b2b"/><stop offset="0.39" stop-color="#2d2d2d"/><stop offset="0.53" stop-color="#343434"/><stop offset="0.63" stop-color="#3f3f3f"/><stop offset="0.71" stop-color="#505050"/><stop offset="0.77" stop-color="#666"/><stop offset="0.84" stop-color="#828282"/><stop offset="0.89" stop-color="#a2a2a2"/><stop offset="0.94" stop-color="#c8c8c8"/><stop offset="0.99" stop-color="#f1f1f1"/><stop offset="1" stop-color="#fff"/></radialGradient><radialGradient id="radial-gradient-6" cx="118.9" cy="147.26" r="303.03" gradientTransform="translate(-6.65 -15.57) scale(1 0.99)" gradientUnits="userSpaceOnUse"><stop offset="0.06" stop-color="#7fcfe6"/><stop offset="0.24" stop-color="#7ec6e1"/><stop offset="0.55" stop-color="#7bacd4"/><stop offset="0.93" stop-color="#7783be"/><stop offset="1" stop-color="#767bba"/></radialGradient><filter id="luminosity-noclip-6" x="10.28" y="33.81" width="161.13" height="214.67" filterUnits="userSpaceOnUse" color-interpolation-filters="sRGB"><feFlood flood-color="#fff" result="bg"/><feBlend in="SourceGraphic" in2="bg"/></filter><mask id="mask-6" x="10.28" y="33.81" width="161.13" height="214.67" maskUnits="userSpaceOnUse"><g class="cls-5"><path class="cls-6" d="M53.54,34.76a9.45,9.45,0,0,0-1.9,1c-.66.39-1.34.76-2,1.11A16.68,16.68,0,0,1,45,38.37c-.73.13-3.52.68-3.39-.63a4.75,4.75,0,0,1,1.15-2c.45-.61.93-1.19,1.43-1.77.08-.09-.06-.17-.13-.1-1.28,1-3.22,2.25-3.63,4s1.57,2,2.82,2a15.06,15.06,0,0,0,5.41-1.53c.92-.41,1.81-.88,2.68-1.37a9.87,9.87,0,0,0,2.39-1.62C54,35.05,53.88,34.65,53.54,34.76Z"/></g></mask><radialGradient id="radial-gradient-7" cx="458.35" cy="-467.1" r="275.78" gradientTransform="matrix(0.99, 0.15, -0.15, 0.98, -350.49, 427.62)" xlink:href="#radial-gradient-5"/></defs><g class="cls-7"><g id="Layer_1" data-name="Layer 1"><path class="cls-8" d="M251.11,165.83C243.36,218,194.67,254,142.32,246.27S53.84,190,61.58,137.91,118,49.75,170.36,57.46,258.85,113.69,251.11,165.83Z"/><path class="cls-9" d="M251.27,165.86l-.29,1.7c-.21,1.11-.41,2.78-.93,4.93a90.27,90.27,0,0,1-5.84,18.13,98.1,98.1,0,0,1-15.76,25.09,96.32,96.32,0,0,1-30.58,23.53,99.69,99.69,0,0,1-21,7.28,94,94,0,0,1-23.73,2.06,95.61,95.61,0,0,1-48.44-15.35A98.68,98.68,0,0,1,69.2,192.64,95.86,95.86,0,0,1,61,166a101.64,101.64,0,0,1-1.17-14.06,108.37,108.37,0,0,1,.9-14.14,106.48,106.48,0,0,1,3-13.85,98.93,98.93,0,0,1,4.95-13.28,96.61,96.61,0,0,1,61.69-52.29,93.82,93.82,0,0,1,26.1-3.55c2.16.06,4.31.05,6.44.25,1,.08,2.11.13,3.17.25s2.1.27,3.15.39c2.19.24,4.12.68,6.16,1s4.11.87,6.08,1.42a95,95,0,0,1,22.12,8.94,99.38,99.38,0,0,1,18,13.11,96.35,96.35,0,0,1,22.4,31.37,98,98,0,0,1,7.79,28.58,91.27,91.27,0,0,1,.31,19c-.13,2.2-.42,3.86-.55,5S251.27,165.86,251.27,165.86Zm-.32-.05s.08-.58.2-1.71.39-2.79.49-5a90,90,0,0,0-.54-18.93A82.73,82.73,0,0,0,248.33,127a90.66,90.66,0,0,0-5.69-14.83,96.27,96.27,0,0,0-62-50.91c-1.91-.53-3.85-.9-5.8-1.34l-3-.52-1.52-.27-1.48-.18-3-.37c-1-.1-2.05-.15-3.08-.23-2.06-.18-4.14-.17-6.22-.22a92.53,92.53,0,0,0-12.6.86c-2.11.23-4.2.68-6.32,1s-4.22.88-6.29,1.5a95,95,0,0,0-68.77,76.57,104.88,104.88,0,0,0-1.15,13.85,97.59,97.59,0,0,0,.88,13.89,95.36,95.36,0,0,0,7.92,26.44,93.22,93.22,0,0,0,35.51,39.56c1.83,1.2,3.77,2.18,5.65,3.24s3.85,2,5.83,2.77a95.52,95.52,0,0,0,12,4.32c2,.53,4,1.12,6,1.5,1,.21,2,.45,3,.63l3.07.49c2,.39,4,.52,6,.79s4,.32,6,.36a97.33,97.33,0,0,0,74.22-31.08,92.5,92.5,0,0,0,9.77-12.56,84.88,84.88,0,0,0,6.48-11.86,91.51,91.51,0,0,0,6-18c.54-2.13.76-3.8,1-4.91Z"/><path class="cls-10" d="M251.11,165.83C243.36,218,194.67,254,142.32,246.27S53.84,190,61.58,137.91,118,49.75,170.36,57.46,258.85,113.69,251.11,165.83Z"/><path class="cls-11" d="M251.27,165.86l-.29,1.7c-.21,1.11-.41,2.78-.93,4.93a90.27,90.27,0,0,1-5.84,18.13,98.1,98.1,0,0,1-15.76,25.09,96.32,96.32,0,0,1-30.58,23.53,99.69,99.69,0,0,1-21,7.28,94,94,0,0,1-23.73,2.06,95.61,95.61,0,0,1-48.44-15.35A98.68,98.68,0,0,1,69.2,192.64,95.86,95.86,0,0,1,61,166a101.64,101.64,0,0,1-1.17-14.06,108.37,108.37,0,0,1,.9-14.14,106.48,106.48,0,0,1,3-13.85,98.93,98.93,0,0,1,4.95-13.28,96.61,96.61,0,0,1,61.69-52.29,93.82,93.82,0,0,1,26.1-3.55c2.16.06,4.31.05,6.44.25,1,.08,2.11.13,3.17.25s2.1.27,3.15.39c2.19.24,4.12.68,6.16,1s4.11.87,6.08,1.42a95,95,0,0,1,22.12,8.94,99.38,99.38,0,0,1,18,13.11,96.35,96.35,0,0,1,22.4,31.37,98,98,0,0,1,7.79,28.58,91.27,91.27,0,0,1,.31,19c-.13,2.2-.42,3.86-.55,5S251.27,165.86,251.27,165.86Zm-.32-.05s.08-.58.2-1.71.39-2.79.49-5a90,90,0,0,0-.54-18.93A82.73,82.73,0,0,0,248.33,127a90.66,90.66,0,0,0-5.69-14.83,96.27,96.27,0,0,0-62-50.91c-1.91-.53-3.85-.9-5.8-1.34l-3-.52-1.52-.27-1.48-.18-3-.37c-1-.1-2.05-.15-3.08-.23-2.06-.18-4.14-.17-6.22-.22a92.53,92.53,0,0,0-12.6.86c-2.11.23-4.2.68-6.32,1s-4.22.88-6.29,1.5a95,95,0,0,0-68.77,76.57,104.88,104.88,0,0,0-1.15,13.85,97.59,97.59,0,0,0,.88,13.89,95.36,95.36,0,0,0,7.92,26.44,93.22,93.22,0,0,0,35.51,39.56c1.83,1.2,3.77,2.18,5.65,3.24s3.85,2,5.83,2.77a95.52,95.52,0,0,0,12,4.32c2,.53,4,1.12,6,1.5,1,.21,2,.45,3,.63l3.07.49c2,.39,4,.52,6,.79s4,.32,6,.36a97.33,97.33,0,0,0,74.22-31.08,92.5,92.5,0,0,0,9.77-12.56,84.88,84.88,0,0,0,6.48-11.86,91.51,91.51,0,0,0,6-18c.54-2.13.76-3.8,1-4.91Z"/><path class="cls-12" d="M85,98.45A141,141,0,0,0,97.55,86.18a42.1,42.1,0,0,0,6.7-9.47,30.24,30.24,0,0,0,2.51-6.49,95.81,95.81,0,0,0-34.92,36.67C76.76,105.75,81.85,101.2,85,98.45Z"/><path class="cls-13" d="M77.84,117A183.88,183.88,0,0,0,98,101c6.66-6,13.4-11.88,19.42-18.49S130,68.21,132.62,59.42a95.77,95.77,0,0,0-23.93,9.7c-.8,5.26-5.23,12.91-7.52,15.54a125.62,125.62,0,0,1-18.24,17.7c-3.33,2.54-7.67,5.85-12.14,6.59a95.93,95.93,0,0,0-6,15C69.69,122.46,74.73,119,77.84,117Z"/><path class="cls-14" d="M105.35,108.71c9.51-8.72,18.67-18,25.77-28.88,3.09-4.7,5.85-9.63,8.55-14.57a55.6,55.6,0,0,0,3.82-8q-4.49.6-8.84,1.62c-2.36,8.45-8.22,16.1-13.9,22.48a261.83,261.83,0,0,1-22.83,22c-7.88,6.92-16.16,14-25.49,18.88a45.24,45.24,0,0,1-8.24,3.59,94.55,94.55,0,0,0-2.61,12.06c0,.14,0,.28,0,.42C77.21,130.11,92.22,120.76,105.35,108.71Z"/><path class="cls-13" d="M71.18,154.48c13-8.67,25.65-17.64,36.94-28.54a188,188,0,0,0,32-40A159,159,0,0,0,151,63.71c.94-2.37,1.88-4.78,2.76-7.2h-.62c-2.56,5.27-5.49,10.39-8.19,15.44-7.33,13.72-15.34,27.45-26.14,38.8a189.16,189.16,0,0,1-36.64,29.63c-6.4,4-12.91,8.24-19.59,11.79-.66.35-1.31.68-2,1,0,2.71.19,5.39.45,8.06C64.49,159,67.86,156.68,71.18,154.48Z"/><path class="cls-15" d="M170.36,57.46c-1.07-.15-2.12-.28-3.18-.4-.4,1.16-.84,2.29-1.31,3.4-3,7.16-6.57,14.21-10.21,21.08-9.25,17.42-20.17,33.84-34,48a189.66,189.66,0,0,1-47.25,34.84c-3.78,2-7.82,4-12,5.74l0,.16c1.88-.83,3.74-1.7,5.55-2.51,8.5-3.86,17-7.71,25.07-12.34,15.52-8.86,30.3-19.39,42.51-32.5,12.8-13.76,24-29.38,31.51-46.68a184.08,184.08,0,0,0,7.26-18.09C173,57.9,171.69,57.66,170.36,57.46Z"/><path class="cls-12" d="M76.12,161.45c15.46-8.85,30.52-19,43-31.75A199.75,199.75,0,0,0,151.28,86c3.86-7,7.54-14.21,10.89-21.5,1.09-2.38,2.26-4.95,3.18-7.58-3.25-.3-6.48-.43-9.69-.41-.48,1.36-1,2.72-1.5,4.07A170.37,170.37,0,0,1,143.75,83.2a189.86,189.86,0,0,1-33,42.6C98.39,137.71,84.8,147.45,70.58,157c-3,2-6.14,4.14-9.31,6.18.21,1.78.5,3.54.8,5.29A124.24,124.24,0,0,0,76.12,161.45Z"/><path class="cls-16" d="M139.41,131.91c12.17-11.6,23.09-24.57,29.93-40a151.14,151.14,0,0,0,7.64-23c.82-3.1,1.71-6.35,2.26-9.62-1.06-.27-2.11-.53-3.19-.76a169.39,169.39,0,0,1-6.38,16.2,170.65,170.65,0,0,1-32.91,49.42c-13.79,14.52-30.34,26.34-48,35.67C80.52,164.1,72.1,168,63.59,171.67l-.81.36c.31,1.44.66,2.86,1,4.27A192.69,192.69,0,0,0,139.41,131.91Z"/><path class="cls-12" d="M185.38,60.94c-1.43-.45-2.87-.86-4.32-1.25-.29,1.6-.65,3.2-1.05,4.77-2.18,8.77-4.37,17.58-8,25.87-7,15.91-17.45,29.53-30,41.53a199.16,199.16,0,0,1-77.62,46.19c.7,2.47,1.51,4.91,2.41,7.3.9-.29,1.81-.6,2.7-.91a195.78,195.78,0,0,0,30.26-13.18,195.38,195.38,0,0,0,46.4-36.51C163.65,116.19,185.71,88.43,185.38,60.94Z"/><path class="cls-16" d="M114.63,212.12a311.62,311.62,0,0,0,57.27-32.41c27.42-19.87,54.57-44.63,66.79-76.53-1.43-2.41-3-4.76-4.61-7-2.93,4.35-6,8.43-8.83,12.11-14.6,18.79-32.2,35.23-51,49.84a258.86,258.86,0,0,1-23.13,16,271.61,271.61,0,0,1-52.6,33c-4.71,2.24-9.76,4.58-15,6.71a95.29,95.29,0,0,0,7.7,8C99.24,218.8,107.06,215.46,114.63,212.12Z"/><path class="cls-14" d="M195,183.63c16.34-15.19,31.1-32.4,42-51.92,2.65-4.73,5.57-9.76,8.32-15a93.62,93.62,0,0,0-5.51-11.52c-12.49,31-38.75,55.49-65.61,75A315.56,315.56,0,0,1,114.89,214c-7.22,3.13-14.63,6.29-22.19,9.13a96.35,96.35,0,0,0,10.37,8A193.73,193.73,0,0,0,195,183.63Z"/><path class="cls-17" d="M158.13,247.27a158.85,158.85,0,0,0,18.8-9.34,206.66,206.66,0,0,0,44.43-35.63c12.2-12.81,23-27.3,30.51-43.38a94.07,94.07,0,0,0-.76-21c-9.55,22.21-24.45,42.72-39.78,59.65a188.5,188.5,0,0,1-52.84,41c-5.15,2.66-10.65,5.32-16.35,7.66l.18,0A96.3,96.3,0,0,0,158.13,247.27Z"/><path class="cls-15" d="M222.59,203.5c-14.73,15.14-31.15,28.86-49.91,38.82-2.78,1.47-5.81,3.09-9,4.69a95.66,95.66,0,0,0,87.43-81.18c.1-.69.17-1.37.27-2.06A167.2,167.2,0,0,1,222.59,203.5Z"/><path class="cls-12" d="M161.29,235.1a187.61,187.61,0,0,0,48.81-38.72c15.71-17.57,31.09-38.81,40.45-61.8a95,95,0,0,0-4.41-15.89c-1.9,3.56-3.83,7-5.66,10.38a215.8,215.8,0,0,1-42.84,54.45,199.83,199.83,0,0,1-92.35,49A94.88,94.88,0,0,0,139,245.69,174.73,174.73,0,0,0,161.29,235.1Z"/><path class="cls-16" d="M172,157.73c18.38-14.31,36.16-30.21,50.48-48.65,3.38-4.33,7.05-9.2,10.53-14.4a96.05,96.05,0,0,0-15.26-16,49.46,49.46,0,0,1-1.49,9.23,111.75,111.75,0,0,1-13.69,30.26c-11,17.41-25,33.12-40.48,46.8C165.43,162.62,168.75,160.24,172,157.73Z"/><path class="cls-15" d="M87.07,203.27c8.83-4,17.82-7.64,26.67-11.61a331.63,331.63,0,0,0,36.55-19c1.52-1.22,3-2.44,4.53-3.69,16.56-14,32.23-30,44-48.24,6.19-9.58,12.06-20.06,15-31.16A57.53,57.53,0,0,0,215.7,77a93.64,93.64,0,0,0-12.51-8.36c-1.1,11.77-7.14,24.1-12.41,33-11.28,19.11-26.87,34.6-43.85,48.72A348.91,348.91,0,0,1,90.3,188.51c-6,3.24-11.87,6.33-18,9a94.6,94.6,0,0,0,6,9.51C81.34,205.87,84.26,204.55,87.07,203.27Z"/><path class="cls-12" d="M112.23,194.28c-9.81,4.31-19.6,8.74-29.48,12.84l-3.38,1.36q1.45,2,3,3.88c5.58-2.24,10.94-4.74,15.91-7.14a278.3,278.3,0,0,0,41.15-24.36Q126.17,188.18,112.23,194.28Z"/><path class="cls-16" d="M96.46,183.06a347.43,347.43,0,0,0,50.79-35.15c15.14-12.75,29.57-26.68,40-43.67,5.92-9.69,13.39-23.61,14.14-36.57a95,95,0,0,0-14-6.07c-.32,27.75-22.22,55.72-40,74.34-14.74,15.4-31.41,28.94-50.42,38.79a189.69,189.69,0,0,1-29.5,12.34,96.34,96.34,0,0,0,4.15,9A241.52,241.52,0,0,0,96.46,183.06Z"/><path class="cls-18" d="M68.84,146.35c5.83-3.59,11.81-6.92,17.49-10.76,11.74-7.94,23.15-16.84,32.57-27.48C128.74,97,136.41,84.3,143.33,71.22c2.55-4.8,5.31-9.64,7.76-14.61-1.81.1-3.63.24-5.42.44-2,6.78-6.75,13.5-9.93,18.72-7.18,11.81-16.32,22.2-26.43,31.61-14.49,13.47-30.81,23.87-48,33a98,98,0,0,0-.69,10.89C63.43,149.78,66.15,148,68.84,146.35Z"/><g class="cls-19"><path class="cls-20" d="M250.91,165.8c-7.74,52.13-56.45,88.15-108.77,80.44S53.64,190,61.38,137.88s56.45-88.16,108.78-80.44S258.66,113.67,250.91,165.8Z"/></g><g class="cls-21"><path class="cls-22" d="M200,75.15c-9.75-8.47-13.31-13.14-33.81-16.31-23.8-3.69-50.6,4.1-69.66,19.39a93.16,93.16,0,0,0-29.18,40.56,86.53,86.53,0,0,0-5.13,24.26c-.85,15.86,3,31.75,8.51,46.52a44.89,44.89,0,0,0,12.92,19.08A90.15,90.15,0,0,0,94,204.77C92,194,97,183.59,100.68,173.41c2.55-7,5.69-14.08,3.43-21.58-2.4-7.92-13.32-7-18-12.45-4.28-5.09,2.29-14.22,5.33-18.09,6.1-7.79,12.53-9.63,21.83-6.88,16.72,4.94,19.21-20.47,33.33-21,4.42-.16,8.05,4.17,11.69,6.06a15.94,15.94,0,0,0,9.94,1.82c3.27-.31,6.51-3.29,8.86-5.3A85.92,85.92,0,0,1,192,85.78c2-1.12,5.78-2.61,8.14-4.41A28.23,28.23,0,0,0,200,75.15Z"/></g><path class="cls-23" d="M291.29,52.06c-13.4-11.66-37.47-1.19-51.21,4.64a243.42,243.42,0,0,0-29.19,14.54,29.39,29.39,0,0,1,5.92,4.91c1.42,1.42,2.76,2.88,4.08,4.37,9.18-3.9,18.4-7.79,27.9-10.88,5.84-.84,12.86-.42,10.83,7.2-2.31,8.64-7.13,16.31-12.19,23.58-11.88,17.06-28.64,31.39-44.56,44.63a372.08,372.08,0,0,1-53.46,36.55C124.3,196,96.72,209.2,68.32,215.82c-4.63,1.08-20.6,5.25-22.15-2-1.86-8.66,5.26-18.83,10-25.32,2.62-3.56,5.24-7.07,7.87-10.57a49.92,49.92,0,0,1-2.4-11,230.43,230.43,0,0,0-19,14.55c-9.7,8.28-21.39,17.46-29.39,27.36-5.64,7-9.45,14.5-9.77,25.42a20.3,20.3,0,0,0,6.91,11.21c15.57,13.3,41.36,5.91,59.1,1.45,44.7-11.25,86-36,123-62.72,28.48-20.58,55.44-43.66,78.1-70.57C280.75,101.61,309.18,67.67,291.29,52.06Z"/><path class="cls-24" d="M30.47,214.69c3.08-17.51,17.48-30.56,32.26-41.55-.13-.56-.23-1.13-.34-1.7-2.94,2.44-5.76,5-8.6,7.39-7.22,6-14.21,12.23-20.26,19.44-5.73,6.84-14.58,16.52-14.72,26C18.7,231.6,24,236.66,31,238.21c8.85,2,18.54.58,27.38-1a192.62,192.62,0,0,0,29-7.46c19-6.49,37.16-15.07,54.74-24.67C193.3,177.12,245,143.85,275,92.46c4.36-7.45,13.27-21.22,9.2-30.29-5.08-11.32-23.84-2.77-31.68.6q-3.59,1.53-7.2,3a63.11,63.11,0,0,1,13.34-2.26c11.45-.58,17.31,7,13.56,17.64-4.86,13.76-15.41,25.76-25,36.53a383.58,383.58,0,0,1-27.95,28.51c-20.1,18.35-44.07,33.89-67.79,47.14C125.29,208,96.1,222,66.24,227.11,56.42,228.79,27.33,232.66,30.47,214.69Z"/><path class="cls-25" d="M46.17,213.86c-1.86-8.66,5.26-18.83,10-25.32,2.62-3.56,5.24-7.07,7.87-10.57-.35-1-.64-2-.91-3C51.52,183.7,40.49,193.58,35,206.64c-3,7-4.61,15.45,4.27,18.45,6.51,2.2,13.8,1.83,20.52,1,21-2.51,41.88-10.56,61-19.22a405.32,405.32,0,0,0,63.58-36.15c29.26-20.28,57.51-44.7,77.63-74.36C267,89,279.61,69.2,263.55,66c-13.82-2.77-29.66,5.76-42.4,10.29L218,77.39q1.49,1.55,2.89,3.13c9.18-3.9,18.4-7.79,27.9-10.88,5.84-.84,12.86-.42,10.83,7.2-2.31,8.64-7.13,16.31-12.19,23.58-11.88,17.06-28.64,31.39-44.56,44.63a372.08,372.08,0,0,1-53.46,36.55C124.3,196,96.72,209.2,68.32,215.82,63.69,216.9,47.72,221.07,46.17,213.86Z"/><path class="cls-25" d="M268.28,50.18S297.44,43.31,293.43,73c0,0-1.91,16.46-39.58,56.36,0,0,36-38.23,37.31-57.23S278.46,50.55,268.28,50.18Z"/><path class="cls-26" d="M61.69,166.94l-9.29,6.8c-1.51,1.17-3,2.4-4.47,3.61L43.47,181c-1.48,1.21-2.92,2.49-4.38,3.72l-4.37,3.73c-2.91,2.5-5.82,5-8.64,7.59-1.42,1.29-2.81,2.59-4.17,3.94s-2.7,2.7-4,4.1-2.53,2.86-3.78,4.3c-.63.71-1.18,1.48-1.77,2.24s-1.13,1.54-1.64,2.34a41.35,41.35,0,0,0-2.86,4.91c-.39.86-.81,1.71-1.17,2.58l-1,2.67a40.2,40.2,0,0,0-1.25,5.53,51,51,0,0,0-.55,5.65v-.1a19.71,19.71,0,0,0,8,11.81,31.07,31.07,0,0,0,13.37,5.73,55.41,55.41,0,0,0,14.73.55A114,114,0,0,0,54.62,250c4.84-1.05,9.64-2.3,14.47-3.53l14.3-4.18c2.41-.63,4.7-1.55,7-2.4l7-2.57c4.69-1.58,9.18-3.72,13.73-5.69l6.81-3,6.65-3.35c4.41-2.25,8.91-4.36,13.18-6.89s8.69-4.79,12.92-7.39l12.67-7.81,12.39-8.24c4.15-2.72,8.15-5.66,12.23-8.48,8.13-5.68,16.07-11.68,23.88-17.76,3.89-3.07,7.7-6.24,11.56-9.37s7.55-6.43,11.23-9.74c7.34-6.66,14.56-13.48,21.37-20.68l5.12-5.38,4.93-5.57c3.29-3.7,6.53-7.46,9.62-11.32,6.18-7.72,12-15.8,16.33-24.68a44.74,44.74,0,0,0,4.41-14,20.42,20.42,0,0,0-.32-7.23,15.53,15.53,0,0,0-3.21-6.41A9.69,9.69,0,0,0,291.66,53L291,52.4l-.71-.54a16.81,16.81,0,0,0-3.07-2L285.61,49l-1.74-.58a20.53,20.53,0,0,0-3.56-.86,40.78,40.78,0,0,0-14.68.6c-9.72,2-18.94,5.89-28.07,9.78a245.12,245.12,0,0,0-26.67,13.26,240.91,240.91,0,0,1,26.54-13.55c9.09-4,18.27-8,28.07-10.13a41.23,41.23,0,0,1,14.94-.75,21.2,21.2,0,0,1,3.68.88l1.8.6,1.72.86a16.92,16.92,0,0,1,3.16,2l.77.57.68.67a11.47,11.47,0,0,1,1.31,1.39A16.43,16.43,0,0,1,297,60.57a21.5,21.5,0,0,1,.36,7.54,45.43,45.43,0,0,1-4.45,14.27c-4.32,9-10.17,17.15-16.35,24.93-3.08,3.9-6.31,7.67-9.61,11.39L262,124.31l-5.11,5.43c-6.82,7.25-14,14.1-21.37,20.81-3.67,3.34-7.49,6.54-11.22,9.82s-7.66,6.34-11.56,9.43C204.9,176,197,182,188.87,187.7c-4.08,2.84-8.08,5.8-12.23,8.55l-12.46,8.21-12.73,7.8c-4.25,2.58-8.67,4.89-13,7.36s-8.82,4.62-13.26,6.87l-6.69,3.33-6.84,3c-4.59,2-9.1,4.09-13.84,5.67l-7,2.56c-2.35.84-4.67,1.77-7.08,2.39l-14.35,4.13c-4.82,1.21-9.64,2.45-14.52,3.48A113.91,113.91,0,0,1,40,253.29a57,57,0,0,1-15-.62,25.79,25.79,0,0,1-3.67-.88,24,24,0,0,1-3.56-1.28,21.43,21.43,0,0,1-3.39-1.69,20,20,0,0,1-3.12-2.1A21.85,21.85,0,0,1,6,241.32a21.25,21.25,0,0,1-3-6.95l0-.07v-.05a50.67,50.67,0,0,1,.58-5.75,39.09,39.09,0,0,1,1.31-5.64l1-2.73c.38-.89.82-1.76,1.21-2.64a42.4,42.4,0,0,1,3-5c.54-.81,1.1-1.59,1.7-2.33s1.15-1.54,1.8-2.26c1.28-1.43,2.49-2.93,3.86-4.28s2.66-2.77,4.08-4.07,2.79-2.64,4.21-3.91c2.86-2.57,5.79-5,8.73-7.51l4.42-3.69c1.47-1.22,2.92-2.48,4.42-3.67l4.5-3.59c1.51-1.18,3-2.41,4.52-3.57Z"/><g class="cls-27"><path class="cls-28" d="M167.55,188.51c-8.25,2.65-15.36,7.9-22.75,12.29q-11.9,7.09-24.31,13.3a199.55,199.55,0,0,1-54.8,17.64c-8.73,1.51-42.11,8.14-40.62-7.56.82-8.6,8.75-17.72,13.75-24.34C44.31,192.59,50,185.61,56,178.7c.93-1.09-.63-2-1.57-1.23-15.32,12.31-38.44,27-43.4,47.42-5.06,20.84,18.74,24,33.78,23.55,22.82-.75,44.13-9.3,64.69-18.33a347.34,347.34,0,0,0,32.11-16.38c9.76-5.57,20.92-11.12,28.65-19.41C172.42,192,171.62,187.2,167.55,188.51Z"/></g><path class="cls-29" d="M251.67,143.26l-.46-4c-.2-1.33-.42-2.65-.62-4a.08.08,0,0,1,0-.08c2.75-2.82,5.51-5.62,8.18-8.51q2-2.14,4-4.35c1.3-1.48,2.65-2.91,3.92-4.41,2.57-3,5.14-6,7.61-9s4.89-6.17,7.18-9.36a106,106,0,0,0,11.86-20.27,41.32,41.32,0,0,0,3.12-11.21,18.66,18.66,0,0,0-1.85-11.2,17.91,17.91,0,0,0-8.46-7.5,26.44,26.44,0,0,0-11.31-2.06c-7.82.19-15.44,2.49-22.78,5.19-3.68,1.37-7.3,2.9-10.92,4.46l-5.4,2.39c-1.81.78-3.61,1.58-5.37,2.43s-3.56,1.66-5.33,2.53L219.82,67c-1.77.86-3.45,1.88-5.17,2.83s-3.42,1.87-5.07,3a.59.59,0,0,1-.66,0h0l-2.2-1.39c-.75-.45-1.46-1-2.23-1.37-1.53-.83-3-1.76-4.57-2.51S196.8,66,195.18,65.3s-3.18-1.41-4.82-2l-2.45-.93-2.47-.8c-.84-.26-1.66-.58-2.5-.79l-2.53-.68c-1.67-.5-3.38-.79-5.08-1.19s-3.44-.63-5.17-.95h0l-3.08-.41.52-.28a.42.42,0,0,0,.05-.2l-.57.5-5.48-.49c-1.84-.05-3.66-.17-5.5-.17a98.13,98.13,0,0,0-11,.59c-1.81.24-3.64.41-5.44.77s-3.62.64-5.4,1.09l-2.68.63-2.64.77c-1.77.48-3.51,1.06-5.27,1.64a93.53,93.53,0,0,0-10.18,4.14c-1.65.81-3.27,1.67-4.88,2.53s-3.18,1.86-4.72,2.85A94.24,94.24,0,0,0,87,85.92a88.72,88.72,0,0,0-7.08,8.41q-1.64,2.22-3.15,4.51l-2.93,4.67c-.88,1.6-1.78,3.19-2.64,4.81s-1.63,3.29-2.36,5A96,96,0,0,0,61,145.09,94.53,94.53,0,0,0,62,167a.4.4,0,0,1-.18.42c-3.52,2.48-7,5-10.41,7.64s-6.7,5.39-10,8.19l-9.84,8.39c-3.24,2.83-6.47,5.66-9.52,8.68a102.09,102.09,0,0,0-8.68,9.46,54.89,54.89,0,0,0-6.64,10.85c-1.72,3.84-3.08,8-2.77,12.1a19.12,19.12,0,0,0,5.46,10.9,28.26,28.26,0,0,0,10.64,6.55,41.3,41.3,0,0,0,12.5,2.13c8.54.24,17.06-1.33,25.43-3.27,4.18-1,8.37-2.05,12.54-3.13s8.3-2.28,12.4-3.57c8.21-2.6,16.26-5.66,24.19-9a.81.81,0,0,1,.68,0h0a96.15,96.15,0,0,0,10.48,5.3,90.25,90.25,0,0,0,11,4c1.9.52,3.78,1.08,5.71,1.47s3.83.8,5.76,1.12l1.49.26,1.41.17,3,.35c1.94.16,3.87.36,5.85.43s3.9.07,5.89.08,3.9-.11,5.86-.28a95.34,95.34,0,0,0,11.66-1.63,100,100,0,0,0,11.35-3.07c1.89-.68,3.7-1.29,5.52-2.08l2.73-1.14,2.66-1.26A92.91,92.91,0,0,0,218,224.33c1.48-1.27,3-2.55,4.39-3.92s2.85-2.74,4.15-4.2a87.1,87.1,0,0,0,7.51-9.07,101.92,101.92,0,0,0,6.32-9.95,93.93,93.93,0,0,0,5-10.66A92.28,92.28,0,0,0,249,175.32a96.45,96.45,0,0,0,2.24-11.57l.29.09v0a.15.15,0,0,1-.22.06.16.16,0,0,1-.08-.15l.52-4.81a.07.07,0,0,1,0-.05l0-.06v0l.19-3.91c.08-1.3.07-2.61.06-3.91s0-2.61-.09-3.92Zm.15,0,.27,3.92c.12,1.3.1,2.61.12,3.92s0,2.61,0,3.92l-.16,3.92,0,0,0,.06v0l-.48,4.83-.29-.09,0,0a.15.15,0,0,1,.21-.07.15.15,0,0,1,.08.16,100,100,0,0,1-2.16,11.63,97.51,97.51,0,0,1-8.53,22.06,100.37,100.37,0,0,1-6.27,10.05,88.13,88.13,0,0,1-7.51,9.2c-1.31,1.5-2.73,2.86-4.14,4.26s-2.9,2.69-4.39,4a106.72,106.72,0,0,1-9.49,7.12A99.53,99.53,0,0,1,198.67,238L196,239.34l-2.73,1.16c-1.8.81-3.71,1.48-5.54,2.16a102.77,102.77,0,0,1-11.5,3.22,97.63,97.63,0,0,1-11.8,1.77c-2,.19-4,.26-6,.34s-4,.07-6,0-4-.21-6-.39l-2.94-.36L142,247l-1.43-.25c-2-.33-3.93-.67-5.87-1.15s-3.86-1-5.78-1.49a90.62,90.62,0,0,1-11.23-4.07A96.78,96.78,0,0,1,107,234.67l.7.05c-8,3.35-16.07,6.42-24.34,9-4.12,1.3-8.31,2.52-12.48,3.58s-8.36,2.15-12.58,3.13c-8.43,1.93-17.06,3.53-25.81,3.28a42.86,42.86,0,0,1-12.93-2.22A29.55,29.55,0,0,1,8.41,244.6a20.3,20.3,0,0,1-5.86-11.79C2.22,228.26,3.68,224,5.47,220a55.81,55.81,0,0,1,6.88-11.09,106.52,106.52,0,0,1,8.86-9.52c3.09-3,6.36-5.85,9.63-8.67l9.89-8.32c3.3-2.78,6.65-5.54,10.08-8.15s6.95-5.14,10.5-7.6l-.19.43a106.86,106.86,0,0,1-1.09-11A104.48,104.48,0,0,1,60.22,145a96.77,96.77,0,0,1,8.08-32c.74-1.68,1.6-3.32,2.4-5s1.79-3.23,2.69-4.84l3-4.66c1-1.53,2.08-3,3.19-4.52a100.67,100.67,0,0,1,7.12-8.45A95.49,95.49,0,0,1,103.6,71.4q2.34-1.52,4.73-2.88c1.64-.89,3.26-1.76,4.91-2.6A97.4,97.4,0,0,1,123.5,61.7c1.74-.59,3.49-1.19,5.27-1.69l2.66-.79,2.7-.65c1.79-.47,3.61-.8,5.44-1.13s3.65-.56,5.49-.81A100,100,0,0,1,156.15,56c1.84,0,3.7.1,5.55.14l5.53.47-.56.5a.64.64,0,0,1,.05-.23.52.52,0,0,1,.52-.28l1.54.19.78.1.38,0,.2,0,.16,0h0c1.73.31,3.45.53,5.19.92s3.47.69,5.16,1.18l2.56.67c.85.21,1.68.52,2.52.78l2.52.81,2.48.92c1.66.59,3.28,1.28,4.89,2s3.2,1.5,4.78,2.27,3.1,1.69,4.65,2.52c.78.41,1.5.92,2.26,1.37l2.25,1.4h-.7c1.62-1.11,3.42-2.06,5.11-3s3.41-2,5.19-2.88l5.26-2.74c1.77-.88,3.56-1.71,5.34-2.57,3.56-1.75,7.19-3.24,10.82-4.83s7.3-3,11-4.39c7.43-2.67,15.18-4.95,23.21-5.08a27.47,27.47,0,0,1,11.75,2.24,18.87,18.87,0,0,1,8.84,8,19.49,19.49,0,0,1,1.86,11.71A41.65,41.65,0,0,1,294,79.58a106.22,106.22,0,0,1-12.14,20.26c-4.7,6.34-9.76,12.37-14.95,18.3-1.28,1.5-2.63,2.93-3.94,4.4s-2.65,2.92-4,4.34c-2.67,2.88-5.45,5.67-8.22,8.48l0-.08c.2,1.32.41,2.65.61,4Z"/><path class="cls-29" d="M220.89,80.52c2.21,1.89,4.31,3.91,6.35,6s4,4.23,5.84,6.51c.46.56.9,1.14,1.35,1.71s.89,1.16,1.32,1.76c.86,1.16,1.67,2.39,2.46,3.63.4.6.75,1.25,1.13,1.88a21.3,21.3,0,0,1,1,1.94c.32.67.7,1.3,1,2l.83,2.06-1.13-.23a117.52,117.52,0,0,0,12.32-16.49,56.79,56.79,0,0,0,4.58-9.12,24.06,24.06,0,0,0,1.26-4.85,10.29,10.29,0,0,0-.3-4.77c-.47-1.3-2-2-3.63-2.13a19.56,19.56,0,0,0-5,.21,64.87,64.87,0,0,0-10,2.53c-3.29,1.07-6.53,2.29-9.76,3.53Zm0,0c6.26-3,12.53-6,19.09-8.29a65.37,65.37,0,0,1,10.09-2.86,18.4,18.4,0,0,1,5.36-.32,7.64,7.64,0,0,1,2.74.75,4.67,4.67,0,0,1,1.21.92,3,3,0,0,1,.5.65,2.37,2.37,0,0,1,.35.66,11.85,11.85,0,0,1,.43,5.46,24.64,24.64,0,0,1-1.3,5.17,50.34,50.34,0,0,1-4.68,9.41c-1.83,3-3.85,5.81-6,8.58s-4.33,5.43-6.69,8a.68.68,0,0,1-.95,0,.88.88,0,0,1-.18-.25v0l-.76-2c-.23-.67-.58-1.3-.87-2a17.19,17.19,0,0,0-1-1.92c-.35-.63-.68-1.27-1.05-1.89-.74-1.22-1.5-2.45-2.32-3.63-.4-.6-.82-1.19-1.25-1.77s-.84-1.17-1.29-1.74A126.67,126.67,0,0,0,220.89,80.52Z"/><path class="cls-29" d="M64.09,178c.55,1.53,1.12,3,1.73,4.53s1.21,3,1.89,4.45l1,2.21c.32.74.71,1.45,1.06,2.17.74,1.43,1.39,2.91,2.17,4.32l2.36,4.21c.77,1.4,1.72,2.71,2.58,4.07l1.32,2c.43.67,1,1.27,1.45,1.91l2.94,3.81v0a.69.69,0,0,1-.12,1,.77.77,0,0,1-.18.1c-3.15,1.18-6.32,2.21-9.55,3.15a95.24,95.24,0,0,1-9.82,2.29,37.45,37.45,0,0,1-10.16.51,11.73,11.73,0,0,1-5-1.6,7,7,0,0,1-1.07-.9,4.74,4.74,0,0,1-.52-.55l-.34-.52a6.58,6.58,0,0,1-.92-2.62,13.69,13.69,0,0,1,.39-5.2,28.07,28.07,0,0,1,1.7-4.79,66,66,0,0,1,4.83-8.81,99.35,99.35,0,0,1,5.8-8.15A94.2,94.2,0,0,1,64.09,178Zm0,0a135.38,135.38,0,0,0-11.5,16.23A65.69,65.69,0,0,0,48.08,203a33.8,33.8,0,0,0-1.51,4.63,12.43,12.43,0,0,0-.32,4.68,6.54,6.54,0,0,0,.26,1.08,5.54,5.54,0,0,0,.46,1l.35.51.34.35a5.23,5.23,0,0,0,.85.69,10.44,10.44,0,0,0,4.42,1.34,37.24,37.24,0,0,0,9.74-.59,113,113,0,0,0,19.13-5.18l-.28,1.09-3-3.91c-.47-.66-1-1.29-1.42-2l-1.27-2.08c-.84-1.4-1.76-2.74-2.5-4.19l-2.25-4.32c-.39-.71-.7-1.46-1.05-2.2l-1-2.21c-.31-.75-.67-1.48-.95-2.24l-.89-2.26c-.62-1.49-1.15-3-1.69-4.55S64.54,179.52,64.09,178Z"/><path class="cls-29" d="M82.05,212.1l2-.71c1.33-.47,3.27-1.2,5.73-2.13s5.43-2.13,8.82-3.5,7.2-3,11.31-4.88l6.41-2.88q3.28-1.59,6.78-3.25c2.35-1.1,4.71-2.3,7.12-3.55l7.39-3.77,7.52-4.11c2.55-1.39,5.15-2.76,7.66-4.31,5.07-3,10.3-6,15.28-9.34l7.59-4.84c2.48-1.67,4.9-3.41,7.33-5.09s4.84-3.35,7.17-5.06,4.56-3.52,6.78-5.24,4.44-3.39,6.56-5.08l6-5.13,5.74-4.86c1.85-1.57,3.48-3.25,5.13-4.79,3.27-3.08,6.27-5.93,8.93-8.44,2.5-2.68,4.68-5,6.48-6.92l5.68-6-5.45,6.21-6.29,7.11c-2.56,2.62-5.51,5.52-8.73,8.69-1.62,1.56-3.24,3.29-5.06,4.9l-5.66,5-6,5.26c-2.08,1.75-4.32,3.4-6.53,5.16l-6.78,5.29c-2.33,1.74-4.76,3.4-7.17,5.13s-4.85,3.46-7.33,5.15L169,171c-5,3.32-10.29,6.27-15.4,9.29-2.54,1.53-5.16,2.89-7.7,4.28l-7.58,4.07c-5.07,2.51-9.92,5-14.65,7.14l-6.86,3.13-6.48,2.78c-4.13,1.82-8,3.25-11.44,4.61s-6.45,2.4-8.94,3.24-4.46,1.51-5.81,1.93Z"/><path class="cls-30" d="M98.43,77.2s-60,50.21-22.36,117.07C76.07,194.27,47.13,129.61,98.43,77.2Z"/><path class="cls-31" d="M249.3,156.23s-16.43,68.85-72.48,85.28C176.82,241.51,236.61,235.24,249.3,156.23Z"/></g></g></svg>