<svg xmlns="http://www.w3.org/2000/svg" xmlns:xlink="http://www.w3.org/1999/xlink" viewBox="0 0 300 300"><defs><style>.cls-1{isolation:isolate;}.cls-2{fill:#ff5e1b;}.cls-3{fill:#7c0d0e;}.cls-4{fill:#bf4b18;}.cls-4,.cls-5,.cls-6,.cls-8{mix-blend-mode:multiply;}.cls-5{fill:#e82225;}.cls-6{fill:url(#radial-gradient);}.cls-7{fill:#fff;}.cls-8{fill:#3b0300;opacity:0.7;}.cls-11,.cls-9{fill:#ef4928;}.cls-10,.cls-13,.cls-9{mix-blend-mode:screen;}.cls-12{mask:url(#mask);}.cls-13{fill:url(#radial-gradient-2);}.cls-14{filter:url(#luminosity-noclip);}</style><radialGradient id="radial-gradient" cx="99.45" cy="126.53" r="177.1" gradientTransform="translate(-7.72 -15.57) scale(1 0.99)" gradientUnits="userSpaceOnUse"><stop offset="0" stop-color="#fff"/><stop offset="0.37" stop-color="#fefdfd"/><stop offset="0.51" stop-color="#faf7f6"/><stop offset="0.6" stop-color="#f4ebeb"/><stop offset="0.68" stop-color="#eadbda"/><stop offset="0.75" stop-color="#dec6c4"/><stop offset="0.8" stop-color="#cfaca8"/><stop offset="0.86" stop-color="#bd8d88"/><stop offset="0.91" stop-color="#a86862"/><stop offset="0.95" stop-color="#903f37"/><stop offset="0.99" stop-color="#771309"/><stop offset="1" stop-color="#720a00"/></radialGradient><filter id="luminosity-noclip" x="-1543.35" y="28.85" width="1768.96" height="659.76" filterUnits="userSpaceOnUse" color-interpolation-filters="sRGB"><feFlood flood-color="#fff" result="bg"/><feBlend in="SourceGraphic" in2="bg"/></filter><mask id="mask" x="-1543.35" y="28.85" width="1768.96" height="659.76" maskUnits="userSpaceOnUse"><g class="cls-14"/></mask><radialGradient id="radial-gradient-2" cx="198.7" cy="214.4" r="179.32" gradientTransform="translate(-7.72 -15.57) scale(1 0.99)" gradientUnits="userSpaceOnUse"><stop offset="0" stop-color="#2b2b2b"/><stop offset="0.24" stop-color="#2e2d2c"/><stop offset="0.38" stop-color="#363230"/><stop offset="0.5" stop-color="#443c37"/><stop offset="0.61" stop-color="#594a40"/><stop offset="0.71" stop-color="#735b4c"/><stop offset="0.8" stop-color="#94715b"/><stop offset="0.88" stop-color="#bb8b6d"/><stop offset="0.96" stop-color="#e6a881"/><stop offset="0.99" stop-color="#f9b48a"/></radialGradient></defs><g class="cls-1"><g id="Layer_1" data-name="Layer 1"><path class="cls-2" d="M274.8,149.9c0,68.4-55.67,123.86-124.33,123.86S26.11,218.3,26.11,149.9,81.78,26,150.47,26,274.8,81.49,274.8,149.9Z"/><path class="cls-3" d="M275,149.9s0,.76,0,2.23,0,3.66-.26,6.51a118,118,0,0,1-4,24.4,126.83,126.83,0,0,1-15.46,35.19,124.79,124.79,0,0,1-34.77,36,129.27,129.27,0,0,1-25.6,13.34,121.91,121.91,0,0,1-30.1,7.13,124.11,124.11,0,0,1-65.1-10.54,128.38,128.38,0,0,1-53.31-45.4A127.21,127.21,0,0,1,26.54,168.2a126.06,126.06,0,0,1-.4-36.66,129.5,129.5,0,0,1,3.84-18A125.07,125.07,0,0,1,99.21,34.72,122.32,122.32,0,0,1,132,25.23c2.8-.33,5.56-.75,8.32-.89,1.37-.09,2.76-.23,4.13-.28l4.1-.1c2.88-.11,5.41.1,8.12.12,2.7.23,5.43.35,8.08.69a122.86,122.86,0,0,1,30.1,7.3,129.21,129.21,0,0,1,25.6,13.42,125.24,125.24,0,0,1,34.75,36,127.1,127.1,0,0,1,15.46,35.22,117.55,117.55,0,0,1,4,24.4c.26,2.84.2,5,.26,6.51S275,149.9,275,149.9Zm-.4,0s0-.77-.08-2.23,0-3.65-.32-6.49A117.9,117.9,0,0,0,269.9,117a109.67,109.67,0,0,0-6.06-16.46,119.52,119.52,0,0,0-10.14-18,125.18,125.18,0,0,0-89.39-53.63c-2.56-.32-5.13-.43-7.72-.63l-4-.1-2-.05-1.9.05-4,.11c-1.34.05-2.68.19-4,.28-2.67.15-5.35.56-8,.89a119.36,119.36,0,0,0-16,3.49c-2.68.7-5.27,1.67-8,2.52-2.59,1-5.24,1.92-7.77,3.12a123.15,123.15,0,0,0-73.7,111.32,136.16,136.16,0,0,0,1.17,18,128.11,128.11,0,0,0,3.76,17.66A123.5,123.5,0,0,0,47.41,218a121.2,121.2,0,0,0,53.11,44.08c2.59,1.19,5.27,2.07,7.89,3.09,2.68.83,5.3,1.78,8,2.45a120.82,120.82,0,0,0,16.18,3.28c2.7.3,5.38.68,8.06.79,1.33.07,2.64.2,4,.23l4.05.06c2.62.11,5.26-.1,7.88-.14,2.62-.22,5.21-.34,7.78-.67a126.88,126.88,0,0,0,54.3-19.66,125.5,125.5,0,0,0,35.09-34.29,120,120,0,0,0,10.14-18,109.85,109.85,0,0,0,6.06-16.48,118.16,118.16,0,0,0,4.27-24.2c.29-2.83.26-5,.32-6.5S274.6,149.9,274.6,149.9Z"/><path class="cls-4" d="M74.58,248a124.33,124.33,0,0,0,24.83,14.87c5-.1,9.48-1.24,12-3.62,12.33-11.81-17.2-27.33-3.36-38,7.69-5.88,19.88-4.37,28.9-4.21,6.87.12,29.28,2.56,28.37-9.05-.46-6.2-4-13.41-8.89-17.3-4.1-3.26-9.34-5.58-12.78-9.61-7-8.17-3.36-21,5.89-25.9,6.67-3.52,15.55-5,20.31-11.32a17.67,17.67,0,0,0-.94-22.43c-6.18-7-17-9.9-25.35-4.72-6.38,3.92-10.25,10.16-15.55,15.21-11.36,10.8-24.69,3.14-38.47,6.66-9,2.3-19.76,14.82-12.07,23.86,4,4.69,7.31,8.63,9.42,14.56,4,11.46,4.5,29.25-8.28,36.05-4.28,2.28-22.3,7.42-25.63,13.62C58.72,234,70.76,246.18,74.58,248Z"/><path class="cls-4" d="M236.24,60.27A8,8,0,0,0,231.6,65c-5.38,14.31,7.89,25.73,13.56,37.33,3.81,7.81,1.36,21.66-8.92,23.52-6.23,1.12-12.81-2.43-18.88-.56-8.71,2.7-13.61,9.94-14,18.92-.4,9.16,5.81,35.58,20.05,27.29,8-4.66,13.81-12.88,22.67-16.19,8.62-3.23,20-2.41,26.48,4.71.57.62,1.11,1.27,1.62,1.93a121,121,0,0,0,.63-12.09A123.35,123.35,0,0,0,236.24,60.27Z"/><path class="cls-4" d="M180.14,29.59c-.25,5.88-2.36,11.5-7.06,15.6-8.6,7.54-21.87,13.94-27.14,24.5-2.42,4.85-.6,15.09,6.89,14.13,4.79-.62,8.55-5.12,12-8.1,6.61-5.67,15-10.77,23.47-5.41,6.35,4,9.85,12.66,14.29,18.5,1.91,2.48,6,9,9.83,8.76,5.24-.4,4.07-15.81,3.24-19-3.24-12.4-12.47-22.49-14.86-35.14a16.49,16.49,0,0,1,0-6.83A124.36,124.36,0,0,0,180.14,29.59Z"/><path class="cls-4" d="M80.93,51.78c5.38.41,11,.61,15.95,2.87a1.24,1.24,0,0,1,.31,2c-1,1.42-5.7,7.07-1.65,7.67,3,.44,6.26-.47,9.11-1.35a110.71,110.71,0,0,0,20.79-8.83c8-4.4,17.28-11.4,18.42-21.16a17.91,17.91,0,0,0-.57-6.67A123.74,123.74,0,0,0,75.55,51.12,37.82,37.82,0,0,0,80.93,51.78Z"/><path class="cls-4" d="M96.11,39.77c1.79,1.07,2.08,4.06,2.62,5.77,1.59,5,6.4,4.36,10.31,2.8,6.12-2.45,15.57-6.73,17.2-13.82a28.84,28.84,0,0,0,.65-6.22,123.34,123.34,0,0,0-32,10.83A9,9,0,0,1,96.11,39.77Z"/><path class="cls-5" d="M260.33,156.68c-15.63-2.41-22.61,8.4-34.23,15.92C205,186.31,196,146.5,204.29,132.72c2.76-4.62,7.46-9,13-10,6.69-1.16,17.77,3.81,22.8-1.67,13.42-14.62-9.36-29.68-11.64-44.71-1-6.78.28-14.25,6-17.8A124.4,124.4,0,0,0,203,37.63a10.91,10.91,0,0,0-.06,2.15c.4,6.17,3.16,11.8,6,17.19,5.75,10.91,11.36,21,9.26,33.76-.83,4.88-3.79,12.6-10,8.21-7-5-11.42-13.48-16.23-20.4-7.21-10.35-17-8.76-25.92-.94C161.75,81.44,154,90,147.51,85.15c-7.52-5.59-6.35-14-.74-20.52,7.49-8.72,17.71-14.1,25.86-22,3.44-3.38,5.15-8.39,5.23-13.51a125.43,125.43,0,0,0-27.39-3c-1.48,0-2.93.05-4.39.09a16.69,16.69,0,0,1-.77,10.29C141,46.93,132.64,53.25,122.85,58.1c-7.66,3.8-18,9.5-26.86,8.94-6.86-.43-4.27-6.3-1.65-10.26-5-1.34-15.6-1.19-21.3-3.76a120.82,120.82,0,0,0-9.17,8,20.52,20.52,0,0,0-.2,4.88c.77,8.67,7.89,8.66,14,11.88,8.72,4.62,14.16,17.88,14.76,27.41.65,10.74-4.73,18.71-13.1,25.07s-25,12.24-24.58,25c.23,8.17,4.93,10.5,8.09,17.06,1.68,3.5.74,8-.91,11.32C58,191.4,45.65,192.57,39.64,198.5a32.75,32.75,0,0,0-2.37,2.62A123.18,123.18,0,0,0,51.34,224.6a19.91,19.91,0,0,1,6.52-5.12c11.54-6,27.2-7.83,29.05-23.75,1-8.59-1.48-19.68-7.21-26.44-2.73-3.19-6.89-6.47-7.06-11-.45-11.63,7.49-20.34,18.46-22.56a48.75,48.75,0,0,1,18.53-.42c10.51,1.91,16.15-4.05,22.5-11.24,7-7.94,16.8-15.58,28.16-11.69,9.12,3.11,16.63,12.06,15.61,22.09-1.2,11.65-10.62,16.65-20.45,20.65-8.57,3.48-18.65,13.65-10.56,23.09,4,4.7,10,6.86,14.32,11.17,4.81,4.79,11,15.22,7.86,22.38-2.53,5.79-9.31,7.25-15.06,7.75-9.4.81-18.85-.18-28.28.24-4.19.19-9.17.3-12.93,2.45-7,4-2.08,12.1,1.28,17,5.13,7.49,8.32,18-1.56,23.53a20.25,20.25,0,0,1-6.78,2,124.43,124.43,0,0,0,46.73,9.07c1.79,0,3.56-.06,5.33-.14-6.33-3-10.94-10.83-13-17.05-1.59-4.78-3.36-14.38,2.45-17.51s12.76-1.78,18.94-1.82c9.31-.05,18.62-2.53,23.75-11.11,6.35-10.63-5.16-19.56-10.43-27.72-4.13-6.38-4.24-13.29,3.08-17.4,6.92-3.91,25.66-.07,27.76,8.61,1.54,6.18,0,13.59,2.71,19.39,4.61,9.84,12.87,1.12,15.83-4.47,3.82-7.19,7.86-20.33,17.06-22.53,14-3.33,18.82,8.93,18.6,21.54A123.18,123.18,0,0,0,273.72,166C270.67,161.22,266.46,157.62,260.33,156.68Z"/><path class="cls-4" d="M254.5,186.58c-13.53-10.49-21.25,11.08-26.06,19.76-2.91,5.25-11.22,14.49-17.54,7.49-3.85-4.25-3.59-10.48-4-15.83-.23-3.5-.12-8.21-3.45-10.38a31.28,31.28,0,0,0-10.11-4.45c-7.31-1.67-20.7.71-15.26,10.75,2.08,3.87,5,7.14,7.66,10.62,4.78,6.28,9.2,14.11,4.64,21.77-8,13.38-20.73,13.4-34.65,13.5-4.56,0-11.2-.17-11.91,5.93a21.51,21.51,0,0,0,1.91,11c2.45,5.6,6.55,12.9,12.76,15,.8.27.8,1.11.4,1.78A124.36,124.36,0,0,0,260.28,208C261.27,199.73,260,190.82,254.5,186.58Z"/><path class="cls-4" d="M47.67,190.25c6.32-3,18.59-8,12.33-17.47-3-4.52-6.35-7.24-7.43-12.75C47.24,133.09,93.2,133.09,89.93,106c-.91-7.58-4.39-19.49-11-24-4.47-3-10.06-3.44-14.18-7.07-3.25-2.87-4-6.82-3.62-11.05A123.39,123.39,0,0,0,36.25,198.9,35.76,35.76,0,0,1,47.67,190.25Z"/><path class="cls-4" d="M117.92,167a10.66,10.66,0,0,1-.11-8.47c.79-1.79,2.45-2.76,4.1-3.61,1-.51,2.16-.77,3.22-1.2,2.13-3.77,1.48-6.1-1.91-7-16.8-6.8-29.85,7-26.29,22.77.57.89,1.11,1.77,1.63,2.65a36.8,36.8,0,0,1,4.61,15.65c.85,10.93-.46,25-10.79,31.34-6,3.72-20.31,9.89-12.56,19.12,2.48,3,7.74,7.89,12.33,4.56,2.16-1.55.43-4.19.14-5.93a33.2,33.2,0,0,1-.63-7.51c.6-12.65,10.31-19.2,22.59-19.11,6.69.05,22.15.71,23.89-8.55.85-4.53-1.79-8.92-4.33-12.48C128.74,182,121.08,175.36,117.92,167Z"/><path class="cls-4" d="M157.36,123.79a.92.92,0,0,1-.63-.85c-6.43-2.32-15-.3-17.94,6.15-2.62,5.71.55,16.39,8.15,16.23C156.42,145.12,171.12,129,157.36,123.79Z"/><path class="cls-4" d="M237,133.59c-4.36.62-17.09-.55-16.69,6.94.4,7,5,13.85,13,11S245.78,140.35,253.5,138a15.46,15.46,0,0,1,10.65.63c2.85,1.21,7.26,4.49,10.45,4.28a123.09,123.09,0,0,0-31.55-75.59,30.52,30.52,0,0,0,.37,17.11c3.36,9.07,11.05,16,12.61,25.84C258.14,123.36,249.74,131.75,237,133.59Z"/><path class="cls-4" d="M178.09,49.17c-4.1,3-24.57,12-19,18.61,5.89,7,18.31-9.13,21.36-13.42,4.61-6.46,8.91-13.7,11.13-21.36-1.37-.47-2.7-.91-4.07-1.33C186.66,38.45,183.79,45,178.09,49.17Z"/><path class="cls-4" d="M246.89,202c-9-2.24-16.77,15.43-19.93,21.2-4.19,7.64-8.69,14.08-15.78,19.29s-15.55,2.79-23.72,2.61c-6.63-.16-16.69,1.28-15.6,10.2a20.8,20.8,0,0,0,9.56,14.5,124.34,124.34,0,0,0,65.73-42.1C249.91,218.31,252.73,203.48,246.89,202Z"/><path class="cls-4" d="M195.89,195.55c-.37-.36-.06-2.93-.51-3.19a.83.83,0,0,1-1-.47,6.33,6.33,0,0,0-2.51-.33c-1.16.1-3,.55-3,2,0,2.36,2.39,6.69,5.38,5.84,2.33-.66,5-4.81,4-6.51C197.8,193.45,196.4,196,195.89,195.55Z"/><path class="cls-4" d="M66.6,121A12.73,12.73,0,0,0,70,111.62c-.4-4.65-5.46-.72-7,.09-2.19,1.14-5.58,3.34-8.26,2.73-3.62-.82-7.38-3.43-10.71-.4a39.72,39.72,0,0,0-6,7.17c-2.33,3.4-6.38,10.67-11,14a119.38,119.38,0,0,0-.91,14.73,122.74,122.74,0,0,0,4.16,31.75c4.87-1,10-4.84,11.59-9.21,3.62-9.78-6.24-18-5.1-27.76C38.75,127.38,57.26,131.41,66.6,121Z"/><path class="cls-4" d="M46.73,97c3.93,1.37,6.15,5.59,10.39,1,3.11-3.39,7.09-10.26,3.22-14.62-4.67-5.24-3.62-1.53-7.26-2.53a5.75,5.75,0,0,1-3.7-3,123.78,123.78,0,0,0-17.32,34.27C37,104.77,42.29,95.47,46.73,97Z"/><path class="cls-4" d="M232.74,210.27c-3.82-1.38-7.8,1.64-9.88,4.59a11.65,11.65,0,0,0-2.19,4.7c-.06.41-.09.81-.15,1.21.06-.69.06-.74,0-.16a6.87,6.87,0,0,0-.11,1.85,5.33,5.33,0,0,0,1.68,3.7,4.43,4.43,0,0,0,3,1.12c1.59.79,3.84-.1,5.26-1.14a15.34,15.34,0,0,0,4.68-6.9C236.36,215.94,236.81,211.75,232.74,210.27Z"/><path class="cls-4" d="M242,203c-1.25-1.66-3.19-1.47-4.64-.43a3.33,3.33,0,0,0-1.91,2.3c0,.23-.05.46-.08.68s-.4.94-.14.48a2.91,2.91,0,0,0,2.05,4.45C240.91,210.81,244.47,206.2,242,203Z"/><path class="cls-4" d="M204.72,233.69c-1.57-1.72-4.22-1.17-5.9,0a6.53,6.53,0,0,0-2.9,5.57c.2,1.68,1.08,3,2.9,3.18,2.14.19,3.93-1.28,5.07-3a7.65,7.65,0,0,0,1.4-1.94A3.21,3.21,0,0,0,204.72,233.69Z"/><path class="cls-4" d="M226.84,183.17a7.41,7.41,0,0,0-3.7-4.33c-2-1.06-4.67,0-6.35,1.13a11.1,11.1,0,0,0-4.24,10.78,7.74,7.74,0,0,0,2.31,4.43,2.88,2.88,0,0,0,.94.61,5,5,0,0,0,2.5,1.19c3.33.56,6.07-2.62,7.43-5.21C227,189.36,227.87,185.81,226.84,183.17Z"/><path class="cls-4" d="M248.37,138.39a2.94,2.94,0,0,0-1.19-.68,1.85,1.85,0,0,0-2.25-1.79,2.9,2.9,0,0,0-2.22,2.71c-.15,1.7-.72,3.09-.32,4.84s2.65,1.8,3.9.89c.52-.38,1-.74,1.51-1.15C249.23,142,249.88,139.83,248.37,138.39Z"/><path class="cls-4" d="M265.83,125.62a6.36,6.36,0,0,0-2.48-3.15c-2.05-1.19-3.79-.94-5.75.35-5.38,3.58-5.58,13.82-1.42,19a3.78,3.78,0,0,0,4.64,2.89c4.81.82,9.34-4,9.57-8.71A13.52,13.52,0,0,0,265.83,125.62Z"/><path class="cls-4" d="M256.83,100.08c-2.85-.55-5.35,2.58-5.3,5.18a3,3,0,0,0,1.31,2.5,2.17,2.17,0,0,0,.26.5c.09.12.17.21.26.31a2.79,2.79,0,0,0,.28.34.05.05,0,0,1,0,0,3.33,3.33,0,0,0,4.58-.87,9,9,0,0,0,1.4-3.69A3.33,3.33,0,0,0,256.83,100.08Z"/><path class="cls-4" d="M238.58,91.27a5.79,5.79,0,0,0-5.7-2.56,5.44,5.44,0,0,0-.54.17,2.2,2.2,0,0,0-2.79.84c-3.27,4.59-1,16.86,6.55,13.8C240.66,101.66,241.08,95,238.58,91.27Z"/><path class="cls-4" d="M198,157.61c-1.08-4.14-6.95-1.86-7.43,1.48a16.88,16.88,0,0,0-.2,1.69,11,11,0,0,0-.4,1.09,2.61,2.61,0,0,0,1.48,3.18,4.79,4.79,0,0,0,5.18-1.54,3.22,3.22,0,0,0,.32-.32,5.16,5.16,0,0,0,1.22-3.72A6.86,6.86,0,0,0,198,157.61Z"/><path class="cls-4" d="M171.88,221.42a6.28,6.28,0,0,0-6.06-4.45,7.81,7.81,0,0,0-3.93,1.07c-2.79,1.24-5.21,4.71-6.49,6.82-2.4,3.95-4.19,9.68-.35,13.34s9.66-.87,12.45-3.63C170.69,231.41,173.11,225.89,171.88,221.42Z"/><path class="cls-4" d="M130.65,240.08a4.74,4.74,0,0,0-2.79-4c-2.34-1.25-5.33.28-7.21,1.68a10.8,10.8,0,0,0-4.41,7.53,4.57,4.57,0,0,0,2.73,4.4,6.57,6.57,0,0,0,3.85.23,11.17,11.17,0,0,0,4.21-1.91,6.54,6.54,0,0,0,2.51-3.85,3,3,0,0,0,.25-.41A6.55,6.55,0,0,0,130.65,240.08Z"/><path class="cls-4" d="M161,253.87a2.47,2.47,0,0,0-.79-1.12c-1.46-1.16-3.59-.4-4.64.92a5.39,5.39,0,0,0-.55.94,3.28,3.28,0,0,0-.39,3.67c.05.09.14.14.2.23a2.63,2.63,0,0,0,1.5,1.31c2.79,1.05,5.1-1.71,5.24-4.23A2.66,2.66,0,0,0,161,253.87Z"/><path class="cls-4" d="M264.32,172.17a9.35,9.35,0,0,0,.8-4.16c-.26-3.43-2.45-6.66-6.32-5.81-3.51.77-5.73,4.07-6.7,7.28a7.47,7.47,0,0,0-.2,3.15c-.22,2.41.55,4.7,2.94,5.79,2.79,1.27,6-.74,7.66-3l.37-.54A8.66,8.66,0,0,0,264.32,172.17Z"/><path class="cls-4" d="M89.07,235.85a7,7,0,0,0-6.95-5.47c-.65-.36-1.31-.71-2-1-1.88-.94-3.9-1.95-6.09-1.52-2.74.55-5.5,3.51-5.19,6.44.29,2.7,1.57,4.45,3.53,6.26,2.28,2.12,6.58,4.94,9.86,4.74A7.39,7.39,0,0,0,89.07,235.85Z"/><path class="cls-4" d="M103.2,244.82a6.75,6.75,0,0,0-.89-1,3.64,3.64,0,0,0-4.47.26c-1.36,1.08-2.7,3.8-1.33,5.41a10.44,10.44,0,0,0,.91,1,3.3,3.3,0,0,0,3.58.28,5.23,5.23,0,0,0,2.25-2.24C103.77,247.54,104.05,245.76,103.2,244.82Z"/><path class="cls-4" d="M62.85,202.11a3.18,3.18,0,0,0-3.08-1.52,10,10,0,0,0-5.7-2.8c-3.75-.24-6.54,3.91-5.38,7.33a10.1,10.1,0,0,0,4,5,7.3,7.3,0,0,0,3.3,1.16,5,5,0,0,0,7-4.47A5.39,5.39,0,0,0,62.85,202.11Z"/><path class="cls-4" d="M88.48,207a3.08,3.08,0,0,0-1.6.36c-2.33.52-3.9,3.81-2.59,5.81,1.74,2.71,6.06.6,6.41-2.13,0-.49.14-1,.14-1.46A2.54,2.54,0,0,0,88.48,207Z"/><path class="cls-4" d="M172,177.49a4.21,4.21,0,0,0-2.36,1.63c-1.17,1.2-.8,3.75,1.14,3.83a3.32,3.32,0,0,0,2.76-1.23,2.49,2.49,0,0,0,.57-1.53C174.48,178.77,173.85,177.13,172,177.49Z"/><path class="cls-4" d="M222.6,110.56c.12-2.52-1.25-6.83-4.44-6.77-3.53.07-5.78,2.91-6.95,6-1,2.66-1.68,6.08.29,8.44a2.43,2.43,0,0,0,.17.54c1.25,3.05,4.84,2.89,7.12,1A9,9,0,0,0,221,117a5.72,5.72,0,0,0,.85-1.46,6.09,6.09,0,0,0,.52-2.47A20.33,20.33,0,0,0,222.6,110.56Z"/><path class="cls-4" d="M117.64,152.55a3.64,3.64,0,0,0-3.17,1.6c-.14.13-.25.27-.37.39-.88,1.1-1.42,3-.51,4.25,0,0,.06,0,.06.06,1.37,1.86,4.07,1.41,5.38-.33a4.8,4.8,0,0,0,1.08-3.24A2.69,2.69,0,0,0,117.64,152.55Z"/><path class="cls-6" d="M274.8,152.21c0,68.41-55.67,123.86-124.33,123.86S26.11,220.62,26.11,152.21,81.78,28.35,150.47,28.35,274.8,83.8,274.8,152.21Z"/><path class="cls-7" d="M73.07,57.21s-77.86,65.17-29,152C44.05,209.16,6.46,125.23,73.07,57.21Z"/><path class="cls-8" d="M258.37,96.18s27.79,87.58-23.58,143.12C234.79,239.3,297.16,192.57,258.37,96.18Z"/><path class="cls-9" d="M95.2,147.5a4.45,4.45,0,0,0-3.65-2,8.19,8.19,0,0,0-4.81,1.69c-2,1.26-3.85,3.79-3.9,6.18a5.89,5.89,0,0,0,.51,3.35c.91,2,3.16,2.42,5.1,2.12,2.1-.3,4-2,5.41-3.52A6.83,6.83,0,0,0,95.2,147.5Z"/><path class="cls-9" d="M116.3,85.82c-1.23-1.92-3.34-1.51-4.84-.3a4.07,4.07,0,0,0-1.51,2,2.3,2.3,0,0,0-.17.48.07.07,0,0,1,0,.07,3.79,3.79,0,0,0-.06,1A2.35,2.35,0,0,0,111,91.79a3.25,3.25,0,0,0,2.28,0,3.66,3.66,0,0,0,1.56-.75C116.5,89.88,117.46,87.62,116.3,85.82Z"/><path class="cls-9" d="M104.85,107.79c-.48-2-2.39-2.53-4.19-2.37s-3,1.49-4.18,2.67a8.34,8.34,0,0,0-2.62,5.19,4.67,4.67,0,0,0,1.48,3.5,4.32,4.32,0,0,0,3.79.82,6.61,6.61,0,0,0,4.92-5.11,6.94,6.94,0,0,0,.32-.68A6.55,6.55,0,0,0,104.85,107.79Z"/><path class="cls-9" d="M75.83,103.19c-3.67,0-5.75,6.52-1.54,6.52C77.94,109.71,80,103.19,75.83,103.19Z"/><path class="cls-9" d="M186,99.06a4.08,4.08,0,0,0-3.53-.77c-2.23.37-4.19,2-5.73,3.59-1.79,1.8-3.56,5-2.5,7.56a4.64,4.64,0,0,0,4.15,3.14,6.89,6.89,0,0,0,6.21-4c.06-.16.14-.34.2-.53a8.69,8.69,0,0,0,2.42-4.52C187.46,101.88,187.35,100.3,186,99.06Z"/><path class="cls-9" d="M148.68,86.89c-3.19,0-5,5.67-1.34,5.67C150.53,92.56,152.35,86.89,148.68,86.89Z"/><path class="cls-9" d="M181.17,75.66a5.53,5.53,0,0,0-4.39-.77c-2.59.45-4.75,2.23-6.46,4.13a6.13,6.13,0,0,0-1.43,5.38,3.45,3.45,0,0,0,0,.72,3.79,3.79,0,0,0,2.56,3.46c2.62.76,5.1-.59,7.12-2.18,1.85-1.47,3.76-3.62,4.13-6C182.9,78.63,182.68,76.78,181.17,75.66Z"/><g class="cls-10"><path class="cls-11" d="M65.78,94.57l-.06,0-.23.25Z"/><path class="cls-11" d="M63.79,84.46a6.69,6.69,0,0,0-6.3,7,3.29,3.29,0,0,0-.23.33c-1,2.14.12,5.07,2.74,5.23a7.45,7.45,0,0,0,5.72-2.45c.2-.22.43-.46.54-.6a8.12,8.12,0,0,0,1.83-5A4.34,4.34,0,0,0,63.79,84.46Z"/><path class="cls-11" d="M65.49,94.86c-.28.28-.2.21,0,0Z"/></g><path class="cls-9" d="M57.89,101.31c-3.07,0-4.84,5.5-1.28,5.5C59.69,106.81,61.45,101.31,57.89,101.31Z"/><g class="cls-12"><path class="cls-13" d="M61.54,211c8.57-4.37,14-11.14,12.9-21.33-1.48-13.84-10.6-26-9.52-40.21.66-8.85,6.38-16.11,14.3-19.64,8.77-3.91,19-3.5,28.31-4.8,7.86-1.11,15.86-3.1,19.82-10.78,2.27-4.4,4-9,7.14-12.86,7.41-9.19,21.33-9.37,30.87-3.64,5.21,3.14,10.57,11.15,16.8,12,11.34,1.59,11.51-8.77,14.41-16.26.23-.52,1.06-1.28,1.68-1,6.67,3.09,10.57,11.56,17.4,13.78,9.34,3,10.82-16.24,9.57-21.35-1.48-6.13-4.07-11.79-6.12-17.74-1.94-5.56-5.24-12.93-2.08-18.56a121.1,121.1,0,0,0-66.55-19.8C83.35,28.85,29,83,29,149.9a120.17,120.17,0,0,0,22.72,70.46C53.62,215.75,57.12,213.26,61.54,211Z"/></g></g></g></svg>