<svg xmlns="http://www.w3.org/2000/svg" xmlns:xlink="http://www.w3.org/1999/xlink" viewBox="0 0 300 300"><defs><style>.cls-1{isolation:isolate;}.cls-2{fill:#00add7;}.cls-3{fill:#007cd8;}.cls-4{fill:#0091d6;}.cls-5{fill:#88c4d3;}.cls-13,.cls-17,.cls-5,.cls-7{mix-blend-mode:screen;}.cls-6{fill:#008ed0;}.cls-7{fill:#5bbad1;}.cls-8{fill:#0075a9;}.cls-9{fill:#66cdf5;}.cls-10,.cls-17,.cls-18{fill:#00a6e6;}.cls-11{fill:#303b7b;}.cls-12{mask:url(#mask);}.cls-13{fill:url(#radial-gradient);}.cls-14{fill:#385588;opacity:0.7;}.cls-14,.cls-16,.cls-18{mix-blend-mode:multiply;}.cls-15{fill:#fff;mix-blend-mode:overlay;}.cls-16{fill:url(#radial-gradient-2);}.cls-17,.cls-18{opacity:0.3;}.cls-19{filter:url(#luminosity-noclip);}</style><filter id="luminosity-noclip" x="-883.28" y="-348.27" width="1071.69" height="607.78" filterUnits="userSpaceOnUse" color-interpolation-filters="sRGB"><feFlood flood-color="#fff" result="bg"/><feBlend in="SourceGraphic" in2="bg"/></filter><mask id="mask" x="-883.28" y="-348.27" width="1071.69" height="607.78" maskUnits="userSpaceOnUse"><g class="cls-19"/></mask><radialGradient id="radial-gradient" cx="291.88" cy="306.38" r="316.6" gradientTransform="translate(-8.65 -15.57) scale(1 0.99)" gradientUnits="userSpaceOnUse"><stop offset="0" stop-color="#2b2b2b"/><stop offset="0.26" stop-color="#2d2d2d"/><stop offset="0.4" stop-color="#363636"/><stop offset="0.52" stop-color="#444"/><stop offset="0.62" stop-color="#575757"/><stop offset="0.71" stop-color="#717171"/><stop offset="0.8" stop-color="#909090"/><stop offset="0.88" stop-color="#b6b6b6"/><stop offset="0.95" stop-color="#e0e0e0"/><stop offset="1" stop-color="#fff"/></radialGradient><radialGradient id="radial-gradient-2" cx="83.52" cy="137.49" r="176.71" gradientTransform="translate(-8.65 -15.57) scale(1 0.99)" gradientUnits="userSpaceOnUse"><stop offset="0.55" stop-color="#fff"/><stop offset="0.64" stop-color="#fcfefe"/><stop offset="0.69" stop-color="#f3f9fc"/><stop offset="0.75" stop-color="#e4f1f8"/><stop offset="0.79" stop-color="#cee6f3"/><stop offset="0.84" stop-color="#b2d7ec"/><stop offset="0.88" stop-color="#90c6e3"/><stop offset="0.92" stop-color="#67b1d9"/><stop offset="0.95" stop-color="#3799ce"/><stop offset="0.99" stop-color="#037ec1"/><stop offset="0.99" stop-color="#007cc0"/></radialGradient></defs><g class="cls-1"><g id="Layer_1" data-name="Layer 1"><ellipse class="cls-2" cx="150.46" cy="152.3" rx="124.34" ry="123.86"/><path class="cls-3" d="M275,152.3s0,.76,0,2.24,0,3.66-.25,6.51a119.47,119.47,0,0,1-4,24.39,127.06,127.06,0,0,1-15.47,35.2,124.4,124.4,0,0,1-34.77,36A128.69,128.69,0,0,1,194.82,270a121.07,121.07,0,0,1-30.08,7.13,124.15,124.15,0,0,1-65.13-10.54,128.34,128.34,0,0,1-53.28-45.4A126.18,126.18,0,0,1,25,152.3a136.11,136.11,0,0,1,1.14-18.36A129,129,0,0,1,30,116,125.26,125.26,0,0,1,99.21,37.14,121.5,121.5,0,0,1,132,27.65c2.78-.34,5.53-.75,8.3-.9,1.39-.08,2.76-.23,4.14-.27l4.12-.11c2.84-.11,5.4.09,8.1.13,2.71.22,5.44.34,8.08.68a123.2,123.2,0,0,1,30.1,7.3,128.39,128.39,0,0,1,25.6,13.42A125.31,125.31,0,0,1,255.24,84a126.81,126.81,0,0,1,15.44,35.21,117.88,117.88,0,0,1,4,24.39c.25,2.86.18,5,.25,6.52S275,152.3,275,152.3Zm-.42,0s0-.76-.07-2.22,0-3.66-.32-6.49a116.57,116.57,0,0,0-4.31-24.21,105.18,105.18,0,0,0-6.07-16.46,118.73,118.73,0,0,0-10.14-18,125.12,125.12,0,0,0-89.36-53.62c-2.57-.32-5.12-.42-7.72-.62l-4-.11-2,0-1.94,0-4,.11c-1.35.05-2.67.2-4,.29-2.66.14-5.33.55-8,.89a120.42,120.42,0,0,0-16,3.48c-2.66.71-5.26,1.67-7.92,2.52-2.59,1-5.24,1.92-7.79,3.12A123.25,123.25,0,0,0,27.24,152.3a134.38,134.38,0,0,0,1.16,18A125.6,125.6,0,0,0,32.18,188,123.62,123.62,0,0,0,47.4,220.45a121.05,121.05,0,0,0,53.13,44.07c2.57,1.19,5.26,2.07,7.88,3.09,2.66.84,5.3,1.79,8,2.45a120.26,120.26,0,0,0,16.16,3.29c2.68.29,5.37.67,8,.79,1.33.06,2.65.2,4,.22l4,.07c2.62.1,5.28-.1,7.9-.14,2.59-.22,5.21-.34,7.76-.68A127,127,0,0,0,218.63,254a125.63,125.63,0,0,0,35.09-34.29,118.66,118.66,0,0,0,10.13-18,106.54,106.54,0,0,0,6-16.48A116.49,116.49,0,0,0,274.19,161c.3-2.83.25-5,.32-6.49S274.58,152.3,274.58,152.3Z"/><path class="cls-4" d="M43.64,158c11.66,2.38,23.41,5.25,35.3,6.17,12.64,1,23.72-2.16,35.4-6.87,13.23-5.33,26-10.74,40.26-12.76a221.65,221.65,0,0,1,43-1.62c25.92,1.39,51.52,5.62,77.17,9.3,0-1.69,0-3.38-.12-5.06-19.13-.17-38.06-4.6-57.24-5.08-23.48-.59-47.16,1.78-70.38-2.92-25.14-5.08-48.55-17.34-74.8-10.38-15.19,4-30.14,12.18-45.72,14.17-.24,3.1-.4,6.23-.4,9.39,0,.75,0,1.48.07,2.22C32.34,155.51,38.34,156.89,43.64,158Z"/><path class="cls-5" d="M82.74,175.44a213.21,213.21,0,0,0,38.31-8.28c11.89-3.83,23-9.53,34.67-13.92,22.2-8.32,43.7-4,66.35-.41,13.88,2.21,33.95,6,49.66,1.67-26.52-3.88-53.06-8.41-79.87-9.16-14.84-.42-30.26-.24-44.8,3-13,2.89-24.87,8.74-37.31,13.29-10.5,3.87-20.19,6.23-31.37,5.18a268.69,268.69,0,0,1-28.18-4.65c-7-1.43-15.38-3.69-24-5.12A124.76,124.76,0,0,0,28,173.78C45.59,178.67,65.57,177.66,82.74,175.44Z"/><path class="cls-6" d="M231.61,157c-26.32-3.53-51.79-10.92-77.55-.51-12.57,5.08-24.75,11-37.84,14.72a223,223,0,0,1-38.07,7.36c-15.73,1.6-33.48,2.21-49.55-1.81A123.51,123.51,0,0,0,60,237.18c8-.27,15.94-.32,24-.42a191.91,191.91,0,0,0,35.94-3.33c9.49-1.92,18.93-4.19,28.53-5.51,18.85-2.58,36.77.82,55.26,4.3,12,2.26,24.68,5,37.17,5A123,123,0,0,0,274.69,156C261.24,160.54,244.61,158.77,231.61,157Z"/><path class="cls-7" d="M244.54,109c-12,2.37-23.77,5.48-36,5.8-27.84.75-52.91-7.55-79.09-15.7C114.74,94.47,99.5,90.3,84,91.31c-13.14.86-22.74,5.11-33.55,12.21-5.48,3.59-12,8.85-19.09,13.26a123.81,123.81,0,0,0-4.63,23.55c18.11-2.24,35.11-13.36,53.38-15.71,23.43-3,43.1,6.85,65.46,11.37,25,5,49.74,2,74.9,3.48,18,1.05,36,4.84,54.07,5a122.84,122.84,0,0,0-7.61-35.57A53.17,53.17,0,0,0,244.54,109Z"/><path class="cls-8" d="M128.28,40.14c20.77,2.6,42.28,1.88,61.77-5.25a124.88,124.88,0,0,0-84.33,1.83C113.26,37.71,120.72,39.19,128.28,40.14Z"/><path class="cls-7" d="M193.58,36.13c-17,6.92-35.49,8.62-54.29,7.7-12.24-.59-24.1-3.49-36.25-4.77l-2.44-.21A123.28,123.28,0,0,0,83,48.28l1.43-.21a189,189,0,0,1,48.87.28c23.91,3,46.51,5.69,70.36-.32A41.14,41.14,0,0,0,212,44.71,124.33,124.33,0,0,0,193.58,36.13Z"/><path class="cls-9" d="M214.51,46.17a63.82,63.82,0,0,1-16.16,5.62c-20.27,3.9-39.79,3.06-60.07,0-15.53-2.33-31.55-3.33-47.22-1.87-4.16.39-8.61.91-13.07,1.76a124.76,124.76,0,0,0-37.1,42.08A72.74,72.74,0,0,0,60.29,90c21.29-7.82,41.76-11,64.05-5.3,24.53,6.31,47.8,15,73.36,16.74,21.73,1.46,43.42,0,65.06-2.18A124.59,124.59,0,0,0,214.51,46.17Z"/><path class="cls-10" d="M197.12,104.1c-23.23-1.83-44.62-8.63-66.91-14.91-11.51-3.25-23.55-6-35.59-5s-23,4.41-34.26,8.41c-6.74,2.38-13.72,3.26-20.79,3.74a122.78,122.78,0,0,0-6.85,16.16c8.8-5.61,17.19-12,26.36-17,21.44-11.63,46.87-6.72,69.07.19,26.54,8.27,52.59,17.71,80.9,16.4,13-.61,25.24-4.3,38-6.15,5.6-.81,11.57-1.37,17.19-.47.47.08.92.17,1.39.27-.56-1.34-1.12-2.67-1.73-4C241.77,104.09,219.39,105.84,197.12,104.1Z"/><path class="cls-9" d="M153.14,229.93c-22.69,2.7-44.11,9.18-67.13,9.47-7.88.1-15.71.13-23.55.34,1.68,1.67,3.38,3.3,5.17,4.87,25.23-5.33,51.59-6.15,77-9.38,30.44-3.87,60.36,6.88,90.53,7.66,1-.9,1.92-1.86,2.86-2.8C209.85,239.73,181.41,226.55,153.14,229.93Z"/><path class="cls-6" d="M146.14,237.65c-25.09,3.19-51.14,4-76.11,9a123.65,123.65,0,0,0,14.79,10.77A234.74,234.74,0,0,0,118.34,253c16.74-3.42,32.68-7.88,49.91-6.62,16.9,1.23,33.53,4.64,50.35,6.41l4,.39a121.25,121.25,0,0,0,9.87-7.81C203.68,243.9,175.21,233.94,146.14,237.65Z"/><path class="cls-7" d="M169.62,249.15c-19.32-1.41-37,3.74-55.8,7.28a238.87,238.87,0,0,1-25,3.41,124.85,124.85,0,0,0,22.5,10c19.17-7.66,41.49-10.11,61.45-11.29a83.67,83.67,0,0,1,30.19,3.25c1.12.32,2.3.69,3.51,1.06a121.31,121.31,0,0,0,12.69-7.39C202.6,253.71,186.22,250.36,169.62,249.15Z"/><path class="cls-9" d="M179.51,260.92c-20.77.69-44.2,2.69-64.48,10.11a124.84,124.84,0,0,0,87.69-6.34C195.13,262.56,187.59,260.65,179.51,260.92Z"/><path class="cls-11" d="M275,152.3s0,.76,0,2.24,0,3.66-.25,6.51a119.47,119.47,0,0,1-4,24.39,127.06,127.06,0,0,1-15.47,35.2,124.4,124.4,0,0,1-34.77,36A128.69,128.69,0,0,1,194.82,270a121.07,121.07,0,0,1-30.08,7.13,124.15,124.15,0,0,1-65.13-10.54,128.34,128.34,0,0,1-53.28-45.4A126.18,126.18,0,0,1,25,152.3a136.11,136.11,0,0,1,1.14-18.36A129,129,0,0,1,30,116,125.26,125.26,0,0,1,99.21,37.14,121.5,121.5,0,0,1,132,27.65c2.78-.34,5.53-.75,8.3-.9,1.39-.08,2.76-.23,4.14-.27l4.12-.11c2.84-.11,5.4.09,8.1.13,2.71.22,5.44.34,8.08.68a123.2,123.2,0,0,1,30.1,7.3,128.39,128.39,0,0,1,25.6,13.42A125.31,125.31,0,0,1,255.24,84a126.81,126.81,0,0,1,15.44,35.21,117.88,117.88,0,0,1,4,24.39c.25,2.86.18,5,.25,6.52S275,152.3,275,152.3Zm-.42,0s0-.76-.07-2.22,0-3.66-.32-6.49a116.57,116.57,0,0,0-4.31-24.21,105.18,105.18,0,0,0-6.07-16.46,118.73,118.73,0,0,0-10.14-18,125.12,125.12,0,0,0-89.36-53.62c-2.57-.32-5.12-.42-7.72-.62l-4-.11-2,0-1.94,0-4,.11c-1.35.05-2.67.2-4,.29-2.66.14-5.33.55-8,.89a120.42,120.42,0,0,0-16,3.48c-2.66.71-5.26,1.67-7.92,2.52-2.59,1-5.24,1.92-7.79,3.12A123.25,123.25,0,0,0,27.24,152.3a134.38,134.38,0,0,0,1.16,18A125.6,125.6,0,0,0,32.18,188,123.62,123.62,0,0,0,47.4,220.45a121.05,121.05,0,0,0,53.13,44.07c2.57,1.19,5.26,2.07,7.88,3.09,2.66.84,5.3,1.79,8,2.45a120.26,120.26,0,0,0,16.16,3.29c2.68.29,5.37.67,8,.79,1.33.06,2.65.2,4,.22l4,.07c2.62.1,5.28-.1,7.9-.14,2.59-.22,5.21-.34,7.76-.68A127,127,0,0,0,218.63,254a125.63,125.63,0,0,0,35.09-34.29,118.66,118.66,0,0,0,10.13-18,106.54,106.54,0,0,0,6-16.48A116.49,116.49,0,0,0,274.19,161c.3-2.83.25-5,.32-6.49S274.58,152.3,274.58,152.3Z"/><g class="cls-12"><path class="cls-13" d="M65.17,193.38c-2.66-1.23-5-3-7.7-4.23-1-.46-.69-1.59-.06-2.24,16.42-16.65,47.6-5.56,62-24.21-20.56,1.21-42.25,6.43-61.7-2.87-11.39-5.46-3.6-12.7,4.26-16.21,10.76-4.8,22-5.15,32.94-8.87,1.21-.41,6.94-2.05,4.79-4.88a9.06,9.06,0,0,0-4.79-3.54,31.37,31.37,0,0,0-11.66-.71c-6.6.66-13.32,2.42-20,2.16-1.37-.06-1-1.62-.36-2.29,11.68-13,28.94-12.83,44.4-18.15,2.64-.9,14.14-4.36,9.42-7.55-3.83-2.57-8.39-3.23-13-3.23-6.84,0-13.8,1.24-20.63.51-1.07-.12-1.14-1.23-.63-2,19.81-29,58.57-23,85.92-39.75-2.31-2.72-5.17-4.89-7.3-7.79a1.52,1.52,0,0,1,.43-1.89c7.83-6.81,17.23-7.44,26.87-7.15a119.6,119.6,0,0,0-38.15-6.24C84.4,32.26,31,85.44,31,151.06a118.77,118.77,0,0,0,70.58,108.45C76.18,244.91,48.07,220.1,65.17,193.38Z"/></g><path class="cls-14" d="M259.51,99.1S283.15,187.89,229.19,241C229.19,241,293.71,197.21,259.51,99.1Z"/><path class="cls-15" d="M74.1,57.27s-77.86,65.17-29,151.94C45.07,209.21,7.5,125.28,74.1,57.27Z"/><path class="cls-16" d="M274.78,152.3c0,68.41-55.66,123.86-124.32,123.86S26.12,220.71,26.12,152.3,81.8,28.44,150.46,28.44,274.78,83.89,274.78,152.3Z"/><path class="cls-17" d="M63.69,142.71c1.19-.22,4.06,1.5,5,1.66a56.68,56.68,0,0,0,13.34.15,113.19,113.19,0,0,0,27.05-5.11,3.68,3.68,0,0,0,.23-.44,10.37,10.37,0,0,0-3.6-2.12c-1.44-.4-2.89-.75-4.39-1a58.42,58.42,0,0,0-11,0c-7.41.5-15.24,1.52-22.18,4.38l-1.68.73c-.71.4-1.43.81-2.1,1.25C64.12,142.36,63.9,142.55,63.69,142.71Z"/><path class="cls-17" d="M141.84,140.08c-20.07-2.81-38.18-12-58.79-10.62-18.55,1.22-35.6,11-52.83,17.08-.52.19-.74,1.34,0,1.31,6.71-.33,12.89-3.16,19.13-5.54a8.7,8.7,0,0,0-1.92,2.81c-.47,1.17-.65,2.82.56,3.68,7,5,19.06,3.13,27.23,3.13,11.64,0,22.38-2.81,33-7.44a1.1,1.1,0,0,0,.69-1c-11.25,4.21-24.68,6.95-36.36,6.16-2.47-.17-16.25-1.21-12.13-6.88a9.92,9.92,0,0,1,1-1.13l.06-.09s0,0,0,0c.36-.35.74-.7,1.16-1l.09-.06a17,17,0,0,1,1.48-1.06,33.6,33.6,0,0,1,10.92-4.23c.92-.21,1.79-.42,2.62-.59,7.85-1.63,15.42-2.47,22.82-1.54a25.46,25.46,0,0,1,5.35,1,43.2,43.2,0,0,1,8.28,3c9,2.07,18,4.38,27.13,4.94C142.45,142,143.05,140.26,141.84,140.08Z"/><path class="cls-18" d="M127,143.32c-14.61,3.43-26.77,11.09-42.21,12.05-15.84,1-32.92-1.3-48.54-3.84-.71-.11-1.32,1.23-.51,1.46,15.37,4.33,31.87,7.54,47.89,7.35a66.3,66.3,0,0,0,19.58-3.27c8.66-2.8,15-9,23.84-11.69C128.1,145,128.39,143,127,143.32Z"/><path class="cls-18" d="M264.88,170.53c-5.37-2.7-10.47-3.48-16.44-4a138.06,138.06,0,0,1-23.73-4.3c-14.83-3.94-29.4-6-44.78-4.92-12.93.89-24.64,6.74-36.45,11.56-16.27,6.64-32.1,13.14-50,12.68-.76,0-1.21,1.32-.31,1.38,27.52,1.55,52.34-12.71,78.82-17.82,15.57-3,32-1.94,47.49.76,7.11,1.25,14.12,3.06,21.35,3.79,7.85.79,15.39.79,23.11,2.77C265,172.68,266,171.1,264.88,170.53Z"/><path class="cls-18" d="M221.94,222.83c-11.17-3.44-23.14-3.81-34.55-6.19a92,92,0,0,0-36.84,0c-13.81,2.82-27.51,6.2-41.31,9.07-12.6,2.59-29.14,5.87-42,3.63-.45-.08-.83.77-.34.94,9.25,3,21,1.86,30.6,1.55,12.69-.43,25.73-3.87,38.15-6.26,14.84-2.85,28.11-5.86,43.4-5,14.05.82,27.88,4,41.89,5C222.27,225.73,223.53,223.31,221.94,222.83Z"/><path class="cls-18" d="M193.23,91.21c-38.5-8.15-77-25.21-116.35-13-.65.2-.85,1.39,0,1.23,21.93-4.11,41.24-2.1,62.88,2.83,17.53,4,34.94,9.86,53,10.78C193.83,93.12,194.41,91.46,193.23,91.21Z"/><path class="cls-18" d="M220,54.42c-29.45,21.3-65.82,10.44-98.27,5.46-.6-.1-1,.95-.26,1.07,31.39,5.55,72.41,20.66,99.11-5.91A.42.42,0,0,0,220,54.42Z"/><path class="cls-17" d="M204.53,113.16c-18.08-1.49-36.17-2.12-53.2-8.94-15.75-6.31-30.21-10.65-47-12.34-.76-.08-1.41,1.22-.56,1.51,7.7,2.64,15.38,4.4,22.67,8.1a247.61,247.61,0,0,0,28.92,12.11c16.16,5.78,32.31,2.84,49,1.52C205.29,115,205.69,113.25,204.53,113.16Z"/><path class="cls-17" d="M125.93,189.93c-23.27.93-48,14.28-71.28,5.36-.74-.28-1.54.86-.89,1.4,7.72,6.39,17.52,8.66,27.48,7.14,6.42-1,12.91-2,19-4.31,8.73-3.28,15.6-7.26,25.2-7.62C126.56,191.87,127.18,189.88,125.93,189.93Z"/><path class="cls-17" d="M233.33,190.9c-13.16-3.85-27.19-3.25-40.71-2.57-.58,0-1,1.08-.27,1.08a113.82,113.82,0,0,1,20.17,1.79c6.11,1.15,13.87,4.75,20.07,2.87C233.71,193.73,235.14,191.42,233.33,190.9Z"/></g></g></svg>