<svg xmlns="http://www.w3.org/2000/svg" xmlns:xlink="http://www.w3.org/1999/xlink" viewBox="0 0 300 300"><defs><style>.cls-1{isolation:isolate;}.cls-2{fill:#3dc0c4;}.cls-3{fill:#006d91;}.cls-11,.cls-15,.cls-4,.cls-8{mix-blend-mode:multiply;}.cls-4{opacity:0.9;}.cls-5,.cls-6,.cls-7{fill:#12c2f2;}.cls-6{opacity:0.5;}.cls-11,.cls-7{opacity:0.7;}.cls-8{fill:url(#radial-gradient);}.cls-9{mask:url(#mask);}.cls-10{mix-blend-mode:screen;fill:url(#radial-gradient-2);}.cls-11{fill:#385588;}.cls-12,.cls-16{fill:#fff;}.cls-12{mix-blend-mode:overlay;}.cls-13{fill:#56caf4;}.cls-14{fill:url(#radial-gradient-3);}.cls-15{opacity:0.8;fill:url(#radial-gradient-4);}.cls-17{filter:url(#luminosity-noclip);}</style><radialGradient id="radial-gradient" cx="133.45" cy="143.89" r="134.34" gradientTransform="translate(-38.47 -15.16) scale(0.99 0.99)" gradientUnits="userSpaceOnUse"><stop offset="0.55" stop-color="#fff"/><stop offset="0.64" stop-color="#fcfefe"/><stop offset="0.69" stop-color="#f3f9fc"/><stop offset="0.75" stop-color="#e4f1f8"/><stop offset="0.79" stop-color="#cee6f3"/><stop offset="0.84" stop-color="#b2d7ec"/><stop offset="0.88" stop-color="#90c6e3"/><stop offset="0.92" stop-color="#67b1d9"/><stop offset="0.95" stop-color="#3799ce"/><stop offset="0.99" stop-color="#037ec1"/><stop offset="0.99" stop-color="#007cc0"/></radialGradient><filter id="luminosity-noclip" x="-257.16" y="-220.9" width="436.93" height="454.01" filterUnits="userSpaceOnUse" color-interpolation-filters="sRGB"><feFlood flood-color="#fff" result="bg"/><feBlend in="SourceGraphic" in2="bg"/></filter><mask id="mask" x="-257.16" y="-220.9" width="436.93" height="454.01" maskUnits="userSpaceOnUse"><g class="cls-17"/></mask><radialGradient id="radial-gradient-2" cx="280.29" cy="270.18" r="240.67" gradientTransform="translate(-38.47 -15.16) scale(0.99 0.99)" gradientUnits="userSpaceOnUse"><stop offset="0" stop-color="#2b2b2b"/><stop offset="0.26" stop-color="#2d2d2d"/><stop offset="0.4" stop-color="#363636"/><stop offset="0.52" stop-color="#444"/><stop offset="0.62" stop-color="#575757"/><stop offset="0.71" stop-color="#717171"/><stop offset="0.8" stop-color="#909090"/><stop offset="0.88" stop-color="#b6b6b6"/><stop offset="0.95" stop-color="#e0e0e0"/><stop offset="1" stop-color="#fff"/></radialGradient><radialGradient id="radial-gradient-3" cx="151.11" cy="166.52" r="109.33" gradientTransform="translate(-9.54 -15.57) scale(1 0.99)" gradientUnits="userSpaceOnUse"><stop offset="0.06" stop-color="#7fcfe6"/><stop offset="0.24" stop-color="#7ec6e1"/><stop offset="0.55" stop-color="#7bacd4"/><stop offset="0.93" stop-color="#7783be"/><stop offset="1" stop-color="#767bba"/></radialGradient><radialGradient id="radial-gradient-4" cx="47.26" cy="170.44" r="187.55" gradientTransform="translate(-9.54 -15.57) scale(1 0.99)" gradientUnits="userSpaceOnUse"><stop offset="0.52" stop-color="#fff"/><stop offset="0.6" stop-color="#c6e2f1"/><stop offset="0.71" stop-color="#80bee0"/><stop offset="0.8" stop-color="#49a2d2"/><stop offset="0.89" stop-color="#218dc8"/><stop offset="0.95" stop-color="#0981c2"/><stop offset="0.99" stop-color="#007cc0"/></radialGradient></defs><g class="cls-1"><g id="Layer_1" data-name="Layer 1"><path class="cls-2" d="M244.86,151.19c0,52-42.31,94.16-94.51,94.16s-94.52-42.16-94.52-94.16S98.15,57,150.35,57,244.86,99.19,244.86,151.19Z"/><path class="cls-3" d="M245,151.2s0,.57,0,1.69,0,2.78-.2,5a88.16,88.16,0,0,1-3.08,18.54A96.16,96.16,0,0,1,230,203.14a94.8,94.8,0,0,1-26.43,27.35,97.82,97.82,0,0,1-19.47,10.13,92.21,92.21,0,0,1-22.87,5.43,94.33,94.33,0,0,1-49.49-8A97.43,97.43,0,0,1,71.2,203.52a95.18,95.18,0,0,1-11.88-24.86,97.68,97.68,0,0,1-3.18-13.55,96.26,96.26,0,0,1-.29-27.88,98.19,98.19,0,0,1,2.91-13.68,95.19,95.19,0,0,1,52.63-59.91,93.17,93.17,0,0,1,25-7.21c2.13-.25,4.22-.57,6.32-.68,1.05-.06,2.1-.18,3.15-.21l3.13-.08c2.17-.08,4.11.07,6.15.1s4.13.25,6.15.52a93.29,93.29,0,0,1,22.88,5.55,98,98,0,0,1,19.47,10.19A95.34,95.34,0,0,1,230,99.23,96.34,96.34,0,0,1,241.74,126a90.66,90.66,0,0,1,3.06,18.55c.2,2.17.14,3.84.19,5S245,151.2,245,151.2Zm-.31,0-.06-1.69c-.05-1.12,0-2.78-.24-4.93a89,89,0,0,0-3.28-18.41,81.09,81.09,0,0,0-4.61-12.51,90.2,90.2,0,0,0-7.7-13.65,95.12,95.12,0,0,0-67.95-40.77c-1.94-.25-3.88-.32-5.86-.48l-3-.07-1.52,0-1.47,0-3,.08c-1,0-2,.14-3,.22-2,.11-4.06.42-6.1.67a93.52,93.52,0,0,0-12.17,2.65c-2,.54-4,1.27-6,1.91-2,.79-4,1.46-5.93,2.38a93.61,93.61,0,0,0-56,84.62,103,103,0,0,0,.87,13.69A91,91,0,0,0,72,203a92.18,92.18,0,0,0,40.39,33.51c2,.91,4,1.58,6,2.34s4,1.36,6.08,1.87a93.31,93.31,0,0,0,12.29,2.5c2.06.23,4.09.51,6.12.6,1,.05,2,.15,3,.17l3.07,0c2,.08,4-.07,6-.1s4-.26,5.91-.51a95.82,95.82,0,0,0,67.94-41,89,89,0,0,0,7.7-13.66,80.06,80.06,0,0,0,4.61-12.51,89.48,89.48,0,0,0,3.26-18.42c.22-2.14.19-3.81.24-4.93Z"/><g class="cls-4"><path class="cls-5" d="M72.77,180.46c2.25-14.37,2-28.21,1.54-42.68-.45-14.12-.55-28.25-.08-42.36-1.21,1.64-2.38,3.31-3.48,5,.34,5.12-.2,10.36-.24,15.49-.13,10.44.06,20.88-.65,31.31a248.74,248.74,0,0,1-4.09,31.35c-.56,2.83-1.48,6.2-2.28,9.74a92.67,92.67,0,0,0,5.75,11.17C70.51,193.18,71.77,186.84,72.77,180.46Z"/><path class="cls-6" d="M104.13,168.91c-1.4-32-6-63.75-6.67-95.7A95.22,95.22,0,0,0,76.18,92.88c-.61,16.2-.48,32.44.18,48.64.53,13.14.38,25.89-1.76,38.9-1.17,7.11-2.6,14.19-4,21.28a95,95,0,0,0,32.83,31.22c0-.29,0-.57,0-.85C103.78,211,105.05,190,104.13,168.91ZM91.32,186.58a1.35,1.35,0,0,1-.92,1.25.72.72,0,0,1-1-.7v-.66a1.36,1.36,0,0,1,.92-1.26.74.74,0,0,1,1,.7Zm.78-37.25c-.24.36-.94.77-1.33.4a10.31,10.31,0,0,1-1.08-13.32A1,1,0,0,1,90.8,136,8.79,8.79,0,0,1,92,134.64c.34-.31,1-.48,1.3,0C96.15,139.12,94.93,145.11,92.1,149.33Z"/><path class="cls-5" d="M149.87,90.83c-1.65-11.22-4.34-22.35-6.38-33.55A94.19,94.19,0,0,0,99.33,71.94c.6,30.79,4.93,61.34,6.48,92.21,1,20.4.13,40.8-.34,61.21-.07,2.86-.21,5.67-.43,8.46a93.94,93.94,0,0,0,23.07,8.88c.92-4.57,2.06-8.94,2.48-12.4,2.84-23.42,11.48-45.34,16-68.37C151.23,138.7,153.34,114.38,149.87,90.83Zm-37.61,78a2.45,2.45,0,0,1-.81,2.1,9.36,9.36,0,0,1-1.32,2c-.37.4-1.26.44-1.4-.2a17.85,17.85,0,0,1-.34-4.77,15.73,15.73,0,0,1,.85-6.62c.18-.56,1.19-1.62,1.73-.75A10.85,10.85,0,0,1,112.26,168.84Zm6,34.31c-.63.39-1.66.87-2-.08a1.59,1.59,0,0,1,0-.75c0-.24,0-.28,0-.36-.42-.52,0-1.3.56-1.61.37-.58,1.37-1,1.66-.15.18.51.36,1,.53,1.55A1.3,1.3,0,0,1,118.24,203.15Zm19.87-26.67c-.62,1.83-2.3,3.86-4.48,2.94s-2.39-4.17-2.39-6c0-2.17.37-5.21,2.62-6.29a4,4,0,0,1,.76-.82c1.78-1.33,3.5.35,3.9,2.13A15.24,15.24,0,0,1,138.11,176.48Z"/><path class="cls-7" d="M148.58,219.87c4.94-19.12,12.75-37.43,17.26-56.68,4.88-20.89,5.25-42.52,2.56-63.75-1.76-13.87-6.34-27.78-7.53-41.81A96.33,96.33,0,0,0,150.35,57c-1.62,0-3.22.05-4.81.13,2,10.39,4.4,20.72,5.93,31.18,3.09,21,2.27,42.59-1.2,63.53-3.7,22.41-11.85,43.76-16,66.07-1.4,7.64-2.56,15.35-3.85,23-.11.68-.24,1.42-.39,2.19a95.34,95.34,0,0,0,14.53,2C144.52,236.57,146.57,227.64,148.58,219.87Z"/><path class="cls-6" d="M230.93,102a94.82,94.82,0,0,0-34.49-33c1.75,9.4,5.28,18.55,8.86,27.36,5.55,13.64,10.65,26.9,13.15,41.49,2.64,15.43,4.37,30.48,10,45.24,1.64,4.32,3.37,8.61,5.05,12.91a93.13,93.13,0,0,0,7.73-18.8C232.71,153.75,229.45,127.44,230.93,102Zm-13.41-3.44a16.91,16.91,0,0,0-.18,1.73c0,.82-1.46,2-1.85.8-.44-1.37-.61-2.79-1-4.16-.33-1,1.41-2.26,1.81-1l0,.11a.74.74,0,0,1,1,.41,2.82,2.82,0,0,1,.18.61.24.24,0,0,0,.08.06A1.05,1.05,0,0,1,217.52,98.59Z"/><path class="cls-5" d="M232.67,105c-1,23.28,2,47.19,9.45,68.81A94,94,0,0,0,232.67,105Z"/><path class="cls-5" d="M226,182.4c-5.39-14.92-6.73-30-9.66-45.44-2.87-15.14-8.59-28.71-14.19-43-3.3-8.46-6.42-17.18-7.86-26.14a94.68,94.68,0,0,0-16.41-6.72C180,67,182.45,72.82,184.49,78.8c6.16,18,9.29,36.85,10.95,55.8,1.76,20.13,2.36,39.7-1.17,59.68-1.75,9.87-3.82,19.71-6.22,29.45a95.94,95.94,0,0,0-2.93,15,94.82,94.82,0,0,0,47-40.32C230,193.09,227.9,187.78,226,182.4Zm-13.43-17.17a1.38,1.38,0,0,1-1,2.27c-.63,0-.79-.46-.66-1C210.39,165.71,211.77,164.38,212.52,165.23Zm1.58,26.91c-.2.45-1,1.09-1.48.64-2.68-2.34-3.31-6-2.55-9.37,0-.66.11-1.31.2-1.87s1.15-1.47,1.72-.74C214.56,184,215.86,188.23,214.1,192.14Z"/><path class="cls-6" d="M193.37,133.15C191.27,111.55,187,91,179.12,70.8q-2-5.2-3.7-10.38a93.23,93.23,0,0,0-12.59-2.54c1.32,13.75,5.84,27.34,7.45,41C172.57,118.12,173,138,169,157.07c-4,19.61-11.84,38.07-17.14,57.32-2.56,9.27-5.76,20.41-5.48,30.85,1.32,0,2.63.11,4,.11a94.67,94.67,0,0,0,32.86-5.86,75.58,75.58,0,0,1,2.17-12.28c2.33-9.55,4.54-19.15,6.31-28.82C195.74,176.48,195.52,155.24,193.37,133.15Zm-31.06,99.44a8.72,8.72,0,0,1-1.48,3.37c-.22.39-.92.74-1.33.4-.92-.78-1.79-1.68-1.5-3,.21-.89,1-1.46,1.32-2.3a1.42,1.42,0,0,1,.19-.32c.07-.32.15-.65.24-1,.24-.71,1.39-1.63,1.83-.53A7,7,0,0,1,162.31,232.59Zm8.92-31.88c-.26-.79-.5-1.69.23-2.33l0,0a13.09,13.09,0,0,0,.23-1.5,1.31,1.31,0,0,1,.91-1.26.72.72,0,0,1,1,.7v.33a.63.63,0,0,1,.38.26c.73.93.05,2.11-.88,2.78,0,.08,0,.17,0,.26a1.35,1.35,0,0,1-.29.71c-.08.2-.18.29-.31.3C172,201.31,171.46,201.42,171.23,200.71ZM173.86,222c-2,.09-2.57-1.41-2.14-3.16a16.68,16.68,0,0,1,.74-2.16,7.35,7.35,0,0,1,1.59-5,.94.94,0,0,1,1.49-.24,5.87,5.87,0,0,1,.62.82s.07,0,.12,0c.35-.05.84,0,.92.46a9.38,9.38,0,0,1,.13,2.33C178.12,218.1,177.53,221.77,173.86,222Zm9.51-59.12c-1.1-.07-1.22-1.44-1.24-2.3,0-1.08,1.85-1.93,1.88-.55a2.18,2.18,0,0,0,.13.91C184.94,161.28,184.32,162.89,183.37,162.83Z"/><path class="cls-5" d="M67.3,156.07c1.17-11.95,1.3-23.95,1.3-35.95,0-5.51.65-11.29.44-16.93a93.82,93.82,0,0,0-6.55,82.72C64.41,176,66.31,166.14,67.3,156.07Z"/></g><path class="cls-8" d="M245,151.61A93.92,93.92,0,1,1,151.1,57.45,94,94,0,0,1,245,151.61Z"/><g class="cls-9"><path class="cls-10" d="M86.67,182.84c-2-.93-3.78-2.28-5.82-3.21-.74-.35-.52-1.21,0-1.7,12.39-12.66,36-4.24,46.81-18.41-15.54.91-31.93,4.89-46.6-2.18-8.63-4.16-2.74-9.66,3.21-12.33,8.12-3.65,16.63-3.91,24.89-6.74.9-.31,5.23-1.56,3.61-3.71a6.85,6.85,0,0,0-3.63-2.69,23.51,23.51,0,0,0-8.8-.54c-5,.5-10,1.84-15.08,1.63-1,0-.72-1.22-.27-1.73,8.83-9.87,21.86-9.76,33.55-13.8,2-.68,10.67-3.32,7.11-5.74-2.9-2-6.34-2.46-9.79-2.47-5.17,0-10.43,1-15.59.39-.82-.08-.87-.93-.46-1.51,14.94-22,44.23-17.51,64.88-30.21-1.74-2.07-3.9-3.71-5.51-5.92a1.18,1.18,0,0,1,.32-1.44c5.92-5.18,13-5.65,20.32-5.43a90.29,90.29,0,0,0-65.61,168C95,222,73.76,203.16,86.67,182.84Z"/></g><path class="cls-11" d="M233.48,111.16s17.84,67.5-22.9,107.84C210.58,219,259.3,185.75,233.48,111.16Z"/><path class="cls-12" d="M93.41,79.36S34.62,128.91,71.5,194.87C71.5,194.87,43.12,131.07,93.41,79.36Z"/><path class="cls-13" d="M193,88.59c-4.15-19.93-10.27-39.39-20.49-56.18a83.71,83.71,0,0,0-8.67-11.76,47.62,47.62,0,0,0-11-9.33c-1.07-.56-2.1-1.19-3.2-1.67a32.7,32.7,0,0,0-3.35-1.31,24.51,24.51,0,0,0-3.52-.89L141,7.14c-.6-.08-1.16-.07-1.73-.11a27.63,27.63,0,0,0-13.57,2.86,40.7,40.7,0,0,0-10.77,7.89,67.61,67.61,0,0,0-8.14,9.93,117.75,117.75,0,0,0-11.2,21.41,203.47,203.47,0,0,0-9.79,32.09c.19-.15.39-.28.59-.41A188.19,188.19,0,0,1,96.5,49.52,117.92,117.92,0,0,1,108,28.58a67.66,67.66,0,0,1,8.15-9.51,38.67,38.67,0,0,1,10.39-7.3,25.44,25.44,0,0,1,12.55-2.38c.56,0,1.15,0,1.69.13l1.56.32a21,21,0,0,1,3.13.87A31,31,0,0,1,148.52,12c1,.48,1.95,1.09,2.93,1.63,7.64,4.78,13.48,12.38,18.3,20.49A140.73,140.73,0,0,1,181.4,60.57a236.3,236.3,0,0,1,7.42,28.85A324.6,324.6,0,0,1,194.3,150a323.71,323.71,0,0,1-5.5,60.56,232.23,232.23,0,0,1-7.41,28.85,140.12,140.12,0,0,1-11.66,26.49c-4.82,8.1-10.65,15.7-18.28,20.49a27.1,27.1,0,0,1-12.36,4.2,25.35,25.35,0,0,1-12.53-2.38,38.65,38.65,0,0,1-10.41-7.31,65.61,65.61,0,0,1-8.13-9.49,115.85,115.85,0,0,1-11.51-21,187.1,187.1,0,0,1-10.17-31.41c-.21-.15-.42-.3-.62-.46a204.16,204.16,0,0,0,9.82,32.28,119.43,119.43,0,0,0,11.2,21.42,68.64,68.64,0,0,0,8.13,9.92,41,41,0,0,0,10.79,7.89A27.71,27.71,0,0,0,139.23,293a29.75,29.75,0,0,0,13.61-4.3,47.58,47.58,0,0,0,11-9.32,84.29,84.29,0,0,0,8.67-11.76,144,144,0,0,0,12.53-26.93,231.54,231.54,0,0,0,8-29.27A313.24,313.24,0,0,0,199,150,313.38,313.38,0,0,0,193,88.59Z"/><path class="cls-14" d="M192,88.59c-4.15-19.93-10.27-39.39-20.49-56.18a83.71,83.71,0,0,0-8.67-11.76,47.78,47.78,0,0,0-11-9.33c-1.08-.56-2.11-1.19-3.2-1.67a32.15,32.15,0,0,0-3.37-1.31,24,24,0,0,0-3.51-.89l-1.81-.31c-.59-.08-1.15-.07-1.71-.11a27.71,27.71,0,0,0-13.59,2.86,41,41,0,0,0-10.76,7.89,69,69,0,0,0-8.15,9.93A119,119,0,0,0,94.48,49.12a205.69,205.69,0,0,0-9.8,32.09c.21-.15.4-.28.61-.41A187.19,187.19,0,0,1,95.43,49.52a118,118,0,0,1,11.51-20.94,66.93,66.93,0,0,1,8.14-9.51,38.72,38.72,0,0,1,10.4-7.3A25.36,25.36,0,0,1,138,9.39c.56,0,1.15,0,1.69.13l1.55.32a20.55,20.55,0,0,1,3.15.87,30.82,30.82,0,0,1,3,1.25c1,.48,2,1.09,2.94,1.63C158,18.37,163.86,26,168.68,34.08a140.08,140.08,0,0,1,11.65,26.49,236.33,236.33,0,0,1,7.43,28.85A326.3,326.3,0,0,1,193.24,150a324.55,324.55,0,0,1-5.5,60.56,235.83,235.83,0,0,1-7.42,28.85,140.73,140.73,0,0,1-11.65,26.49c-4.82,8.1-10.66,15.7-18.3,20.49a27,27,0,0,1-12.35,4.2,25.35,25.35,0,0,1-12.53-2.38,38.65,38.65,0,0,1-10.41-7.31,66.32,66.32,0,0,1-8.14-9.49,117,117,0,0,1-11.5-21,188.1,188.1,0,0,1-10.18-31.41l-.62-.46a205.39,205.39,0,0,0,9.84,32.28,118.09,118.09,0,0,0,11.19,21.42,69.38,69.38,0,0,0,8.14,9.92,40.86,40.86,0,0,0,10.77,7.89A27.77,27.77,0,0,0,138.17,293a29.71,29.71,0,0,0,13.6-4.3,47.83,47.83,0,0,0,11-9.32,85.92,85.92,0,0,0,8.67-11.76A144.67,144.67,0,0,0,184,240.66,229.82,229.82,0,0,0,192,211.39,311.73,311.73,0,0,0,197.91,150,312.61,312.61,0,0,0,192,88.59Z"/><path class="cls-15" d="M164.78,99.49c-3-14.34-7-28.42-13.09-41.31a22,22,0,0,1-2.79-.39q-.5.08-1,.12a154.43,154.43,0,0,1,5.91,15.15,221.82,221.82,0,0,1,7,27.21A306.4,306.4,0,0,1,166,157.38a306.49,306.49,0,0,1-5.18,57.11,219.9,219.9,0,0,1-7,27.2c-.38,1.15-.77,2.29-1.19,3.44,1.36-.21,2.71-.4,4.06-.56l.63-1.7a219,219,0,0,0,7.5-27.59,296.29,296.29,0,0,0,5.61-57.9A294.6,294.6,0,0,0,164.78,99.49Z"/><path class="cls-16" d="M182.94,60.35s.88,2.63,2.14,7.31c.63,2.35,1.35,5.2,2.13,8.49s1.61,7,2.34,11.11,1.52,8.54,2.28,13.24c.42,2.35.67,4.79,1,7.27s.69,5,.91,7.61c.42,5.18,1.07,10.53,1.26,16q.23,4.09.45,8.24c.08,2.76.09,5.54.14,8.31s.1,5.56,0,8.32-.2,5.52-.29,8.25c-.09,5.46-.67,10.82-1.07,16s-1.14,10.16-1.78,14.89c-.33,2.36-.67,4.66-1,6.87s-.85,4.33-1.26,6.38c-.83,4.08-1.5,7.83-2.3,11.11s-1.63,6.11-2.26,8.46c-1.27,4.68-2,7.35-2,7.35s.63-2.7,1.71-7.42c.55-2.36,1.21-5.23,2-8.52s1.24-7.06,2-11.14c.37-2,.74-4.17,1.13-6.37s.56-4.52.86-6.88c.54-4.71,1.25-9.68,1.55-14.85s.91-10.51,1-16c.08-2.71.16-5.45.24-8.2s-.05-5.52-.05-8.28,0-5.53-.09-8.28-.26-5.49-.39-8.21c-.16-5.44-.77-10.77-1.16-15.94-.19-2.59-.58-5.11-.82-7.59s-.5-4.91-.87-7.26c-.67-4.7-1.26-9.16-2-13.25s-1.42-7.82-2.05-11.14-1.3-6.17-1.85-8.53-1-4.21-1.34-5.47S182.94,60.35,182.94,60.35Z"/></g></g></svg>