<svg xmlns="http://www.w3.org/2000/svg" xmlns:xlink="http://www.w3.org/1999/xlink" viewBox="0 0 300 300"><defs><style>.cls-1{isolation:isolate;}.cls-2{fill:#ad3d1f;}.cls-3{fill:#232020;}.cls-4{fill:#f05f3d;}.cls-5{fill:#f37d40;}.cls-6{fill:#ed3439;}.cls-7{fill:#f68e42;}.cls-8{fill:#ce1e2f;}.cls-9{fill:#f48040;}.cls-10{fill:#f0543b;}.cls-11{fill:#801215;}.cls-12{fill:#96121c;opacity:0.6;}.cls-13,.cls-14{mix-blend-mode:multiply;}.cls-13{fill:url(#radial-gradient);}.cls-14{fill:#5f1c00;opacity:0.7;}.cls-15{mask:url(#mask);}.cls-16{mask:url(#mask-2);}.cls-17{mix-blend-mode:screen;fill:url(#radial-gradient-2);}.cls-18{fill:#fff;}.cls-18,.cls-19{mix-blend-mode:overlay;}.cls-19{fill:#fffbda;opacity:0.5;}.cls-20{filter:url(#luminosity-noclip-2);}.cls-21{filter:url(#luminosity-noclip);}</style><radialGradient id="radial-gradient" cx="46.52" cy="100.03" r="235.17" gradientTransform="translate(-10.5 -15.57) scale(1 0.99)" gradientUnits="userSpaceOnUse"><stop offset="0.55" stop-color="#fff"/><stop offset="0.63" stop-color="#fdfcfc"/><stop offset="0.69" stop-color="#f9f3f2"/><stop offset="0.74" stop-color="#f0e3e2"/><stop offset="0.79" stop-color="#e5cdcb"/><stop offset="0.84" stop-color="#d5b0ae"/><stop offset="0.89" stop-color="#c38c89"/><stop offset="0.93" stop-color="#ad625e"/><stop offset="0.97" stop-color="#94332e"/><stop offset="1" stop-color="#800d07"/></radialGradient><filter id="luminosity-noclip" x="-652.59" y="99.56" width="13.3" height="17.23" filterUnits="userSpaceOnUse" color-interpolation-filters="sRGB"><feFlood flood-color="#fff" result="bg"/><feBlend in="SourceGraphic" in2="bg"/></filter><mask id="mask" x="-652.59" y="99.56" width="13.3" height="17.23" maskUnits="userSpaceOnUse"><g class="cls-21"/></mask><filter id="luminosity-noclip-2" x="-652.59" y="32.79" width="843.1" height="206.22" filterUnits="userSpaceOnUse" color-interpolation-filters="sRGB"><feFlood flood-color="#fff" result="bg"/><feBlend in="SourceGraphic" in2="bg"/></filter><mask id="mask-2" x="-652.59" y="32.79" width="843.1" height="206.22" maskUnits="userSpaceOnUse"><g class="cls-20"/></mask><radialGradient id="radial-gradient-2" cx="194.33" cy="200.96" r="165.07" gradientTransform="translate(-10.5 -15.57) scale(1 0.99)" gradientUnits="userSpaceOnUse"><stop offset="0" stop-color="#393939"/><stop offset="0.26" stop-color="#3b3b3b"/><stop offset="0.41" stop-color="#444441"/><stop offset="0.53" stop-color="#52514b"/><stop offset="0.63" stop-color="#66655a"/><stop offset="0.73" stop-color="#807f6d"/><stop offset="0.82" stop-color="#9f9e84"/><stop offset="0.91" stop-color="#c5c39f"/><stop offset="0.99" stop-color="#f0edbe"/><stop offset="1" stop-color="#f9f6c5"/></radialGradient></defs><g class="cls-1"><g id="Layer_1" data-name="Layer 1"><path class="cls-2" d="M272,150.2c0,66.86-54.39,121.05-121.5,121.05S28.94,217.06,28.94,150.2s54.41-121,121.51-121S272,83.35,272,150.2Z"/><path class="cls-3" d="M272.16,150.2s0,.76-.05,2.19,0,3.57-.24,6.36a114.3,114.3,0,0,1-4,23.84,124.12,124.12,0,0,1-15.1,34.4,121.89,121.89,0,0,1-34,35.16,126.9,126.9,0,0,1-25,13,118.35,118.35,0,0,1-29.41,7,121.28,121.28,0,0,1-63.62-10.3A125.38,125.38,0,0,1,48.7,217.48a121.85,121.85,0,0,1-15.27-32,124.81,124.81,0,0,1-4.08-17.42,133.83,133.83,0,0,1-1.51-17.92A133.3,133.3,0,0,1,29,132.26a125.64,125.64,0,0,1,3.74-17.59,122.31,122.31,0,0,1,67.66-77,119.35,119.35,0,0,1,32.09-9.26c2.71-.33,5.4-.74,8.12-.88,1.34-.09,2.69-.22,4-.27l4-.1c2.79-.11,5.28.09,7.92.12,2.64.21,5.3.34,7.88.67a120.34,120.34,0,0,1,29.43,7.13,125.43,125.43,0,0,1,25,13.12,122.21,122.21,0,0,1,34,35.22,124.17,124.17,0,0,1,15.1,34.41,116.32,116.32,0,0,1,3.94,23.85c.24,2.78.18,4.92.24,6.36S272.16,150.2,272.16,150.2Zm-.41,0-.06-2.17c-.08-1.44,0-3.57-.32-6.34A114.36,114.36,0,0,0,267.15,118,103.53,103.53,0,0,0,261.23,102a114,114,0,0,0-9.9-17.55A122.34,122.34,0,0,0,164,32c-2.5-.32-5-.42-7.54-.62l-3.9-.09-2-.05-1.89,0-3.88.11c-1.3.05-2.6.19-3.9.28-2.62.14-5.22.54-7.85.87a118.57,118.57,0,0,0-15.65,3.4c-2.6.69-5.15,1.64-7.74,2.47-2.53,1-5.13,1.87-7.62,3A120.36,120.36,0,0,0,30,150.23a129.66,129.66,0,0,0,1.13,17.59,122.59,122.59,0,0,0,3.7,17.27A120.18,120.18,0,0,0,49.73,216.8a118.45,118.45,0,0,0,51.92,43.07c2.51,1.17,5.14,2,7.7,3,2.62.82,5.19,1.75,7.83,2.4A120.11,120.11,0,0,0,133,268.5c2.64.29,5.27.66,7.87.77,1.32.07,2.59.19,3.91.22l3.95.06c2.56.11,5.16-.1,7.72-.13,2.55-.22,5.1-.34,7.6-.67A123.21,123.21,0,0,0,251.35,216a114.59,114.59,0,0,0,9.91-17.56,103,103,0,0,0,5.92-16.09,114.66,114.66,0,0,0,4.19-23.67c.28-2.76.24-4.9.32-6.34S271.75,150.2,271.75,150.2Z"/><path class="cls-4" d="M68.58,191.64c13.22,3.41,28,1.7,41.1-1.09,11.79-2.5,23.51-2.54,35.44-1.11,13.17,1.58,26.48,4.18,39.78,3.35,13.14-.81,24.25-7.22,36.37-11.55,11.65-4.17,23.86-5,35.4-9.75,4.72-1.93,9.41-3.94,14.21-5.57.09-.7.2-1.38.29-2.07-12,4.15-24.1,10.75-36.14,10.28-13.36-.52-23.47-8.28-35.54-12.8-13.6-5.1-26.51-6.73-40-.29-12.15,5.77-22.61,14.51-34.91,20-10.63,4.7-22.66,7-34.23,7.4-12.61.47-24.57-.76-36.5-5-7.36-2.61-14.69-5.73-22.2-7.95.19.87.4,1.73.6,2.6C44.68,180.49,57.29,188.74,68.58,191.64Z"/><path class="cls-4" d="M260.11,185.81a18.9,18.9,0,0,0,6.13.94c.4-1.22.76-2.45,1.12-3.69C265,184,262.51,184.85,260.11,185.81Z"/><path class="cls-5" d="M256,187.08c-.88-.47-.15-2,.5-2.27,3.79-1.76,7.76-3,11.62-4.59a117.8,117.8,0,0,0,2.38-11.62c-6.82,2.38-13.42,5.57-20.33,7.93-10.9,3.72-22.27,4.41-33,8.85-10.53,4.34-21.21,9.63-32.83,10-11.84.4-23.45-1.29-35.17-2.78-15.46-2-29-1.29-44.29,1.39-10.23,1.79-20.51,2.63-30.86,1.27-10.2-1.34-19.23-5.93-28.76-9.6a122,122,0,0,0-12.2-4.26,124.24,124.24,0,0,0,4.62,13.85c9.54,3.07,19.22,5.63,29,7.88,5.71,1.32,11.85,2.15,17.37,4.16,4.66,1.69,9.45,3.85,14.56,3.22,9.78-1.19,19-6.74,28.94-6.6a127.57,127.57,0,0,1,29.15,4c10.68,2.62,21.67,5.86,32.76,5.74,11.66-.13,23.5-2.27,34.85-4.81a334.63,334.63,0,0,0,37.8-11c1.21-2.8,2.3-5.66,3.3-8.56A19.68,19.68,0,0,1,256,187.08Z"/><path class="cls-6" d="M52,220.22c11.17,5.22,20.69,6.95,32.89,3.62,10.46-2.86,20.88-6.27,31.88-5.74s21,3.88,31.39,7.61c22.35,8,46.28,1.4,68.73-3.09,12.59-2.52,25.89-5.3,37.93-10.47a119.85,119.85,0,0,0,5.93-11.21,295.28,295.28,0,0,1-41.27,11.48c-10.69,2.07-22.07,4.48-33,3.83-9.75-.6-19.13-2.86-28.58-5.19-11.84-2.9-25.4-6.59-37.59-3.64-8.84,2.13-17.38,6.31-26.66,5.68-4.5-.3-8.44-2.89-12.76-3.88-6-1.37-11.92-2.69-17.87-4.1-1.82-.44-15.41-4.33-24.08-6.91a122.13,122.13,0,0,0,12.18,21.61Z"/><path class="cls-7" d="M72.56,243c14.6-3.29,28.8-10,43.84-6.28,21.45,5.27,42.18,14.75,64.82,13,20.2-1.55,39.31-10.21,58.3-17.32a121.34,121.34,0,0,0,13.16-16.92c-10.81,4.33-22.46,6.94-33.68,9.19-19.64,3.92-42,10.67-62.07,6.38-13.06-2.8-24.7-9.6-38.33-10.27-12.76-.62-23.82,3.38-36,6.12-10,2.25-18.56,1.76-28-2.48A122.47,122.47,0,0,0,72.56,243Z"/><path class="cls-4" d="M108.05,247.93c16.62-2,31.55,3.27,47.8,5.53,18.46,2.57,40.25,2.92,58.19-2.69,2.67-.83,5.31-1.77,7.92-2.77a121.47,121.47,0,0,0,13.76-11.64c-18.36,7-37.71,15.83-57.48,16.13a116.75,116.75,0,0,1-29-3.44c-10.71-2.54-20.94-6.54-31.59-9.16-14.94-3.67-28.49,1.91-42.53,5.24a120.11,120.11,0,0,0,10.73,7.54A159.52,159.52,0,0,1,108.05,247.93Z"/><path class="cls-8" d="M206.8,255.05A163.61,163.61,0,0,1,157,256.32c-18.16-2.53-35.33-8.73-53.86-5.07-4.73.94-9.41,2.12-14.07,3.33a121.54,121.54,0,0,0,124.79-1.15A65.81,65.81,0,0,1,206.8,255.05Z"/><path class="cls-9" d="M233.21,77.31c-10.18,4-19.21,9.57-29,14.22-17.86,8.47-36.57,2.41-55.34,2.29-10.71-.07-21.43,1.08-32.14.72-10.36-.34-19.62-2.7-29.55-5.46-11.71-3.26-23.44-6.17-34.65-10.47q-3.56,4.85-6.65,10c6.58,8.39,13.58,12.49,25.31,12.65,25,.32,49.24,5.22,74.08,7.21s49.25.07,73.71-3.9c12.25-2,28.51-3.3,38.45-11.73a122,122,0,0,0-13-19.24A113,113,0,0,0,233.21,77.31Z"/><path class="cls-8" d="M151.91,42.78c8-.3,16.24.4,24.25-.49,5.76-.64,10-2.4,13.09-6.75a121.38,121.38,0,0,0-74.54-1C123.29,44,138.53,43.27,151.91,42.78Z"/><path class="cls-9" d="M191,36.13c-2.49,3.87-5.57,7-11.47,8.25-9.6,2-20.08.71-29.85,1.08-14.12.54-29.48.47-37.85-10a121,121,0,0,0-21.56,9.68c11.53,8.77,30.39,6.61,45.08,6.19s36.56.79,51.28-1.08c6.87-.88,6.83-1.27,13.72-2.19a77.65,77.65,0,0,0,11.58-2.16A122.47,122.47,0,0,0,191,36.13Z"/><path class="cls-10" d="M201.78,50.41c-7.52,1-15,2.57-22.58,3.34-16.19,1.63-32.42-.41-48.64.37-14.6.69-32,1.41-42.86-7.49A122.1,122.1,0,0,0,70,59.62c11.67,3.79,23.25,7.82,35.67,8.51,17.19,1,34.29-1.63,51.49-.22,8.43.69,17.74,1.76,25.91-1,7.07-2.42,12.52-6.67,18.53-10.92,4.71-3.33,9.65-6.36,14.83-7.28-.59-.39-1.21-.76-1.83-1.15A57.75,57.75,0,0,1,201.78,50.41Z"/><path class="cls-4" d="M219.93,51c-11.4-.74-22.37,11.55-31.92,16.5-12.61,6.55-27.49,2.61-40.9,2.4-15.74-.25-31.59,2.37-47.29.35-11.12-1.43-21.58-5.1-32.15-8.5-2.46,2.3-4.86,4.67-7.14,7.17,7,5.13,17.85,7,25.32,8,17.65,2.31,35.58,1.82,53.33,1.26,20.71-.66,41.16,1.6,61.43-4.12,10-2.83,18.9-8.39,28.39-12.54.85-.37,1.75-.79,2.67-1.2A122.58,122.58,0,0,0,219.93,51Z"/><path class="cls-8" d="M233.13,61.62c-5.9,2.43-11.71,6.06-15.84,8.09a101.36,101.36,0,0,1-29.47,9.75c-11.94,1.92-23.45.84-35.41,1-7.17.08-14.35.41-21.52.59-17.89.45-36.47.92-54.06-2.91-6-1.31-13-3.42-18.1-7.21-1.52,1.75-3,3.53-4.42,5.37C66.86,81,80,83.93,93,87.91c21.17,6.46,42,1.8,63.54,3.62,9.89.83,20,2.76,29.93,2,11.38-.84,19.63-6.08,29.51-11.07A156.84,156.84,0,0,1,242.9,71.76,120,120,0,0,0,233.13,61.62Z"/><path class="cls-8" d="M227.87,105.73c-24.89,4-49.8,7.41-75.1,5.94-13.54-.79-27-2.67-40.4-4.48-14-1.88-27.67-2.7-41.74-3.29-9.64-.4-18.09-2.38-24.34-10.09-.65-.8-1.28-1.67-1.92-2.58A119.8,119.8,0,0,0,33.6,117c15.4,5.92,29.93,14.89,46.81,15.65,23.3,1.05,44.39-10.67,67.46-11,12.29-.21,24.36,1.66,36.59,2.54a135.3,135.3,0,0,0,36.15-2.1,251.29,251.29,0,0,0,44-13.28,119.59,119.59,0,0,0-6.14-13.93C250.23,101.57,238.37,104.05,227.87,105.73Z"/><path class="cls-8" d="M233.13,61.62c-5.9,2.43-11.71,6.06-15.84,8.09a101.36,101.36,0,0,1-29.47,9.75c-11.94,1.92-23.45.84-35.41,1-7.17.08-14.35.41-21.52.59-17.89.45-36.47.92-54.06-2.91-6-1.31-13-3.42-18.1-7.21-1.52,1.75-3,3.53-4.42,5.37C66.86,81,80,83.93,93,87.91c21.17,6.46,42,1.8,63.54,3.62,9.89.83,20,2.76,29.93,2,11.38-.84,19.63-6.08,29.51-11.07A156.84,156.84,0,0,1,242.9,71.76,120,120,0,0,0,233.13,61.62Z"/><path class="cls-4" d="M220.66,124.56a135.07,135.07,0,0,1-34.29,2.38c-11.36-.82-22.7-2.68-34.11-2.74-24.67-.14-47.71,13.07-72.4,11.07C63,133.92,48.39,125.16,33,119.43c-.6,2.27-1.15,4.55-1.62,6.86,8.82,3.74,17.3,9,24.26,12.41C69.06,145.28,86.33,153.08,101,146c10.35-5,19.59-12.85,31.53-13.69,15.9-1.13,31.44,3.55,47.43,2.68a361.5,361.5,0,0,0,47.18-5.73C238,127.19,251,125.3,259.9,118.11a24.48,24.48,0,0,0,5.7-6.54c-.05-.17-.13-.35-.18-.52A231.41,231.41,0,0,1,220.66,124.56Z"/><path class="cls-4" d="M66.61,157.34c-10.26-8-25.42-8.77-37.44-14-.14,2.26-.23,4.53-.23,6.82,0,1,.07,1.92.09,2.88l1,.19C40.54,155.48,56.26,163.59,66.61,157.34Z"/><path class="cls-9" d="M266.52,114.48c-.12.15-.24.32-.36.48-5.65,6.9-13.83,10.68-22.3,13.07-14.46,4.07-29.71,6.28-44.62,7.91s-29.75,2.66-44.72.48c-9.33-1.35-19.88-3.27-29.14-.3-7.34,2.36-13.36,6.7-20.09,10.26-12.38,6.54-24.46,5.78-37.35.63-10.87-4.33-21-9.9-31.57-14.83-1.78-.83-3.66-1.71-5.63-2.58q-.9,5.18-1.36,10.49c5.28,2.36,11.17,3.79,16.34,5.33,8.28,2.47,17.21,4.87,23.84,10.7a1.38,1.38,0,0,1-.2,2c-10.9,8.6-26.62.79-38.27-1.87-.66-.15-1.31-.27-2-.41.14,2.52.33,5,.6,7.5,19.43,2.9,39.11,7.25,58.64,5.22,13.75-1.44,25-6.3,37.57-11.7a118.89,118.89,0,0,1,29.75-8.2,196.45,196.45,0,0,1,35.7-2c11.82.43,23.49,2.65,35.29,3.09,15.75.59,30-6.05,44.75-10.93A119.28,119.28,0,0,0,266.52,114.48Z"/><path class="cls-8" d="M223.56,152.25c-24.42-2.15-48.22-4.89-72.61-.21-22.64,4.33-42,18-65.32,19.36-18.69,1.11-37.13-2.62-55.6-5.31.28,2.15.6,4.29,1,6.4,7.31,2,14.42,5,21.64,7.56a97.84,97.84,0,0,0,42.75,5.42,93.49,93.49,0,0,0,42.65-14.59c9.37-6,19.22-13,30.26-15.59,11.91-2.82,23.32-.62,34.38,4.37,11.43,5.15,23.05,13.17,36.23,11.71,10.37-1.15,21.43-6.65,32.49-10.22.32-3.61.51-7.25.51-11,0-3-.15-6-.36-9C255.8,146.39,240.58,153.75,223.56,152.25Z"/><path class="cls-11" d="M272.16,150.2s0,.76-.05,2.19,0,3.57-.24,6.36a114.3,114.3,0,0,1-4,23.84,124.12,124.12,0,0,1-15.1,34.4,121.89,121.89,0,0,1-34,35.16,126.9,126.9,0,0,1-25,13,118.35,118.35,0,0,1-29.41,7,121.28,121.28,0,0,1-63.62-10.3A125.38,125.38,0,0,1,48.7,217.48a121.85,121.85,0,0,1-15.27-32,124.81,124.81,0,0,1-4.08-17.42,133.83,133.83,0,0,1-1.51-17.92A133.3,133.3,0,0,1,29,132.26a125.64,125.64,0,0,1,3.74-17.59,122.31,122.31,0,0,1,67.66-77,119.35,119.35,0,0,1,32.09-9.26c2.71-.33,5.4-.74,8.12-.88,1.34-.09,2.69-.22,4-.27l4-.1c2.79-.11,5.28.09,7.92.12,2.64.21,5.3.34,7.88.67a120.34,120.34,0,0,1,29.43,7.13,125.43,125.43,0,0,1,25,13.12,122.21,122.21,0,0,1,34,35.22,124.17,124.17,0,0,1,15.1,34.41,116.32,116.32,0,0,1,3.94,23.85c.24,2.78.18,4.92.24,6.36S272.16,150.2,272.16,150.2Zm-.41,0-.06-2.17c-.08-1.44,0-3.57-.32-6.34A114.36,114.36,0,0,0,267.15,118,103.53,103.53,0,0,0,261.23,102a114,114,0,0,0-9.9-17.55A122.34,122.34,0,0,0,164,32c-2.5-.32-5-.42-7.54-.62l-3.9-.09-2-.05-1.89,0-3.88.11c-1.3.05-2.6.19-3.9.28-2.62.14-5.22.54-7.85.87a118.57,118.57,0,0,0-15.65,3.4c-2.6.69-5.15,1.64-7.74,2.47-2.53,1-5.13,1.87-7.62,3A120.36,120.36,0,0,0,30,150.23a129.66,129.66,0,0,0,1.13,17.59,122.59,122.59,0,0,0,3.7,17.27A120.18,120.18,0,0,0,49.73,216.8a118.45,118.45,0,0,0,51.92,43.07c2.51,1.17,5.14,2,7.7,3,2.62.82,5.19,1.75,7.83,2.4A120.11,120.11,0,0,0,133,268.5c2.64.29,5.27.66,7.87.77,1.32.07,2.59.19,3.91.22l3.95.06c2.56.11,5.16-.1,7.72-.13,2.55-.22,5.1-.34,7.6-.67A123.21,123.21,0,0,0,251.35,216a114.59,114.59,0,0,0,9.91-17.56,103,103,0,0,0,5.92-16.09,114.66,114.66,0,0,0,4.19-23.67c.28-2.76.24-4.9.32-6.34S271.75,150.2,271.75,150.2Z"/><path class="cls-8" d="M209.52,176.69c-5.76-3.63-11.61-7.14-16.69-11.64-6.57-2.4-13.44-3.91-20.26-3.26-13.75,1.31-27.24,11.83-38.71,18.78-1.56.93-2,3.83.5,3.55,8.58-1,17-2.4,25.56-.64,7.2,1.48,14.41,1.35,21.72,1.5,8,.17,24.06.21,29.57-6.84C210.6,177.66,210,177.16,209.52,176.69Z"/><path class="cls-12" d="M193.86,174.65a19,19,0,0,0-9.64-5.73c-3.49-1.62-7.52-1.95-12-2.45-8.26-.92-13.31,4.85-20.1,8.09-1.9.93-2,4.17.56,3.91,7.3-.75,14.72,0,22,.62,5.56.48,11.44,1.78,16.92,0C193.17,178.62,195.28,176.38,193.86,174.65Z"/><path class="cls-13" d="M272,150.53c0,66.85-54.39,121-121.5,121s-121.51-54.2-121.51-121,54.41-121,121.51-121S272,83.68,272,150.53Z"/><path class="cls-14" d="M255.89,95s27.18,85.59-23,139.86C232.86,234.89,293.79,189.23,255.89,95Z"/><g class="cls-15"><g class="cls-16"><path class="cls-17" d="M54.27,212.57C52.12,208,49.8,199.18,57,198c7-1.16,17.06-2.63,14.48-12.9-1.57-6.29-5.28-11.5-8.81-16.82-7.08-10.63-17.88-26.73-6.71-38.52,5.28-5.58,12.43-7.77,19.25-10.92,9.34-4.3,13.18-11.24,16.6-20.55.54-1.49,1.2-5.69,3-6.46,3.27-1.44,1.53-3.09.85-5.4-.86-2.86,1.73-8.84,3.17-11.44,3.8-6.88,15.56-7.12,22.44-7.48,9.71-.51,65.72,2.12,56.84-17-2-4.23-7.79-10.11,0-11.72,3.28-.67,7.73-.37,12.44,0a121.55,121.55,0,0,0-37.63-6c-67.11,0-121.51,54.19-121.51,121A120.41,120.41,0,0,0,66.57,239C68.3,231.54,56.91,218.19,54.27,212.57Z"/></g></g><path class="cls-18" d="M79.28,58.81S3.2,122.5,50.91,207.3C50.91,207.3,14.19,125.28,79.28,58.81Z"/><path class="cls-19" d="M243.28,81.83c-7.58-1.34-15.37,2-22.07,5.34-9.73,4.8-17.75,8.18-28.67,9.57-11.75,1.49-23.08,3.38-35,2.47-9.07-.69-18.25-1.27-27.27.17-.82.13-1.24,1.78-.19,1.73,10.22-.44,19.41,2.86,29.26,4.91,6.88,1.42,14,1,21,.19a96.8,96.8,0,0,0,25.75-3.52C217.24,99.81,228.65,98.05,239,93c.69-.34.79-1.79-.22-1.54A166.62,166.62,0,0,1,219,94.81c2.12-1.31,4.23-2.66,6.48-3.78,5.56-2.79,11.53-3.29,17.35-5.09C244.7,85.36,245.86,82.28,243.28,81.83Z"/><path class="cls-19" d="M159.65,117.47c-16.36-5.24-34.65-2.34-51.14.51-10.56,1.83-20.63,2.9-31.33,1.39C67,117.94,55.8,113.71,45.75,111c-1-.28-2,1.33-.9,1.84,17.94,8.08,33.73,16.87,54.06,15.35,9.87-.73,20.13-5,29.55-7.87,10.75-3.29,20.15.72,30.66-.58C160.08,119.61,160.81,117.84,159.65,117.47Z"/><path class="cls-19" d="M178.31,141.76c-15.72-1.09-32.91-3.68-48.36.6-7.41,2-14.19,6.17-21.23,9.18-11.61,5-23.68,4.57-35.52.81-.23-.08-.54.31-.29.46,15.24,9,27.42,10.28,43.58,2.69,4-1.85,7.51-4.61,11.24-6.82,6.15-3.64,13.63-4.08,20.56-4.53,10-.65,19.76-1.15,29.79-1.4C178.61,142.74,179,141.8,178.31,141.76Z"/><path class="cls-19" d="M144.71,159.12c-13.06,2-24.84,9.84-37.53,13.37-15.79,4.39-33.47,6.25-49.6,2.67-.51-.12-1,.68-.44.88,13.61,4.83,29.75,7.21,44.1,5.43,7.38-.93,11.45-4.75,17-9.37,7.09-5.91,18.25-8.3,26.7-11.44C145.72,160.37,145.69,159,144.71,159.12Z"/><path class="cls-19" d="M127.1,211.69c-9.27-4.31-18.57-.07-27.81,2.17-15.12,3.66-29.08-4.84-43.77-6.34-.72-.08-1.38,1.26-.53,1.48,11.32,2.88,21.38,8.53,33.1,10,13,1.65,25.2-5.89,38.33-5.44C127.35,213.61,128.1,212.17,127.1,211.69Z"/><path class="cls-19" d="M256.44,178.16c-15.36-.9-31.35,7.59-45.14,13.34-10.71,4.45-21.37,8.57-33.14,8.69-9,.09-18.07-1.42-27-1.78-.22,0-.36.36-.1.4,8.77,1.63,17.4,4,26.19,5.47,8.42,1.42,17-.38,25.22-2.32,8.48-2,15.84-6.54,23.19-11,9.26-5.66,20-8.57,30.57-10.59C257.23,180.16,257.79,178.24,256.44,178.16Z"/><path class="cls-19" d="M226.72,213.08c-11.45,1-21.5,5.32-33.24,5.5-12.23.19-24.15,1.2-36.2-2-.41-.11-.81.57-.36.72,22.84,7.84,47.38,4,69.81-2.5C227.67,214.54,228,213,226.72,213.08Z"/><path class="cls-19" d="M83.57,96.65c-4-1.39-8.21-.53-12.43-.55-6.4,0-14-3.55-19.36-6.76-.66-.39-1.53.6-.91,1.12,9.71,8.17,20.1,9,32.27,8.06C84,98.46,84.49,97,83.57,96.65Z"/><path class="cls-19" d="M126.15,74.8c-18.2-2-38.93,2.88-55.71-6.65-.69-.4-1.6.95-.9,1.4,15.41,10,38.79,8,56.26,6.77C126.59,76.27,127.19,74.92,126.15,74.8Z"/><path class="cls-19" d="M128.27,64.63c-7.07-.56-14.13.64-21.22.58-5.31,0-13.74-2.81-18.35-5.43-.42-.23-.92.55-.53.84C98.43,68.1,116,68.34,128,67.13,129.23,67,129.75,64.75,128.27,64.63Z"/></g></g></svg>