<svg xmlns="http://www.w3.org/2000/svg" viewBox="0 0 2299.73 2174.16"><defs><style>.cls-1{isolation:isolate;}.cls-2{fill:#01243a;}.cls-3{fill:#002a49;mix-blend-mode:screen;opacity:0.2;}.cls-4{opacity:0.7;}.cls-5{fill:#fff;}.cls-6{fill:none;}</style></defs><g class="cls-1"><g id="Layer_1" data-name="Layer 1"><rect class="cls-2" x="-40.86" y="-33.13" width="2382.42" height="2240.97" transform="translate(2300.69 2174.7) rotate(180)"/><path class="cls-3" d="M-18.67,153.6v37.31c2.16,0,4.29-.13,6.46-.14,157.81-1,302.87,25.29,453.12,64.62,216.57,56.69,416.57,150.71,624.64,226.22C1195.31,528.69,1325,576,1459.37,612.14c78.77,17.84,158.55,30.68,239.76,36.27,119.09,3.69,239.45,3.51,357.82-6,28.89-2.31,57.52-5.79,86.2-9.35,2.27-.4,4.54-.81,6.81-1.25,17.85-3.51,35.59-7.42,53.17-11.87,15.38-3.89,30.67-8.16,45.75-12.87,7.45-2.33,14.82-4.92,22.25-7.31,32.54-10.48-24.89,10.88-27.21,11,21.55-.81,54.14-22.14,76.83-37V216.93c-236.64,63.58-507.3,39-744.43,4.73-162.2-23.44-322.18-56.81-483.59-83.77C941.62,112.65,790.11,91.41,636.49,89,120.87,80.68-12.91,149.21-18.67,153.6ZM1729.61,386.42c13.79-24.35,38.73-45.74,66-58.53,35.44-16.6,71.43-25.5,111.69-28.25a295.09,295.09,0,0,1,47.91.64,165.89,165.89,0,0,1,48,1.73c52.89,10.18,99.81,26.32,136.86,62.35,18,17.5,28.35,40.12,33,62.92,4.75,23.26.52,31-6.68,49.79-8,20.89-8.32,23.77-29,44-41.37,40.49-105.16,55-164,62.89a253.86,253.86,0,0,1-83.87-3.16c-51.43-10.61-100.94-26.47-136.68-62.4C1716.54,481.8,1704.41,430.87,1729.61,386.42ZM1304,438.09c.19-18,7.39-33.56,21.58-47.07a132.71,132.71,0,0,1,33.31-23c11.9-5.76,25.45-11.19,39-13.64,24.5-4.42,43.15-6.4,68.35-3.23a160.12,160.12,0,0,1,39.45,10c18,7.28,36.68,17.61,48.74,31.73,15.73,18.44,26.69,41.22,21.57,64.79-6.77,31.14-30.64,53.65-61,69.62-22.28,11.71-51.66,15.54-77.09,11.84a137.69,137.69,0,0,1-24.43-6.11,137.21,137.21,0,0,1-16.08-4.59c-28.33-7.93-55.77-20.39-73.53-42.22l-13.12-17.85Q1302,453.9,1304,438.09ZM952.63,242c18.14-33.7,65.19-39,103.22-35.25,30,2.93,60.57,19,73.63,43.36,9,16.74,9.2,34.4,6.39,52.42-3.24,20.79-24.17,37.24-46.39,42.81-25.8,6.46-52.07,4.62-75.56-6.88A82.46,82.46,0,0,1,993,324.58c-.63-.43-1.23-.85-1.82-1.28a86.07,86.07,0,0,1-21.88-14.61C947.93,291.67,939.92,265.66,952.63,242Z"/><path class="cls-3" d="M2320.75,1671.53v-37.31c-2.17,0-4.3.12-6.47.14-157.8,1-302.87-25.3-453.12-64.63-216.57-56.68-416.56-150.7-624.64-226.21C1106.76,1296.43,977,1249.16,842.7,1213c-78.77-17.83-158.55-30.68-239.75-36.27-119.1-3.69-239.45-3.5-357.83,6-28.9,2.32-57.52,5.79-86.2,9.35-2.27.41-4.54.81-6.8,1.25-17.85,3.51-35.6,7.42-53.18,11.88-15.38,3.89-30.66,8.15-45.74,12.86-7.46,2.33-14.81,4.92-22.25,7.31-32.54,10.48,24.9-10.87,27.2-11-21.54.81-54.13,22.14-76.82,36.95v356.85c236.63-63.58,507.29-39,744.43-4.73,162.19,23.44,322.17,56.81,483.6,83.77,151.09,25.25,302.6,46.48,456.22,49C2181.21,1744.44,2315,1675.91,2320.75,1671.53ZM572.48,1438.7c-13.81,24.36-38.75,45.75-66.05,58.53-35.43,16.6-71.42,25.5-111.68,28.25a294.12,294.12,0,0,1-47.92-.63,165,165,0,0,1-48-1.74C245.9,1512.93,199,1496.8,162,1460.77c-18-17.51-28.36-40.12-33-62.93-4.75-23.26-.51-30.95,6.68-49.79,8-20.88,8.33-23.77,29-44,41.38-40.5,105.16-55,164-62.91a254,254,0,0,1,83.85,3.17c51.43,10.61,100.94,26.47,136.68,62.41C585.53,1343.32,597.66,1394.25,572.48,1438.7ZM998.12,1387c-.19,18-7.39,33.56-21.56,47.08a133.19,133.19,0,0,1-33.33,23c-11.89,5.76-25.45,11.18-39,13.63-24.5,4.43-43.16,6.4-68.36,3.23a160.44,160.44,0,0,1-39.45-10c-18-7.29-36.69-17.62-48.74-31.73C732,1413.81,721,1391,726.12,1367.46c6.77-31.14,30.64-53.66,61-69.63,22.27-11.71,51.65-15.53,77.08-11.82a135.67,135.67,0,0,1,24.43,6.09,136.71,136.71,0,0,1,16.08,4.6c28.33,7.93,55.77,20.38,73.54,42.22l13.12,17.84Q1000.07,1371.22,998.12,1387Zm351.32,196.07c-18.14,33.71-65.19,39-103.22,35.26-30-2.93-60.57-19-73.63-43.37-9-16.74-9.19-34.4-6.38-52.41,3.25-20.79,24.17-37.25,46.39-42.82,25.79-6.46,52.06-4.62,75.55,6.88,7.83,3.83,14.87,8.17,20.92,13.9.63.43,1.24.85,1.83,1.29a86.16,86.16,0,0,1,21.87,14.6C1354.14,1533.45,1362.16,1559.47,1349.44,1583.1Z"/><path class="cls-3" d="M-18.67,465.27V986.89c135.28-45,279.27-72.51,423.4-80.79,324.46-18.67,643,44.57,954.93,113.8,163.67,36.33,328.06,70.54,496.59,82.11,40.11.68,80-.34,120.08-4.23q14.79-1.44,29.57-3.27c2.08-.26,8.39-1.16,14.65-2.06,2.53-.45,4.72-.84,6.15-1.11,12.2-2.29,24.33-4.74,36.46-7.27,86.84-18.19,172-41.93,257.59-64.08V888.34c-190.43,35.41-395,32.61-582.33,27.94C1365,907,1015,776.93,679.46,643.58,536.55,586.77,393.65,529,243.68,487.82c-58.63-13.17-117.95-23-178.19-28.05-15.46-.07-30.91.17-46.37,1C10.3,461.15-5.15,463.29-18.67,465.27ZM1871.66,998.21c2.61-20.26,19.63-36.26,40.57-43.88,10.66-7.32,24-12.48,37.59-12.47,12.2,0,24.82-.36,36.75,2.11,14.65,3,24.45,6.41,37.28,13.39,7,3.82,12.57,9.07,18.58,14.06l8.28,11.25a29.19,29.19,0,0,1,4.27,19.08c-.14,11.76-4.95,20.5-13.6,29.67-15.12,16-34.32,29.1-57,35.9-27.35,8.2-59.89,3.59-83-11.45C1880.68,1042.36,1868.76,1020.78,1871.66,998.21Zm-471-38c2.39-12.5,12.16-19.87,24.1-25a3.53,3.53,0,0,0,.33-.17c1-.46,1.94-.87,2.9-1.34,1.38-.71,2.71-1.48,4-2.27a60.31,60.31,0,0,1,15.26-6.42c19.59-5.06,37.73.6,56.17,6,17.58,5.12,32.84,24.48,28.19,41-2.24,15.53-16.57,26.94-34.31,30.06l-4.33,1.58a74.13,74.13,0,0,1-14.3,3.37c-21.69,3.45-42.59-2-60.45-13C1406.08,986.51,1398.18,973.37,1400.7,960.2ZM840,825a35.85,35.85,0,0,1,10.57-20.58,45.9,45.9,0,0,1,18.95-15.72,88.6,88.6,0,0,1,35.87-9.54c19.22.33,37.8,1.3,55.44,9,2.77,1.21,5.49,2.48,8.17,3.77,1.22.34,2.42.68,3.62,1a61.78,61.78,0,0,1,23.61,13.72,48.35,48.35,0,0,1,16.32,18.48c6.86,13,7.82,31.36-.67,44.14-.78,1.19-1.67,2.33-2.54,3.47-.18.33-.32.66-.52,1-11.17,19-36.27,31-60.3,31.53-13,.31-26.2-1.17-38.33-5.33,1.31.57,1.16.54-1.78-.54.58.21,1.2.34,1.78.54-1.34-.58-4.25-1.8-7.5-3.24-24.68-5.86-48.87-20.7-57.86-42A44.56,44.56,0,0,1,840,825ZM144.38,608.67c62.81-33,137.82-33.44,205.77-13.69C410.78,612.6,478,655.19,488.08,714.42c11,64.47-44.27,120.36-113.07,136.76-29.3,7-65.09,7.9-101.23,3.11-78.42-1-155-33.11-185.38-101.85C64.42,698.22,86.67,639,144.38,608.67Z"/><path class="cls-3" d="M2320.75,2334.29V2022.63c-69.07,27.1-147.3,44.76-231,51-211,15.81-455.45-29.14-741.11-87.89-172.88-35.56-366-73.12-587.76-92.7-56.83-2.9-115-4.12-175.29-2.39q-22.68.66-45.64,1.74c-3.26.15-13.11.75-23,1.35l-9.71.82q-29.14,2.64-58.64,5.78c-146.66,15.37-300.8,38.4-467.27,61.2v158.69c354.77-45.28,680-44.81,937.34-42.4,424.6,4,742.78,100.21,994.69,182.55,94.73,31,183,60.48,269.53,77,32.23,4.35,64,6.5,95.37,5.57,7.92-1,15.78-2.12,23.61-3.58C2306.29,2338.61,2314,2336.34,2320.75,2334.29ZM219.88,2037.9c-2.34,12.95-17.72,23.18-36.93,28.07a83.36,83.36,0,0,1-35.19,8.2c-11.65,0-23.8.3-35.39-1.31-14.39-2-24.11-4.28-36.95-9-7-2.6-12.69-6.18-18.81-9.62l-8.46-7.75q-5.65-6.3-4.37-13.12c.11-8.07,5.08-14,13.9-20.07a143.39,143.39,0,0,1,56.83-22.8c26.38-4.63,57.08-.64,78.4,9.76C211.77,2009.43,222.5,2023.49,219.88,2037.9Zm416.56-61.43c-4.16,18.22-21.22,29-42.24,36.54l-.6.24c-1.71.69-3.45,1.3-5.12,2-2.47,1-4.82,2.19-7.18,3.36a120.55,120.55,0,0,1-27.23,9.64c-35.31,7.77-68.42-.42-102.5-8.25-32.84-7.55-61.64-36.89-52.84-61.92,4.24-23.53,31.2-40.52,64.22-44.81l8-2.26c8.79-2.46,16.78-3.58,26.25-4.67,39.38-4.55,76.83,4.07,108.43,20.54C627.06,1938.07,640.84,1957.32,636.44,1976.47Zm1161.93,160.12a27.19,27.19,0,0,1-7.92,15.39,36.32,36.32,0,0,1-14.3,12.17,71.44,71.44,0,0,1-27.45,8.28c-15,.43-29.54.36-43.52-4.86q-3.3-1.25-6.52-2.58l-2.9-.63a48.07,48.07,0,0,1-19-9.7,36,36,0,0,1-13.32-13.7c-5.61-9.84-6.41-23.94.56-33.93.65-.93,1.38-1.82,2.08-2.71.14-.26.26-.5.42-.76,9.11-14.69,29.38-24.12,48.52-24.79,10.22-.35,20.57.63,30,3.61-1-.41-.88-.38,1.41.39-.47-.15-.94-.23-1.41-.39,1.06.44,3.3,1.31,5.82,2.34,18.91,4.07,37.24,14.7,44,30.2A31.77,31.77,0,0,1,1798.37,2136.59Zm-766.52-137.41a23.05,23.05,0,0,1-6.66,13,30.9,30.9,0,0,1-12,10.24,60.58,60.58,0,0,1-23.12,7c-12.57.36-24.86.3-36.63-4.09-1.87-.69-3.69-1.43-5.49-2.18-.81-.17-1.62-.36-2.43-.52a40.73,40.73,0,0,1-16-8.17,30.33,30.33,0,0,1-11.22-11.54c-4.74-8.29-5.4-20.14.47-28.56.54-.77,1.15-1.52,1.75-2.28l.35-.63c7.67-12.37,24.74-20.32,40.84-20.88a75.81,75.81,0,0,1,25.27,3c-.85-.35-.75-.34,1.17.32-.38-.13-.79-.2-1.17-.32.89.35,2.78,1.09,4.88,2,15.93,3.42,31.35,12.37,37,25.42A26.68,26.68,0,0,1,1031.85,1999.18ZM2237,2256.09c-33.94,23.76-75.71,28.12-114.86,19.13-36-8.26-77.09-33.13-83.38-72.38-6.9-42.92,27.35-81.56,68.74-93.54,17.23-5,38-6.08,58.53-3.51,43.5-.51,84.53,18.24,100.4,59.74C2278.8,2197.88,2267.32,2234.84,2237,2256.09Z"/><g class="cls-4"><path class="cls-5" d="M696.85,1437.54a3,3,0,1,1-3-3A3,3,0,0,1,696.85,1437.54Z"/><path class="cls-5" d="M72.73,942.59a3,3,0,1,1-3-3A3,3,0,0,1,72.73,942.59Z"/><path class="cls-5" d="M1257.39,1468a3,3,0,1,1-3-3A3,3,0,0,1,1257.39,1468Z"/><path class="cls-5" d="M92.65,1373.41a3,3,0,1,1-3-3A3,3,0,0,1,92.65,1373.41Z"/><path class="cls-5" d="M2113,1681.07a3,3,0,1,1,3-3A3,3,0,0,1,2113,1681.07Z"/><path class="cls-5" d="M1629.28,996.21a3,3,0,1,1-3-3A3,3,0,0,1,1629.28,996.21Z"/><path class="cls-5" d="M108.3,780.77a3,3,0,1,1-3-3A3,3,0,0,1,108.3,780.77Z"/><path class="cls-5" d="M103.5,872.12a3,3,0,1,1-3-3A3,3,0,0,1,103.5,872.12Z"/><path class="cls-5" d="M838.15,1643.13a3,3,0,1,1,3-3A3,3,0,0,1,838.15,1643.13Z"/><path class="cls-5" d="M227.41,397.43a3.91,3.91,0,1,1-3.91-3.91A3.9,3.9,0,0,1,227.41,397.43Z"/><path class="cls-5" d="M242.62,1038.9a5.45,5.45,0,1,1-5.44-5.45A5.44,5.44,0,0,1,242.62,1038.9Z"/><path class="cls-5" d="M.32,355.73a5.44,5.44,0,0,1-5.44,5.46,5.45,5.45,0,0,1-5.45-5.46,5.45,5.45,0,0,1,5.45-5.44A5.44,5.44,0,0,1,.32,355.73Z"/><path class="cls-5" d="M675.34,1801.51a3.91,3.91,0,1,1,3.9-3.91A3.91,3.91,0,0,1,675.34,1801.51Z"/><path class="cls-5" d="M459.07,1801.51a7.83,7.83,0,1,1,7.83-7.83A7.82,7.82,0,0,1,459.07,1801.51Z"/><path class="cls-5" d="M1858.19,1662.25a3,3,0,1,1,3-3A3,3,0,0,1,1858.19,1662.25Z"/><path class="cls-5" d="M1144.42,551.94a3,3,0,1,1-3-3A3,3,0,0,1,1144.42,551.94Z"/><path class="cls-5" d="M793.92,1298.8a3,3,0,1,1-3-3A3,3,0,0,1,793.92,1298.8Z"/><path class="cls-5" d="M796.93,269.64a3,3,0,1,1-3-3A3,3,0,0,1,796.93,269.64Z"/><path class="cls-5" d="M20.25,666.68a3,3,0,1,1-3-3A3,3,0,0,1,20.25,666.68Z"/><path class="cls-5" d="M2002.67,1739.25a3,3,0,1,1,3-3A3,3,0,0,1,2002.67,1739.25Z"/><path class="cls-5" d="M103.59,146.73a3,3,0,1,1-3-3A3,3,0,0,1,103.59,146.73Z"/><path class="cls-5" d="M2178.1,1697.75a3,3,0,1,1,3-3A3,3,0,0,1,2178.1,1697.75Z"/><path class="cls-5" d="M998.28,516.36a5.45,5.45,0,1,1-5.44-5.45A5.45,5.45,0,0,1,998.28,516.36Z"/><path class="cls-5" d="M1902.32,1773.07a5.46,5.46,0,1,1,5.45-5.46A5.48,5.48,0,0,1,1902.32,1773.07Z"/><path class="cls-5" d="M865.68,314.89a5.45,5.45,0,1,1-5.45-5.45A5.46,5.46,0,0,1,865.68,314.89Z"/><path class="cls-5" d="M2140.7,1636.64a5.45,5.45,0,1,1,5.44-5.46A5.45,5.45,0,0,1,2140.7,1636.64Z"/><path class="cls-5" d="M1105.63,1706.84a3.91,3.91,0,1,1,3.92-3.91A3.92,3.92,0,0,1,1105.63,1706.84Z"/><path class="cls-5" d="M2142.75,1402.9a7.82,7.82,0,1,1,7.81-7.82A7.83,7.83,0,0,1,2142.75,1402.9Z"/><path class="cls-5" d="M105.27,1156.07a7.82,7.82,0,1,1-7.81-7.81A7.82,7.82,0,0,1,105.27,1156.07Z"/><path class="cls-5" d="M1058.24,1664.68a5.46,5.46,0,1,1,5.44-5.46A5.46,5.46,0,0,1,1058.24,1664.68Z"/><path class="cls-5" d="M29.5,1243.18a3,3,0,1,1-3-3A3,3,0,0,1,29.5,1243.18Z"/><path class="cls-5" d="M1805.29,1733.82a5.45,5.45,0,1,1,5.45-5.46A5.46,5.46,0,0,1,1805.29,1733.82Z"/><path class="cls-5" d="M1344.42,933.88a3,3,0,1,1-3-3A3,3,0,0,1,1344.42,933.88Z"/><path class="cls-5" d="M1426.83,1229.25a3,3,0,1,1-3-3A3,3,0,0,1,1426.83,1229.25Z"/><path class="cls-5" d="M1410.57,1408.36a3,3,0,1,1-3-3A3,3,0,0,1,1410.57,1408.36Z"/><path class="cls-5" d="M1015.67,1211.77a3,3,0,1,1-3-3A3,3,0,0,1,1015.67,1211.77Z"/><path class="cls-5" d="M1589.17,1092.3a3,3,0,1,1-3-3A3,3,0,0,1,1589.17,1092.3Z"/><path class="cls-5" d="M1355.33,1115.91a5.46,5.46,0,1,1-5.47-5.45A5.45,5.45,0,0,1,1355.33,1115.91Z"/><path class="cls-5" d="M1950.19,1381.22a5.46,5.46,0,1,1-5.47-5.44A5.46,5.46,0,0,1,1950.19,1381.22Z"/><path class="cls-5" d="M1262.74,838a5.45,5.45,0,1,1-5.44-5.45A5.44,5.44,0,0,1,1262.74,838Z"/><path class="cls-5" d="M1354.86,1259.62a3.3,3.3,0,1,1-3.29-3.3A3.3,3.3,0,0,1,1354.86,1259.62Z"/><path class="cls-5" d="M1231.3,1698.09a7.82,7.82,0,1,1,7.83-7.82A7.83,7.83,0,0,1,1231.3,1698.09Z"/><path class="cls-5" d="M1344.51,208.49a3,3,0,1,1-3-3A3,3,0,0,1,1344.51,208.49Z"/><path class="cls-5" d="M1426.93,503.87a3,3,0,1,1-3-3A3,3,0,0,1,1426.93,503.87Z"/><path class="cls-5" d="M1410.64,683a3,3,0,1,1-3-3A3,3,0,0,1,1410.64,683Z"/><path class="cls-5" d="M1268.87,437.36a3,3,0,1,1-3-3A3,3,0,0,1,1268.87,437.36Z"/><path class="cls-5" d="M1323.94,75.24a3,3,0,1,1-3-3A3,3,0,0,1,1323.94,75.24Z"/><path class="cls-5" d="M532.94,1655.75a7.83,7.83,0,1,1,7.82-7.83A7.83,7.83,0,0,1,532.94,1655.75Z"/><path class="cls-5" d="M1355.4,390.53a5.45,5.45,0,1,1-5.44-5.46A5.44,5.44,0,0,1,1355.4,390.53Z"/><path class="cls-5" d="M1127.33,800.22a5.45,5.45,0,1,1-5.44-5.44A5.45,5.45,0,0,1,1127.33,800.22Z"/><path class="cls-5" d="M1262.84,112.63a5.45,5.45,0,1,1-5.45-5.45A5.47,5.47,0,0,1,1262.84,112.63Z"/><path class="cls-5" d="M69.59,17.75a7.83,7.83,0,1,1-7.82-7.81A7.82,7.82,0,0,1,69.59,17.75Z"/><path class="cls-5" d="M1056.56,1013.1a3,3,0,1,1-3-3A3,3,0,0,1,1056.56,1013.1Z"/><path class="cls-5" d="M1439,1588.86a3,3,0,1,1-3-3A3,3,0,0,1,1439,1588.86Z"/><path class="cls-5" d="M1092.16,1479.15a5.45,5.45,0,1,1-5.45-5.44A5.45,5.45,0,0,1,1092.16,1479.15Z"/><path class="cls-5" d="M1946,1805.43a7.83,7.83,0,1,1,7.81-7.83A7.84,7.84,0,0,1,1946,1805.43Z"/><path class="cls-5" d="M636.93,946.5a7.82,7.82,0,1,1-7.82-7.82A7.82,7.82,0,0,1,636.93,946.5Z"/><path class="cls-5" d="M541.9,933.88a3,3,0,1,1-3-3A3,3,0,0,1,541.9,933.88Z"/><path class="cls-5" d="M373.71,609a3,3,0,1,1-3-3A3,3,0,0,1,373.71,609Z"/><path class="cls-5" d="M624.31,1229.25a3,3,0,1,1-3-3A3,3,0,0,1,624.31,1229.25Z"/><path class="cls-5" d="M538.87,1374.56a3,3,0,1,1-3-3A3,3,0,0,1,538.87,1374.56Z"/><path class="cls-5" d="M466.27,1162.75a3,3,0,1,1-3-3A3,3,0,0,1,466.27,1162.75Z"/><path class="cls-5" d="M827.61,1273.75a3,3,0,1,1-3-3A3,3,0,0,1,827.61,1273.75Z"/><path class="cls-5" d="M393.87,1096.61a3,3,0,1,1-3-3A3,3,0,0,1,393.87,1096.61Z"/><path class="cls-5" d="M827.53,872.12a3,3,0,1,1-3-3A3,3,0,0,1,827.53,872.12Z"/><path class="cls-5" d="M521.34,800.62a3,3,0,1,1-3-3A3,3,0,0,1,521.34,800.62Z"/><path class="cls-5" d="M1439,1332.71a3.92,3.92,0,1,1-3.93-3.92A3.91,3.91,0,0,1,1439,1332.71Z"/><path class="cls-5" d="M1281.89,1737.26a5.46,5.46,0,1,1,5.47-5.46A5.47,5.47,0,0,1,1281.89,1737.26Z"/><path class="cls-5" d="M186.59,1449.31a5.45,5.45,0,1,1-5.44-5.44A5.44,5.44,0,0,1,186.59,1449.31Z"/><path class="cls-5" d="M184.9,946.5a5.45,5.45,0,1,1-5.46-5.45A5.45,5.45,0,0,1,184.9,946.5Z"/><path class="cls-5" d="M241,872.12a5.45,5.45,0,1,1-5.44-5.45A5.44,5.44,0,0,1,241,872.12Z"/><path class="cls-5" d="M378.81,1416.82a5.45,5.45,0,1,1-5.45-5.44A5.45,5.45,0,0,1,378.81,1416.82Z"/><path class="cls-5" d="M195.8,1237.73a5.45,5.45,0,1,1-5.45-5.45A5.45,5.45,0,0,1,195.8,1237.73Z"/><path class="cls-5" d="M460.23,838a5.45,5.45,0,1,1-5.46-5.45A5.45,5.45,0,0,1,460.23,838Z"/><path class="cls-5" d="M341.27,1204.35a3.91,3.91,0,1,1-3.91-3.92A3.91,3.91,0,0,1,341.27,1204.35Z"/><path class="cls-5" d="M1445,1749.63a3.91,3.91,0,1,1,3.9-3.91A3.9,3.9,0,0,1,1445,1749.63Z"/><path class="cls-5" d="M738.14,1047.35a7.82,7.82,0,1,1-7.81-7.82A7.82,7.82,0,0,1,738.14,1047.35Z"/><path class="cls-5" d="M349.1,769.78a3.92,3.92,0,1,1-3.92-3.91A3.92,3.92,0,0,1,349.1,769.78Z"/><path class="cls-5" d="M637,118.07a7.82,7.82,0,1,1-7.83-7.82A7.83,7.83,0,0,1,637,118.07Z"/><path class="cls-5" d="M542,208.49a3,3,0,1,1-3-3A3,3,0,0,1,542,208.49Z"/><path class="cls-5" d="M274.44,329.79a3,3,0,1,1-3-3A3,3,0,0,1,274.44,329.79Z"/><path class="cls-5" d="M277.45,612.05a3,3,0,1,1-3-3A3,3,0,0,1,277.45,612.05Z"/><path class="cls-5" d="M624.4,503.87a3,3,0,1,1-3-3A3,3,0,0,1,624.4,503.87Z"/><path class="cls-5" d="M608.12,683a3,3,0,1,1-3-3A3,3,0,0,1,608.12,683Z"/><path class="cls-5" d="M466.36,437.36a3,3,0,1,1-3-3A3,3,0,0,1,466.36,437.36Z"/><path class="cls-5" d="M744.27,666.68a3,3,0,1,1-3-3A3,3,0,0,1,744.27,666.68Z"/><path class="cls-5" d="M394,371.23a3,3,0,1,1-3-3A3,3,0,0,1,394,371.23Z"/><path class="cls-5" d="M827.61,146.73a3,3,0,1,1-3-3A3,3,0,0,1,827.61,146.73Z"/><path class="cls-5" d="M521.43,75.24a3,3,0,1,1-3-3A3,3,0,0,1,521.43,75.24Z"/><path class="cls-5" d="M552.89,390.53a5.46,5.46,0,1,1-5.46-5.46A5.45,5.45,0,0,1,552.89,390.53Z"/><path class="cls-5" d="M506.74,677.52a5.46,5.46,0,1,1-5.45-5.44A5.46,5.46,0,0,1,506.74,677.52Z"/><path class="cls-5" d="M185,221.12a5.45,5.45,0,1,1-5.44-5.45A5.44,5.44,0,0,1,185,221.12Z"/><path class="cls-5" d="M241.06,146.73a5.46,5.46,0,1,1-5.46-5.45A5.47,5.47,0,0,1,241.06,146.73Z"/><path class="cls-5" d="M415.6,604.77a5.45,5.45,0,1,1-5.45-5.45A5.46,5.46,0,0,1,415.6,604.77Z"/><path class="cls-5" d="M195.89,512.34a5.46,5.46,0,1,1-5.46-5.44A5.47,5.47,0,0,1,195.89,512.34Z"/><path class="cls-5" d="M460.31,112.63a5.45,5.45,0,1,1-5.44-5.45A5.45,5.45,0,0,1,460.31,112.63Z"/><path class="cls-5" d="M341.36,479a3.92,3.92,0,1,1-3.92-3.91A3.91,3.91,0,0,1,341.36,479Z"/><path class="cls-5" d="M271.41,673.61a3.91,3.91,0,1,1-3.92-3.91A3.91,3.91,0,0,1,271.41,673.61Z"/><path class="cls-5" d="M515.38,580.35a3.91,3.91,0,1,1-3.9-3.91A3.91,3.91,0,0,1,515.38,580.35Z"/><path class="cls-5" d="M357,48.3a7.82,7.82,0,1,1-7.83-7.82A7.83,7.83,0,0,1,357,48.3Z"/><path class="cls-5" d="M179.54,655.84a7.82,7.82,0,1,1-7.83-7.82A7.83,7.83,0,0,1,179.54,655.84Z"/><path class="cls-5" d="M451.85,205.47a7.82,7.82,0,1,1-7.83-7.82A7.83,7.83,0,0,1,451.85,205.47Z"/><path class="cls-5" d="M579.76,1121.35a3,3,0,1,1-3-3A3,3,0,0,1,579.76,1121.35Z"/><path class="cls-5" d="M352.11,205.48a3,3,0,1,1-3-3A3,3,0,0,1,352.11,205.48Z"/><path class="cls-5" d="M1012.61,1301.82a3,3,0,1,1-3-3A3,3,0,0,1,1012.61,1301.82Z"/><path class="cls-5" d="M756.54,1459.56a3,3,0,1,1-3-3A3,3,0,0,1,756.54,1459.56Z"/><path class="cls-5" d="M519,1470.41a5.45,5.45,0,1,1-5.45-5.45A5.46,5.46,0,0,1,519,1470.41Z"/><path class="cls-5" d="M287.6,1265.59a3.92,3.92,0,1,1-3.92-3.9A3.92,3.92,0,0,1,287.6,1265.59Z"/><path class="cls-5" d="M700.14,450.65a3,3,0,1,1-3-3A3,3,0,0,1,700.14,450.65Z"/><path class="cls-5" d="M666.34,786.78a7.82,7.82,0,1,1-7.82-7.82A7.82,7.82,0,0,1,666.34,786.78Z"/><path class="cls-5" d="M616.89,245.21a3,3,0,1,1-3-3A3,3,0,0,1,616.89,245.21Z"/><path class="cls-5" d="M743.68,661.22a5.45,5.45,0,1,1-5.44-5.44A5.44,5.44,0,0,1,743.68,661.22Z"/><path class="cls-5" d="M837.6,450.65a5.45,5.45,0,1,1-5.44-5.45A5.44,5.44,0,0,1,837.6,450.65Z"/><path class="cls-5" d="M792.44,816.26a5.46,5.46,0,1,1-5.45-5.45A5.46,5.46,0,0,1,792.44,816.26Z"/><path class="cls-5" d="M848.15,1801.51a3.91,3.91,0,1,1,3.9-3.91A3.91,3.91,0,0,1,848.15,1801.51Z"/><path class="cls-5" d="M1279.46,1734.83a3,3,0,1,1,3-3A3,3,0,0,1,1279.46,1734.83Z"/><path class="cls-5" d="M1537.7,1741.17a3.92,3.92,0,1,1,3.9-3.91A3.92,3.92,0,0,1,1537.7,1741.17Z"/><path class="cls-5" d="M884.24,844.12a3.92,3.92,0,1,1-3.92-3.91A3.92,3.92,0,0,1,884.24,844.12Z"/><path class="cls-5" d="M1281.42,686.29a3,3,0,1,1,3,3A3,3,0,0,1,1281.42,686.29Z"/><path class="cls-5" d="M1199,390.91a3,3,0,1,1,3,3A3,3,0,0,1,1199,390.91Z"/><path class="cls-5" d="M1215.27,211.81a3,3,0,1,1,3,3A3,3,0,0,1,1215.27,211.81Z"/><path class="cls-5" d="M1079.11,228.1a3,3,0,1,1,3,3A3,3,0,0,1,1079.11,228.1Z"/><path class="cls-5" d="M995.78,748.05a3,3,0,1,1,3,3A3,3,0,0,1,995.78,748.05Z"/><path class="cls-5" d="M1029.58,411.92a7.82,7.82,0,1,1,7.83,7.81A7.84,7.84,0,0,1,1029.58,411.92Z"/><path class="cls-5" d="M1270.5,504.26a5.46,5.46,0,1,1,5.47,5.44A5.48,5.48,0,0,1,1270.5,504.26Z"/><path class="cls-5" d="M1126.39,1370.39a7.83,7.83,0,1,1,7.82,7.82A7.82,7.82,0,0,1,1126.39,1370.39Z"/><path class="cls-5" d="M1281.33,1411.67a3,3,0,1,1,3,3A3,3,0,0,1,1281.33,1411.67Z"/><path class="cls-5" d="M1215.2,937.2a3,3,0,1,1,3,3A3,3,0,0,1,1215.2,937.2Z"/><path class="cls-5" d="M995.71,1473.44a3,3,0,1,1,3,3A3,3,0,0,1,995.71,1473.44Z"/><path class="cls-5" d="M1270.43,1229.64a5.45,5.45,0,1,1,5.45,5.44A5.45,5.45,0,0,1,1270.43,1229.64Z"/><path class="cls-5" d="M11.19,464.72a3,3,0,1,1,3,3A3,3,0,0,1,11.19,464.72Z"/><path class="cls-5" d="M1042.83,1739.69a3,3,0,1,1-3,3A3,3,0,0,1,1042.83,1739.69Z"/><path class="cls-5" d="M429,1644.9a3,3,0,1,1-3,3A3,3,0,0,1,429,1644.9Z"/><path class="cls-5" d="M1528.82,1642.47a5.46,5.46,0,1,1-5.45,5.46A5.44,5.44,0,0,1,1528.82,1642.47Z"/><path class="cls-5" d="M1036.1,563.6a5.45,5.45,0,1,1,5.45,5.45A5.45,5.45,0,0,1,1036.1,563.6Z"/><path class="cls-5" d="M903.49,382.44a5.45,5.45,0,1,1,5.45,5.45A5.45,5.45,0,0,1,903.49,382.44Z"/><path class="cls-5" d="M996.29,1373.41a5.45,5.45,0,1,1,5.45,5.44A5.45,5.45,0,0,1,996.29,1373.41Z"/><path class="cls-5" d="M858.24,1473.44a5.45,5.45,0,1,1,5.45,5.44A5.45,5.45,0,0,1,858.24,1473.44Z"/><path class="cls-5" d="M903.4,1107.82a5.45,5.45,0,1,1,5.45,5.45A5.45,5.45,0,0,1,903.4,1107.82Z"/><path class="cls-5" d="M1415.89,59.51a3,3,0,1,1-3-3A3,3,0,0,1,1415.89,59.51Z"/><path class="cls-5" d="M671.8,46a5.46,5.46,0,1,1-5.46-5.46A5.46,5.46,0,0,1,671.8,46Z"/><path class="cls-5" d="M627.34,160.6a3,3,0,1,1-3-3A3,3,0,0,1,627.34,160.6Z"/><path class="cls-5" d="M924.64,46a3,3,0,1,1,3,3A3,3,0,0,1,924.64,46Z"/><path class="cls-5" d="M1063.12,75.45a7.82,7.82,0,1,1,7.82,7.82A7.83,7.83,0,0,1,1063.12,75.45Z"/><path class="cls-5" d="M755.07,83.27a5.46,5.46,0,1,1,5.47,5.44A5.47,5.47,0,0,1,755.07,83.27Z"/><path class="cls-5" d="M919.75,964.34a7.83,7.83,0,1,1,7.82,7.81A7.83,7.83,0,0,1,919.75,964.34Z"/><path class="cls-5" d="M850.41,157.58a7.82,7.82,0,1,1,7.83,7.82A7.83,7.83,0,0,1,850.41,157.58Z"/><path class="cls-5" d="M1934.42,942.59a3.91,3.91,0,1,1-3.91-3.91A3.92,3.92,0,0,1,1934.42,942.59Z"/><path class="cls-5" d="M1847.21,933.88a3,3,0,1,1-3-3A3,3,0,0,1,1847.21,933.88Z"/><path class="cls-5" d="M2102.06,942.59a3,3,0,1,1-3-3A3,3,0,0,1,2102.06,942.59Z"/><path class="cls-5" d="M1929.62,1229.25a3,3,0,1,1-3-3A3,3,0,0,1,1929.62,1229.25Z"/><path class="cls-5" d="M2132.82,872.12a3,3,0,1,1-3-3A3,3,0,0,1,2132.82,872.12Z"/><path class="cls-5" d="M1826.66,800.62a3,3,0,1,1-3-3A3,3,0,0,1,1826.66,800.62Z"/><path class="cls-5" d="M1776.38,982.71a3.92,3.92,0,1,1-3.9-3.91A3.91,3.91,0,0,1,1776.38,982.71Z"/><path class="cls-5" d="M260.53,1647.92a5.45,5.45,0,1,1,5.46-5.45A5.45,5.45,0,0,1,260.53,1647.92Z"/><path class="cls-5" d="M1134.12,1742.7a5.45,5.45,0,1,1,5.46-5.44A5.45,5.45,0,0,1,1134.12,1742.7Z"/><path class="cls-5" d="M228.3,1742.7a5.45,5.45,0,1,1,5.44-5.44A5.46,5.46,0,0,1,228.3,1742.7Z"/><path class="cls-5" d="M1546.28,872.12a5.46,5.46,0,1,1-5.47-5.45A5.46,5.46,0,0,1,1546.28,872.12Z"/><path class="cls-5" d="M1634.73,1470.41a5.45,5.45,0,1,1-5.45-5.45A5.44,5.44,0,0,1,1634.73,1470.41Z"/><path class="cls-5" d="M1951.48,17.75a5.45,5.45,0,1,1-5.45-5.44A5.46,5.46,0,0,1,1951.48,17.75Z"/><path class="cls-5" d="M1765.53,838a5.45,5.45,0,1,1-5.44-5.45A5.44,5.44,0,0,1,1765.53,838Z"/><path class="cls-5" d="M734.24,1533.09a3.91,3.91,0,1,1-3.91-3.9A3.91,3.91,0,0,1,734.24,1533.09Z"/><path class="cls-5" d="M1576.64,1399a3.92,3.92,0,1,1-3.92-3.92A3.91,3.91,0,0,1,1576.64,1399Z"/><path class="cls-5" d="M1942.34,221.11a7.83,7.83,0,1,1-7.83-7.82A7.83,7.83,0,0,1,1942.34,221.11Z"/><path class="cls-5" d="M1847.3,208.49a3,3,0,1,1-3-3A3,3,0,0,1,1847.3,208.49Z"/><path class="cls-5" d="M1579.73,329.79a3,3,0,1,1-3-3A3,3,0,0,1,1579.73,329.79Z"/><path class="cls-5" d="M2145.77,453.67a3,3,0,1,1-3-3A3,3,0,0,1,2145.77,453.67Z"/><path class="cls-5" d="M1929.69,503.87a3,3,0,1,1-3-3A3,3,0,0,1,1929.69,503.87Z"/><path class="cls-5" d="M1913.43,683a3,3,0,1,1-3-3A3,3,0,0,1,1913.43,683Z"/><path class="cls-5" d="M1771.66,437.36a3,3,0,1,1-3-3A3,3,0,0,1,1771.66,437.36Z"/><path class="cls-5" d="M2049.58,666.68a3,3,0,1,1-3-3A3,3,0,0,1,2049.58,666.68Z"/><path class="cls-5" d="M1699.27,371.23a3,3,0,1,1-3-3A3,3,0,0,1,1699.27,371.23Z"/><path class="cls-5" d="M2132.91,146.73a3,3,0,1,1-3-3A3,3,0,0,1,2132.91,146.73Z"/><path class="cls-5" d="M1826.73,75.24a3,3,0,1,1-3-3A3,3,0,0,1,1826.73,75.24Z"/><path class="cls-5" d="M2262.92,1662a7.83,7.83,0,1,1,7.81-7.83A7.84,7.84,0,0,1,2262.92,1662Z"/><path class="cls-5" d="M1858.19,390.53a5.45,5.45,0,1,1-5.44-5.46A5.44,5.44,0,0,1,1858.19,390.53Z"/><path class="cls-5" d="M1812.05,677.52a5.46,5.46,0,1,1-5.47-5.44A5.46,5.46,0,0,1,1812.05,677.52Z"/><path class="cls-5" d="M1490.3,221.12a5.46,5.46,0,1,1-5.47-5.45A5.47,5.47,0,0,1,1490.3,221.12Z"/><path class="cls-5" d="M1546.35,146.73a5.45,5.45,0,1,1-5.45-5.45A5.45,5.45,0,0,1,1546.35,146.73Z"/><path class="cls-5" d="M1720.91,604.77a5.46,5.46,0,1,1-5.47-5.45A5.46,5.46,0,0,1,1720.91,604.77Z"/><path class="cls-5" d="M1501.19,512.34a5.45,5.45,0,1,1-5.45-5.44A5.45,5.45,0,0,1,1501.19,512.34Z"/><path class="cls-5" d="M2286.81-1a5.45,5.45,0,0,1-5.44,5.46A5.45,5.45,0,0,1,2275.92-1a5.44,5.44,0,0,1,5.45-5.44A5.43,5.43,0,0,1,2286.81-1Z"/><path class="cls-5" d="M1765.63,112.63a5.46,5.46,0,1,1-5.47-5.45A5.47,5.47,0,0,1,1765.63,112.63Z"/><path class="cls-5" d="M1646.65,479a3.91,3.91,0,1,1-3.9-3.91A3.91,3.91,0,0,1,1646.65,479Z"/><path class="cls-5" d="M393.54,1738.73a3.91,3.91,0,1,1,3.92-3.9A3.91,3.91,0,0,1,393.54,1738.73Z"/><path class="cls-5" d="M2043.53,322a7.82,7.82,0,1,1-7.81-7.82A7.81,7.81,0,0,1,2043.53,322Z"/><path class="cls-5" d="M1662.31,48.3a7.83,7.83,0,1,1-7.83-7.82A7.83,7.83,0,0,1,1662.31,48.3Z"/><path class="cls-5" d="M1757.17,205.47a7.84,7.84,0,1,1-7.84-7.82A7.83,7.83,0,0,1,1757.17,205.47Z"/><path class="cls-5" d="M1891.1,1014.94a3,3,0,1,1-3-3A3,3,0,0,1,1891.1,1014.94Z"/><path class="cls-5" d="M1369.71,1627.91a3,3,0,1,1,3-3A3,3,0,0,1,1369.71,1627.91Z"/><path class="cls-5" d="M1084.49,1114.19a5.46,5.46,0,1,1-5.45-5.46A5.46,5.46,0,0,1,1084.49,1114.19Z"/><path class="cls-5" d="M1925.7,1475.86a3,3,0,1,1-3-3A3,3,0,0,1,1925.7,1475.86Z"/><path class="cls-5" d="M2145.77,1237.73a3,3,0,1,1-3-3A3,3,0,0,1,2145.77,1237.73Z"/><path class="cls-5" d="M1824.32,1470.41a5.46,5.46,0,1,1-5.47-5.45A5.47,5.47,0,0,1,1824.32,1470.41Z"/><path class="cls-5" d="M1592.91,1265.59a3.92,3.92,0,1,1-3.93-3.9A3.91,3.91,0,0,1,1592.91,1265.59Z"/><path class="cls-5" d="M2254.81,1395.08a7.82,7.82,0,1,1-7.83-7.81A7.82,7.82,0,0,1,2254.81,1395.08Z"/><path class="cls-5" d="M2214.24,946.5a5.45,5.45,0,1,1-5.45-5.45A5.46,5.46,0,0,1,2214.24,946.5Z"/><path class="cls-5" d="M2270.29,872.12a5.45,5.45,0,1,1-5.45-5.45A5.44,5.44,0,0,1,2270.29,872.12Z"/><path class="cls-5" d="M2225.13,1237.73a5.45,5.45,0,1,1-5.45-5.45A5.44,5.44,0,0,1,2225.13,1237.73Z"/><path class="cls-5" d="M30,1698.09a3.91,3.91,0,1,1,3.91-3.91A3.92,3.92,0,0,1,30,1698.09Z"/><path class="cls-5" d="M83.82,266.61A7.82,7.82,0,1,1,76,258.79,7.82,7.82,0,0,1,83.82,266.61Z"/><path class="cls-5" d="M2303.76,329.79a3,3,0,1,1-3-3A3,3,0,0,1,2303.76,329.79Z"/><path class="cls-5" d="M749.08,1165.77a7.83,7.83,0,1,1-7.83-7.82A7.83,7.83,0,0,1,749.08,1165.77Z"/><path class="cls-5" d="M2214.31,221.12a5.45,5.45,0,1,1-5.45-5.45A5.45,5.45,0,0,1,2214.31,221.12Z"/><path class="cls-5" d="M2270.38,146.73a5.45,5.45,0,1,1-5.45-5.45A5.45,5.45,0,0,1,2270.38,146.73Z"/><path class="cls-5" d="M2225.22,512.34a5.46,5.46,0,1,1-5.47-5.44A5.47,5.47,0,0,1,2225.22,512.34Z"/><path class="cls-5" d="M2300.75,673.61a3.92,3.92,0,1,1-3.91-3.91A3.92,3.92,0,0,1,2300.75,673.61Z"/><path class="cls-5" d="M2124.48,46a3.91,3.91,0,1,1-3.91-3.91A3.92,3.92,0,0,1,2124.48,46Z"/><path class="cls-5" d="M2208.86,655.84A7.82,7.82,0,1,1,2201,648,7.83,7.83,0,0,1,2208.86,655.84Z"/><path class="cls-5" d="M2254.81,1078.4a3.9,3.9,0,1,1-3.9-3.91A3.91,3.91,0,0,1,2254.81,1078.4Z"/><path class="cls-5" d="M2261.8,1500.17a3,3,0,1,1,3-3A3,3,0,0,1,2261.8,1500.17Z"/><path class="cls-5" d="M1621.83,1620.78a5.45,5.45,0,1,1,5.44-5.45A5.44,5.44,0,0,1,1621.83,1620.78Z"/><path class="cls-5" d="M1655.21,1766.25a3.91,3.91,0,1,1,3.92-3.91A3.91,3.91,0,0,1,1655.21,1766.25Z"/><path class="cls-5" d="M2024.62,138.79a3,3,0,1,1-3-3A3,3,0,0,1,2024.62,138.79Z"/><path class="cls-5" d="M2253.32,1795.68a5.45,5.45,0,1,1,5.44-5.46A5.45,5.45,0,0,1,2253.32,1795.68Z"/><path class="cls-5" d="M796.93,2120.22a3,3,0,1,1-3-3A3,3,0,0,1,796.93,2120.22Z"/><path class="cls-5" d="M103.59,1997.31a3,3,0,1,1-3-3A3,3,0,0,1,103.59,1997.31Z"/><path class="cls-5" d="M865.68,2165.47a5.45,5.45,0,1,1-5.45-5.45A5.46,5.46,0,0,1,865.68,2165.47Z"/><path class="cls-5" d="M1344.51,2059.08a3,3,0,1,1-3-3A3,3,0,0,1,1344.51,2059.08Z"/><path class="cls-5" d="M1323.94,1925.82a3,3,0,1,1-3-3A3,3,0,0,1,1323.94,1925.82Z"/><path class="cls-5" d="M1262.84,1963.21a5.45,5.45,0,1,1-5.45-5.45A5.46,5.46,0,0,1,1262.84,1963.21Z"/><path class="cls-5" d="M69.59,1868.34a7.83,7.83,0,1,1-7.82-7.82A7.82,7.82,0,0,1,69.59,1868.34Z"/><path class="cls-5" d="M637,1968.65a7.82,7.82,0,1,1-7.83-7.82A7.82,7.82,0,0,1,637,1968.65Z"/><path class="cls-5" d="M542,2059.08a3,3,0,1,1-3-3A3,3,0,0,1,542,2059.08Z"/><path class="cls-5" d="M827.61,1997.31a3,3,0,1,1-3-3A3,3,0,0,1,827.61,1997.31Z"/><path class="cls-5" d="M521.43,1925.82a3,3,0,1,1-3-3A3,3,0,0,1,521.43,1925.82Z"/><path class="cls-5" d="M185,2071.7a5.45,5.45,0,1,1-5.44-5.45A5.44,5.44,0,0,1,185,2071.7Z"/><path class="cls-5" d="M241.06,1997.31a5.46,5.46,0,1,1-5.46-5.44A5.47,5.47,0,0,1,241.06,1997.31Z"/><path class="cls-5" d="M460.31,1963.21a5.45,5.45,0,1,1-5.44-5.45A5.44,5.44,0,0,1,460.31,1963.21Z"/><path class="cls-5" d="M357,1898.89a7.82,7.82,0,1,1-7.83-7.82A7.83,7.83,0,0,1,357,1898.89Z"/><path class="cls-5" d="M451.85,2056.05a7.82,7.82,0,1,1-7.83-7.82A7.83,7.83,0,0,1,451.85,2056.05Z"/><path class="cls-5" d="M352.11,2056.05a3,3,0,1,1-3-3A3,3,0,0,1,352.11,2056.05Z"/><path class="cls-5" d="M616.89,2095.79a3,3,0,1,1-3-3A3,3,0,0,1,616.89,2095.79Z"/><path class="cls-5" d="M1215.27,2062.39a3,3,0,1,1,3,3A3,3,0,0,1,1215.27,2062.39Z"/><path class="cls-5" d="M1079.11,2078.68a3,3,0,1,1,3,3A3,3,0,0,1,1079.11,2078.68Z"/><path class="cls-5" d="M1320.92,1830.25a3,3,0,1,1,3,3A3,3,0,0,1,1320.92,1830.25Z"/><path class="cls-5" d="M952.28,1802.55a3,3,0,1,1-3-3A3,3,0,0,1,952.28,1802.55Z"/><path class="cls-5" d="M1556.73,1841a5.46,5.46,0,1,1-5.45-5.44A5.46,5.46,0,0,1,1556.73,1841Z"/><path class="cls-5" d="M1415.89,1910.09a3,3,0,1,1-3-3A3,3,0,0,1,1415.89,1910.09Z"/><path class="cls-5" d="M671.8,1896.54a5.46,5.46,0,1,1-5.46-5.44A5.46,5.46,0,0,1,671.8,1896.54Z"/><path class="cls-5" d="M627.34,2011.17a3,3,0,1,1-3-3A3,3,0,0,1,627.34,2011.17Z"/><path class="cls-5" d="M924.64,1896.55a3,3,0,1,1,3,3A3,3,0,0,1,924.64,1896.55Z"/><path class="cls-5" d="M1063.12,1926a7.82,7.82,0,1,1,7.82,7.82A7.83,7.83,0,0,1,1063.12,1926Z"/><path class="cls-5" d="M755.07,1933.85a5.46,5.46,0,1,1,5.47,5.44A5.46,5.46,0,0,1,755.07,1933.85Z"/><path class="cls-5" d="M850.41,2008.16a7.82,7.82,0,1,1,7.83,7.82A7.83,7.83,0,0,1,850.41,2008.16Z"/><circle class="cls-5" cx="1946.03" cy="1868.34" r="5.45"/><path class="cls-5" d="M1942.34,2071.7a7.83,7.83,0,1,1-7.83-7.82A7.83,7.83,0,0,1,1942.34,2071.7Z"/><path class="cls-5" d="M1847.3,2059.08a3,3,0,1,1-3-3A3,3,0,0,1,1847.3,2059.08Z"/><path class="cls-5" d="M2132.91,1997.31a3,3,0,1,1-3-3A3,3,0,0,1,2132.91,1997.31Z"/><path class="cls-5" d="M1826.73,1925.82a3,3,0,1,1-3-3A3,3,0,0,1,1826.73,1925.82Z"/><path class="cls-5" d="M1490.3,2071.7a5.46,5.46,0,1,1-5.47-5.45A5.47,5.47,0,0,1,1490.3,2071.7Z"/><path class="cls-5" d="M1546.35,1997.31a5.45,5.45,0,1,1-5.45-5.44A5.45,5.45,0,0,1,1546.35,1997.31Z"/><circle class="cls-5" cx="2281.37" cy="1849.54" r="5.45"/><path class="cls-5" d="M1765.63,1963.21a5.46,5.46,0,1,1-5.47-5.45A5.46,5.46,0,0,1,1765.63,1963.21Z"/><path class="cls-5" d="M2043.53,2172.54a7.82,7.82,0,1,1-7.81-7.82A7.81,7.81,0,0,1,2043.53,2172.54Z"/><path class="cls-5" d="M1662.31,1898.89a7.83,7.83,0,1,1-7.83-7.82A7.83,7.83,0,0,1,1662.31,1898.89Z"/><path class="cls-5" d="M1757.17,2056.05a7.84,7.84,0,1,1-7.84-7.82A7.83,7.83,0,0,1,1757.17,2056.05Z"/><path class="cls-5" d="M83.82,2117.19a7.82,7.82,0,1,1-7.82-7.81A7.83,7.83,0,0,1,83.82,2117.19Z"/><path class="cls-5" d="M2214.31,2071.7a5.45,5.45,0,1,1-5.45-5.45A5.45,5.45,0,0,1,2214.31,2071.7Z"/><path class="cls-5" d="M2270.38,1997.31a5.45,5.45,0,1,1-5.45-5.44A5.45,5.45,0,0,1,2270.38,1997.31Z"/><path class="cls-5" d="M2124.48,1896.54a3.91,3.91,0,1,1-3.91-3.9A3.92,3.92,0,0,1,2124.48,1896.54Z"/><path class="cls-5" d="M1121.4,1845.74a3,3,0,1,1-3-3A3,3,0,0,1,1121.4,1845.74Z"/><path class="cls-5" d="M1207.93,1798.91a5.45,5.45,0,1,1-5.45-5.46A5.44,5.44,0,0,1,1207.93,1798.91Z"/><path class="cls-5" d="M323.84,1842.11a3,3,0,1,1-3-3A3,3,0,0,1,323.84,1842.11Z"/><path class="cls-5" d="M2024.62,1989.36a3,3,0,1,1-3-3A3,3,0,0,1,2024.62,1989.36Z"/><path class="cls-5" d="M1932,1798.91a5.45,5.45,0,1,1-5.44-5.46A5.44,5.44,0,0,1,1932,1798.91Z"/><path class="cls-5" d="M40.79,1817.2a3.91,3.91,0,1,1-3.91-3.91A3.9,3.9,0,0,1,40.79,1817.2Z"/><path class="cls-5" d="M399.58,1788.89a3,3,0,1,1-3-3A3,3,0,0,1,399.58,1788.89Z"/><path class="cls-5" d="M1704.25,1651.53a5.45,5.45,0,1,1,5.44-5.45A5.44,5.44,0,0,1,1704.25,1651.53Z"/><path class="cls-5" d="M1731.78,1756.8a3,3,0,1,1,3-3A3,3,0,0,1,1731.78,1756.8Z"/><path class="cls-5" d="M103.59,1482.18a3,3,0,1,1-3-3A3,3,0,0,1,103.59,1482.18Z"/><path class="cls-5" d="M1374.15,1468a3,3,0,1,1-3-3A3,3,0,0,1,1374.15,1468Z"/><path class="cls-5" d="M1152.91,1597.8a7.83,7.83,0,1,1-7.83-7.82A7.83,7.83,0,0,1,1152.91,1597.8Z"/><path class="cls-5" d="M109.58,1749.63a3.91,3.91,0,1,1,3.91-3.91A3.9,3.9,0,0,1,109.58,1749.63Z"/><path class="cls-5" d="M704.67,1366.74a7.82,7.82,0,1,1-7.83-7.82A7.81,7.81,0,0,1,704.67,1366.74Z"/><path class="cls-5" d="M542,1543.94a3,3,0,1,1-3-3A3,3,0,0,1,542,1543.94Z"/><path class="cls-5" d="M939.61,1556.56a3,3,0,1,1-3-3A3,3,0,0,1,939.61,1556.56Z"/><path class="cls-5" d="M185,1556.56a5.45,5.45,0,1,1-5.44-5.45A5.45,5.45,0,0,1,185,1556.56Z"/><path class="cls-5" d="M241.06,1482.18a5.46,5.46,0,1,1-5.46-5.46A5.47,5.47,0,0,1,241.06,1482.18Z"/><path class="cls-5" d="M295.42,1584.07a7.83,7.83,0,1,1-7.82-7.82A7.83,7.83,0,0,1,295.42,1584.07Z"/><path class="cls-5" d="M352.11,1540.92a3,3,0,1,1-3-3A3,3,0,0,1,352.11,1540.92Z"/><path class="cls-5" d="M616.89,1580.66a3,3,0,1,1-3-3A3,3,0,0,1,616.89,1580.66Z"/><path class="cls-5" d="M1215.27,1547.25a3,3,0,1,1,3,3A3,3,0,0,1,1215.27,1547.25Z"/><path class="cls-5" d="M1079.11,1563.55a3,3,0,1,1,3,3A3,3,0,0,1,1079.11,1563.55Z"/><path class="cls-5" d="M627.34,1496a3,3,0,1,1-3-3A3,3,0,0,1,627.34,1496Z"/><path class="cls-5" d="M827.81,1580.66a7.82,7.82,0,1,1,7.82,7.82A7.81,7.81,0,0,1,827.81,1580.66Z"/><path class="cls-5" d="M1942.34,1556.56a7.83,7.83,0,1,1-7.83-7.82A7.84,7.84,0,0,1,1942.34,1556.56Z"/><path class="cls-5" d="M1847.3,1543.94a3,3,0,1,1-3-3A3,3,0,0,1,1847.3,1543.94Z"/><path class="cls-5" d="M2132.91,1482.18a3,3,0,1,1-3-3A3,3,0,0,1,2132.91,1482.18Z"/><path class="cls-5" d="M1204.84,1784.78a7.82,7.82,0,1,1-7.8-7.82A7.8,7.8,0,0,1,1204.84,1784.78Z"/><path class="cls-5" d="M1561.38,1551.11a5.46,5.46,0,1,1-5.47-5.44A5.47,5.47,0,0,1,1561.38,1551.11Z"/><path class="cls-5" d="M1546.35,1482.18a5.45,5.45,0,1,1-5.45-5.46A5.45,5.45,0,0,1,1546.35,1482.18Z"/><path class="cls-5" d="M1757.17,1540.91a7.84,7.84,0,1,1-7.84-7.82A7.84,7.84,0,0,1,1757.17,1540.91Z"/><path class="cls-5" d="M83.82,1602.06a7.82,7.82,0,1,1-7.82-7.82A7.82,7.82,0,0,1,83.82,1602.06Z"/><path class="cls-5" d="M2214.31,1556.56a5.45,5.45,0,1,1-5.45-5.45A5.46,5.46,0,0,1,2214.31,1556.56Z"/><path class="cls-5" d="M2270.38,1482.18a5.45,5.45,0,1,1-5.45-5.46A5.45,5.45,0,0,1,2270.38,1482.18Z"/></g><g class="cls-4"><polygon class="cls-5" points="271.4 1383.3 273.64 1411.14 302.67 1414.57 273.9 1415.11 271.4 1445.83 269.2 1415.35 240.15 1414.57 269.28 1411.23 271.4 1383.3"/><polygon class="cls-5" points="283.83 1400.81 273.83 1413.53 283.72 1426.82 271.75 1416.04 257.72 1427.2 269.48 1413.9 257.84 1401.21 271.42 1411.55 283.83 1400.81"/><polygon class="cls-5" points="1071.21 268.33 1073.45 296.16 1102.49 299.59 1073.71 300.13 1071.21 330.85 1069.01 300.37 1039.96 299.59 1069.1 296.25 1071.21 268.33"/><polygon class="cls-5" points="1083.66 285.83 1073.64 298.55 1083.53 311.84 1071.56 301.07 1057.54 312.23 1069.3 298.93 1057.65 286.23 1071.22 296.58 1083.66 285.83"/><polygon class="cls-5" points="902.24 700.43 904.48 728.27 933.5 731.69 904.71 732.23 902.24 762.96 900.03 732.48 870.97 731.69 900.11 728.36 902.24 700.43"/><polygon class="cls-5" points="914.67 717.94 904.65 730.66 914.55 743.94 902.57 733.17 888.54 744.33 900.32 731.03 888.65 718.33 902.24 728.68 914.67 717.94"/><polygon class="cls-5" points="257.71 388.9 259.96 416.74 288.98 420.16 260.2 420.7 257.71 451.42 255.5 420.94 226.45 420.16 255.6 416.82 257.71 388.9"/><polygon class="cls-5" points="270.16 406.4 260.13 419.13 270.02 432.42 258.05 421.64 244.03 432.81 255.8 419.51 244.14 406.8 257.72 417.15 270.16 406.4"/><polygon class="cls-5" points="593.42 642.13 595.66 669.97 624.68 673.39 595.91 673.93 593.42 704.66 591.21 674.18 562.16 673.39 591.3 670.05 593.42 642.13"/><polygon class="cls-5" points="605.87 659.63 595.84 672.36 605.73 685.64 593.76 674.87 579.73 686.04 591.5 672.74 579.85 660.03 593.43 670.39 605.87 659.63"/><polygon class="cls-5" points="790.41 1392.82 791.98 1412.18 812.17 1414.57 792.14 1414.94 790.41 1436.32 788.88 1415.12 768.66 1414.57 788.94 1412.24 790.41 1392.82"/><polygon class="cls-5" points="799.07 1405 792.09 1413.84 798.99 1423.09 790.64 1415.6 780.9 1423.37 789.08 1414.11 780.97 1405.27 790.41 1412.48 799.07 1405"/><polygon class="cls-5" points="111.73 601.97 113.29 621.34 133.49 623.73 113.46 624.1 111.73 645.48 110.19 624.27 89.98 623.73 110.25 621.4 111.73 601.97"/><polygon class="cls-5" points="120.39 614.15 113.41 623.01 120.3 632.25 111.96 624.75 102.21 632.52 110.39 623.26 102.28 614.43 111.74 621.63 120.39 614.15"/><polygon class="cls-5" points="1378.07 580.21 1379.64 599.58 1399.84 601.97 1379.81 602.34 1378.07 623.73 1376.56 602.51 1356.34 601.97 1376.6 599.64 1378.07 580.21"/><polygon class="cls-5" points="1386.75 592.4 1379.76 601.25 1386.65 610.5 1378.31 603 1368.56 610.77 1376.74 601.51 1368.63 592.67 1378.1 599.88 1386.75 592.4"/><polygon class="cls-5" points="544.16 319.8 545.73 339.16 565.92 341.55 545.89 341.92 544.16 363.3 542.63 342.1 522.41 341.55 542.69 339.22 544.16 319.8"/><polygon class="cls-5" points="552.82 331.97 545.84 340.83 552.74 350.07 544.39 342.57 534.63 350.35 542.83 341.09 534.72 332.25 544.17 339.45 552.82 331.97"/><polygon class="cls-5" points="1962.05 1313.67 1964.29 1341.51 1993.32 1344.93 1964.55 1345.47 1962.05 1376.2 1959.85 1345.72 1930.79 1344.93 1959.94 1341.59 1962.05 1313.67"/><polygon class="cls-5" points="1974.5 1331.18 1964.48 1343.91 1974.36 1357.18 1962.39 1346.41 1948.37 1357.58 1960.13 1344.28 1948.49 1331.58 1962.07 1341.93 1974.5 1331.18"/><polygon class="cls-5" points="1613.81 1553.87 1616.05 1581.7 1645.08 1585.12 1616.31 1585.66 1613.81 1616.38 1611.61 1585.9 1582.56 1585.12 1611.68 1581.79 1613.81 1553.87"/><polygon class="cls-5" points="1626.24 1571.37 1616.24 1584.09 1626.13 1597.37 1614.16 1586.61 1600.13 1597.77 1611.89 1584.47 1600.25 1571.76 1613.83 1582.12 1626.24 1571.37"/><polygon class="cls-5" points="2319.21 445.66 2321.45 473.5 2350.46 476.92 2321.69 477.46 2319.21 508.18 2316.99 477.7 2287.94 476.92 2317.08 473.58 2319.21 445.66"/><polygon class="cls-5" points="1815.35 269.45 1817.59 297.29 1846.62 300.71 1817.82 301.25 1815.35 331.97 1813.15 301.49 1784.09 300.71 1813.22 297.37 1815.35 269.45"/><polygon class="cls-5" points="1827.78 286.95 1817.78 299.68 1827.66 312.96 1815.7 302.18 1801.67 313.35 1813.43 300.05 1801.79 287.35 1815.35 297.7 1827.78 286.95"/><polygon class="cls-5" points="2159.51 601.97 2161.08 621.34 2181.28 623.73 2161.27 624.1 2159.51 645.48 2157.99 624.27 2137.78 623.73 2158.04 621.4 2159.51 601.97"/><polygon class="cls-5" points="2168.19 614.15 2161.22 623.01 2168.09 632.25 2159.77 624.75 2150 632.52 2158.18 623.26 2150.09 614.43 2159.54 621.63 2168.19 614.15"/><polygon class="cls-5" points="1724.82 1056.03 1726.38 1075.4 1746.58 1077.78 1726.55 1078.16 1724.82 1099.54 1723.3 1078.33 1703.08 1077.78 1723.34 1075.46 1724.82 1056.03"/><polygon class="cls-5" points="1733.49 1068.21 1726.5 1077.06 1733.39 1086.31 1725.05 1078.81 1715.3 1086.58 1723.48 1077.32 1715.37 1068.48 1724.84 1075.69 1733.49 1068.21"/><polygon class="cls-5" points="1436.37 1182.73 1437.94 1202.09 1458.13 1204.48 1438.1 1204.85 1436.37 1226.23 1434.85 1205.03 1414.63 1204.48 1434.9 1202.15 1436.37 1182.73"/><polygon class="cls-5" points="1445.04 1194.9 1438.05 1203.76 1444.95 1213 1436.6 1205.5 1426.86 1213.28 1435.04 1204.02 1426.93 1195.18 1436.37 1202.38 1445.04 1194.9"/><polygon class="cls-5" points="1560.8 642.85 1562.36 662.22 1582.56 664.6 1562.52 664.98 1560.8 686.36 1559.25 665.14 1539.03 664.6 1559.32 662.28 1560.8 642.85"/><polygon class="cls-5" points="1569.44 655.02 1562.48 663.88 1569.37 673.12 1561.03 665.62 1551.28 673.4 1559.46 664.14 1551.35 655.3 1560.8 662.5 1569.44 655.02"/></g><rect class="cls-6" x="-0.01" width="2299.75" height="2174.16" transform="translate(2299.73 2174.16) rotate(180)"/></g></g></svg>