<svg xmlns="http://www.w3.org/2000/svg" viewBox="0 0 334.14 185.56"><defs><style>.cls-1{fill:#fa8f00;}.cls-2{fill:#f9a600;}.cls-3{fill:#f7bc00;}.cls-4{fill:#1c75bc;}.cls-5{fill:#2b3990;}.cls-6{fill:#f1f2f2;}.cls-7{fill:#d8d8d8;}.cls-8{fill:#96daed;}.cls-9{fill:#a9e8f7;}</style></defs><g id="OBJECT"><path class="cls-1" d="M212,64.34,196.45,92.8l15,28.72s30.06,15.5,51.61,9.56,34-3.53,34-3.53-17.18-14.29-36-10.7c0,0,3.89-4.85,26.51-6.83s42-16.06,42-16.06S310.52,79.53,288,77.16s-26.39-7.29-26.39-7.29c18.72,3.92,36.15-10.07,36.15-10.07s-12.52,2.2-34-4.12S212,64.34,212,64.34Z"/><path class="cls-2" d="M207.46,113.82c12.19-.09,64.77-1.59,98.16-20.07C272.56,74.69,220,72.27,207.82,72L196.45,92.8Z"/><path class="cls-3" d="M204.72,108.59c16.53-1,45-4.22,64.73-15.16C249.89,82.15,221.5,78.4,205,77.15L196.45,92.8Z"/><path class="cls-4" d="M190.9,92.75,198,123l13.46-1.52s8-12.7,8.14-28.52S212,64.34,212,64.34l-13.44-1.76Z"/><path class="cls-4" d="M198.59,123.05c-4.24.61-13.56,2.94-25.56,5.43,3.72,8.1,13.56,25.19,32.45,31.39,25.13,8.24,44.62.39,44.62.39S211.63,152,199.28,122C198.85,122.68,198.59,123.05,198.59,123.05Z"/><path class="cls-5" d="M199.11,62.59c-4.22-.69-13.5-3.18-25.45-5.88,3.86-8,14-24.95,33-30.82,25.27-7.8,44.62.39,44.62.39s-38.61,7.6-51.48,37.41C199.37,63,199.11,62.59,199.11,62.59Z"/><path class="cls-6" d="M76.14,54.47A294.85,294.85,0,0,0,32.3,77.73,16.32,16.32,0,0,0,32.06,105a293.7,293.7,0,0,0,43.43,24c38.34,17.14,109-3.93,123.1-6,0,0,7.3-10,7.47-30.17s-6.95-30.29-6.95-30.29C185,60.3,114.77,38,76.14,54.47Z"/><circle class="cls-7" cx="100.46" cy="89.54" r="23.49" transform="translate(-33.89 97.26) rotate(-45)"/><circle class="cls-4" cx="98.02" cy="91.94" r="23.49" transform="translate(-9.14 173.03) rotate(-80.28)"/><circle class="cls-8" cx="98.02" cy="91.94" r="16.43" transform="translate(-9.14 173.03) rotate(-80.28)"/><path class="cls-4" d="M55.84,91.57c.07-8.95-3.08-17.38-6.58-24-6.45,3.56-12.14,7-17,10.13A16.32,16.32,0,0,0,32.06,105c4.77,3.2,10.4,6.75,16.79,10.43C52.46,108.9,55.76,100.52,55.84,91.57Z"/><path class="cls-9" d="M109.21,104l-23-23.43A16.33,16.33,0,0,0,82,88.13L101.55,108A16.53,16.53,0,0,0,109.21,104Z"/><path class="cls-9" d="M113.36,97.83,92.4,76.5A15.9,15.9,0,0,0,89,78.2l22.6,23A16.88,16.88,0,0,0,113.36,97.83Z"/><path class="cls-5" d="M217.19,85.59c.72.4,1.41.75,2.08,1.07A61.41,61.41,0,0,0,212,64.34l-13.44-1.76-3.42,13.5A132.17,132.17,0,0,1,217.19,85.59Z"/><path class="cls-7" d="M76.14,54.47A294.85,294.85,0,0,0,32.3,77.73a16.34,16.34,0,0,0-4.77,22.73s0-20.61,43.22-32.68c38.42-10.73,98.59-2.73,134.33,12-1.92-11.47-6-17.21-6-17.21C185,60.3,114.77,38,76.14,54.47Z"/><path class="cls-5" d="M32.3,77.73a16.34,16.34,0,0,0-4.77,22.73s0-14.26,24.89-26a64.12,64.12,0,0,0-3.16-6.86C42.81,71.16,37.12,74.61,32.3,77.73Z"/></g></svg>