<svg xmlns="http://www.w3.org/2000/svg" viewBox="0 0 300 300"><defs><style>.cls-1{fill:#fa8f00;}.cls-2{fill:#f9a600;}.cls-3{fill:#f7bc00;}.cls-4{fill:#ea2d2d;}.cls-5{fill:#c92424;}.cls-6{fill:#f1f2f2;}.cls-7{fill:#d8d8d8;}.cls-8{fill:#96daed;}.cls-9{fill:#a9e8f7;}</style></defs><g id="OBJECT"><path class="cls-1" d="M184,169.05l-32.41-1-18.81,26.41s-.21,33.82,14.84,50.34,18.54,28.75,18.54,28.75,5-21.79-6.74-36.92c0,0,6.09,1.27,18.09,20.55s33.32,30.16,33.32,30.16,4.22-23.57-3.89-44.78-5.44-26.82-5.44-26.82c5,18.46,25.34,27.68,25.34,27.68s-7.62-10.17-11.69-32.15S184,169.05,184,169.05Z"/><path class="cls-2" d="M137.87,187.41c5.59,10.82,30.73,57,62.32,78.45,2-38.11-19.59-86.07-24.83-97.07l-23.73-.71Z"/><path class="cls-3" d="M141.29,182.6c8.34,14.3,24.12,38.19,42.81,50.86,1.21-22.55-8.29-49.56-14.65-64.85l-17.82-.53Z"/><path class="cls-4" d="M149.16,163.1l-23.79,20.07,7.45,11.32s15,1.38,29.12-5.65S184,169.05,184,169.05l-4.51-12.77Z"/><path class="cls-4" d="M125.62,183.67c-2.46-3.5-8.75-10.76-16.4-20.33-5.55,7-16.33,23.49-13.31,43.14,4,26.14,19.84,40,19.84,40s-10-38,11.16-62.65C126.07,183.74,125.62,183.67,125.62,183.67Z"/><path class="cls-5" d="M179.78,156.78c-1.3-4.08-3.28-13.47-6.28-25.36,8.92-.19,28.59,1.19,42.41,15.47,18.39,19,19.85,40,19.85,40s-24.25-31-56.66-29C179.57,157.18,179.78,156.78,179.78,156.78Z"/><path class="cls-6" d="M131.37,43.45A294.8,294.8,0,0,0,90.79,14.87,16.33,16.33,0,0,0,66.36,27a294.76,294.76,0,0,0-1.77,49.6c2.07,41.94,52.82,95.41,61,107.07,0,0,12.22,2,30.29-7s23.87-19.9,23.87-19.9C175.45,143.19,163.53,70.44,131.37,43.45Z"/><circle class="cls-7" cx="111.1" cy="81" r="23.49" transform="translate(-1.1 160.47) rotate(-71.41)"/><circle class="cls-4" cx="107.86" cy="79.91" r="23.49" transform="translate(-18.8 35.44) rotate(-17.19)"/><circle class="cls-8" cx="107.86" cy="79.91" r="16.43" transform="translate(-18.8 35.44) rotate(-17.19)"/><path class="cls-4" d="M89.1,42.13c8-4,14.11-10.61,18.4-16.71-6.09-4.14-11.75-7.65-16.71-10.55A16.33,16.33,0,0,0,66.36,27c-.69,5.71-1.31,12.33-1.7,19.69C72.12,47,81.08,46.11,89.1,42.13Z"/><path class="cls-9" d="M102.19,95.33,112.66,64.2a16.42,16.42,0,0,0-8.64-.27L95.14,90.32A16.37,16.37,0,0,0,102.19,95.33Z"/><path class="cls-9" d="M109.55,96.26l9.54-28.35A16.41,16.41,0,0,0,116,65.65L105.75,96.21A16.63,16.63,0,0,0,109.55,96.26Z"/><path class="cls-5" d="M167.45,183.31c0,.82,0,1.6,0,2.34a61.47,61.47,0,0,0,16.6-16.6l-4.51-12.77L166,159.33A133.72,133.72,0,0,1,167.45,183.31Z"/><path class="cls-7" d="M131.37,43.45A294.8,294.8,0,0,0,90.79,14.87a16.34,16.34,0,0,0-22.43,6s18.39-9.31,48.7,23.75c26.95,29.41,47.05,86.68,50.07,125.22,9.35-6.89,12.65-13.1,12.65-13.1C175.45,143.19,163.53,70.44,131.37,43.45Z"/><path class="cls-5" d="M90.79,14.87a16.34,16.34,0,0,0-22.43,6s12.73-6.44,34.45,10.43a65.21,65.21,0,0,0,4.69-5.92C101.41,21.28,95.75,17.77,90.79,14.87Z"/></g></svg>